<?xml version="1.0" encoding="UTF-8"?>
<svg id="Capa_2" xmlns="http://www.w3.org/2000/svg" viewBox="0 0 385 270">
  <defs>
    <style>
      .cls-1 {
        fill: #d80025;
      }

      .cls-2 {
        fill: #fff;
      }

      .cls-3 {
        fill: #ffc800;
      }

      .cls-4 {
        fill: #003189;
      }
    </style>
  </defs>
  <g>
    <path class="cls-2" d="M82.54,200.85c-5.08,0-9.43-1.03-13.05-3.08-3.62-2.05-6.41-4.96-8.34-8.72-1.94-3.76-2.91-8.21-2.91-13.33s.97-9.56,2.91-13.3c1.94-3.74,4.72-6.64,8.34-8.69,3.62-2.05,7.97-3.08,13.05-3.08,3.28,0,6.38.51,9.31,1.52,2.93,1.02,5.34,2.47,7.24,4.36l-2.91,7.06c-2.08-1.75-4.2-3.04-6.37-3.84-2.17-.81-4.5-1.21-6.99-1.21-4.94,0-8.7,1.49-11.29,4.47-2.59,2.98-3.88,7.21-3.88,12.71s1.29,9.74,3.88,12.74c2.58,3,6.35,4.5,11.29,4.5,2.49,0,4.82-.4,6.99-1.21,2.17-.81,4.29-2.09,6.37-3.84l2.91,7.06c-1.89,1.85-4.31,3.29-7.24,4.33-2.93,1.04-6.04,1.56-9.31,1.56Z"/>
    <path class="cls-2" d="M118.27,200.85c-2.82,0-5.15-.52-6.99-1.56-1.85-1.04-3.22-2.6-4.12-4.67-.9-2.08-1.35-4.66-1.35-7.75v-20.57h8.66v20.7c0,1.57.22,2.88.66,3.95.44,1.06,1.11,1.85,2.01,2.35.9.51,2.04.76,3.43.76,1.57,0,2.94-.36,4.12-1.07,1.18-.72,2.1-1.73,2.77-3.05s1-2.85,1-4.61v-19.04h8.66v33.86h-8.45v-7.06h.97c-.97,2.49-2.44,4.41-4.4,5.75-1.96,1.34-4.28,2.01-6.96,2.01Z"/>
    <path class="cls-2" d="M157.88,200.85c-4.02,0-6.98-1.1-8.9-3.29-1.92-2.19-2.87-5.41-2.87-9.66v-36.56h8.66v36.15c0,1.34.2,2.48.59,3.43.39.95.98,1.65,1.77,2.11.78.46,1.75.69,2.91.69.51,0,1.02-.02,1.52-.07.51-.04.99-.14,1.45-.28l-.14,6.86c-.83.18-1.65.33-2.46.45s-1.65.17-2.53.17Z"/>
    <path class="cls-2" d="M183.71,200.85c-4.52,0-7.89-1.13-10.11-3.39-2.22-2.26-3.32-5.56-3.32-9.9v-14.75h-6.51v-6.51h6.51v-10.11h8.66v10.11h10.25v6.51h-10.25v14.26c0,2.22.48,3.88,1.45,4.98s2.54,1.66,4.71,1.66c.65,0,1.32-.08,2.01-.24.69-.16,1.41-.33,2.15-.52l1.32,6.37c-.83.46-1.88.83-3.15,1.11-1.27.28-2.51.42-3.71.42Z"/>
    <path class="cls-2" d="M207.04,200.85c-2.82,0-5.15-.52-6.99-1.56-1.85-1.04-3.22-2.6-4.12-4.67-.9-2.08-1.35-4.66-1.35-7.75v-20.57h8.66v20.7c0,1.57.22,2.88.66,3.95.44,1.06,1.11,1.85,2.01,2.35.9.51,2.04.76,3.43.76,1.57,0,2.94-.36,4.12-1.07,1.18-.72,2.1-1.73,2.77-3.05s1-2.85,1-4.61v-19.04h8.66v33.86h-8.45v-7.06h.97c-.97,2.49-2.44,4.41-4.4,5.75-1.96,1.34-4.28,2.01-6.96,2.01Z"/>
    <path class="cls-2" d="M234.88,200.16v-33.86h8.45v8.17h-.69c.65-2.77,1.91-4.88,3.81-6.34s4.41-2.3,7.55-2.53l2.63-.21.55,7.34-4.98.49c-2.82.28-4.94,1.14-6.37,2.6-1.43,1.45-2.15,3.5-2.15,6.13v18.21h-8.79Z"/>
    <path class="cls-2" d="M273.17,200.85c-2.45,0-4.63-.47-6.54-1.42-1.92-.95-3.42-2.23-4.5-3.84-1.08-1.62-1.63-3.44-1.63-5.47,0-2.49.65-4.47,1.94-5.92,1.29-1.45,3.39-2.5,6.3-3.15,2.91-.64,6.81-.97,11.7-.97h3.46v4.98h-3.39c-2.17,0-3.99.08-5.47.24-1.48.16-2.66.42-3.57.76s-1.55.82-1.94,1.42c-.39.6-.59,1.34-.59,2.22,0,1.52.53,2.77,1.59,3.74,1.06.97,2.54,1.45,4.43,1.45,1.52,0,2.87-.36,4.05-1.07,1.18-.71,2.11-1.7,2.8-2.94.69-1.25,1.04-2.68,1.04-4.29v-7.96c0-2.31-.51-3.97-1.52-4.99-1.02-1.01-2.72-1.52-5.12-1.52-1.89,0-3.83.29-5.82.87-1.99.58-3.99,1.47-6.02,2.67l-2.49-5.89c1.2-.83,2.62-1.56,4.26-2.18,1.64-.62,3.37-1.11,5.19-1.45,1.82-.35,3.54-.52,5.16-.52,3.32,0,6.06.51,8.2,1.52,2.15,1.02,3.75,2.55,4.81,4.61,1.06,2.05,1.59,4.7,1.59,7.93v20.5h-8.1v-7.2h.55c-.32,1.62-.96,3.01-1.91,4.19s-2.14,2.09-3.57,2.74c-1.43.65-3.07.97-4.92.97Z"/>
    <path class="cls-2" d="M312.29,200.85c-1.89,0-3.73-.16-5.51-.48-1.78-.32-3.4-.77-4.88-1.35-1.48-.58-2.77-1.3-3.88-2.18l2.22-5.68c1.15.74,2.4,1.38,3.74,1.94,1.34.55,2.72.97,4.15,1.25,1.43.28,2.84.42,4.22.42,2.22,0,3.87-.38,4.95-1.14,1.08-.76,1.63-1.77,1.63-3.01,0-1.06-.36-1.88-1.07-2.46-.72-.58-1.79-1-3.22-1.28l-6.92-1.32c-2.86-.55-5.04-1.6-6.54-3.15-1.5-1.55-2.25-3.54-2.25-5.99,0-2.22.61-4.13,1.83-5.75,1.22-1.62,2.92-2.86,5.09-3.74,2.17-.88,4.66-1.32,7.48-1.32,1.61,0,3.18.15,4.71.45s2.97.74,4.33,1.32,2.55,1.33,3.57,2.25l-2.35,5.68c-.88-.74-1.89-1.37-3.05-1.9-1.16-.53-2.34-.95-3.57-1.25-1.22-.3-2.41-.45-3.57-.45-2.26,0-3.94.39-5.02,1.18s-1.63,1.82-1.63,3.12c0,.97.32,1.78.97,2.42.65.65,1.64,1.08,2.98,1.31l6.92,1.32c3,.55,5.27,1.57,6.82,3.05,1.55,1.48,2.32,3.46,2.32,5.95,0,2.26-.6,4.2-1.8,5.82-1.2,1.62-2.89,2.85-5.06,3.71-2.17.85-4.71,1.28-7.62,1.28Z"/>
  </g>
  <g>
    <path class="cls-2" d="M195.81,80.54c.25.27.71.4,1.17.19.08.2.24.38.46.46.1.04.21.06.31.06.25,0,.5-.1.76-.3.31.44,1.05.55,1.82.55.45,0,.9-.04,1.29-.07.22-.02.41-.03.55-.04.98-.05,1.67-.26,2.2-.92.49.18,1.81.5,3.21-1.44.4-.13,2.45-.88,2.09-3.09.3-.28,1.27-1.31.71-2.62.08-.29.3-1.27-.18-1.73-.09-.21-.54-1.13-1.33-1.29-.49-.1-.99.11-1.49.62-.07.07-.29.31-.36.53-.46.26-.65.73-.7.9-.37.19-.57.55-.67.77-.66-.13-1.4.03-2.21.47-.55-.41-1.18-.64-1.86-.64,0,0,0,0-.01,0-.88-.02-1.75.39-2.44,1.15-.89.99-1.35,2.44-1.22,3.81-.19,0-.38.05-.54.16-.29.2-.47.55-.49.95h0s0,0,0,0c-.38-.02-.72.09-.97.32-.43.49-.32.95-.09,1.2ZM205.88,73.55c.95.36,1.31,1.4,1.32,1.41l.35-.12s-.42-1.21-1.53-1.64c0,0,0,0,0,0,.1-.21.31-.54.66-.6.36-.07,1.01.12,2.03,1.41l.29-.23c-.84-1.06-1.58-1.58-2.22-1.56.1-.19.27-.42.57-.54.46-.18,1.06,0,1.81.5l.21-.31c-.68-.46-1.28-.66-1.79-.61.03-.03.06-.07.09-.1.41-.42.8-.59,1.16-.52.68.13,1.08,1.1,1.08,1.11l.02.04.03.03c.34.29.18,1.14.08,1.44l-.02.07.03.06c.6,1.3-.61,2.28-.66,2.32l-.09.07.02.11c.42,2.17-1.78,2.76-1.87,2.79l-.07.02-.04.06c-1.1,1.55-2.21,1.55-2.77,1.41.89-1.43.93-3.51.07-5.17-.24-.47-.54-.86-.88-1.18.81-.41,1.53-.51,2.14-.28ZM196.16,79.59c.22-.21.52-.22.66-.21.15.02.25-.03.31-.08.05-.05.12-.14.11-.27.01-.28.14-.53.34-.66.2-.14.46-.14.63,0l.34.27-.04-.43c-.01-.12.02-.21.11-.29.14-.13.41-.19.65-.15.15.02.66.1.76.46l.13.44.21-.41c.22-.44.68-.59,1-.54.33.05.56.29.62.66l.36-.06c-.09-.53-.43-.88-.93-.96-.09-.01-.18-.01-.27,0,.11-.56.48-1.95,1.59-2.25.21.23.38.51.51.84.53,1.29.32,3-.49,3.97l.28.23c.9-1.09,1.13-2.91.54-4.35-.41-1-1.13-1.61-2.05-1.71-.73-.07-1.46.25-2.04.91-.54.61-.89,1.44-1.01,2.35,0,.03-.01.13-.02.2-.05.03-.09.06-.13.09-.04.04-.07.07-.1.12-.09-1.24.33-2.53,1.14-3.42.62-.68,1.38-1.05,2.16-1.03h.01c1.12,0,2.11.68,2.72,1.87.81,1.57.76,3.55-.1,4.87-.32.65-1.42.97-2.04.97-.15,0-.34.02-.57.04-.88.07-2.51.21-2.82-.35l-.06-.09-.1-.27c-.26.31-.65.65-1.04.51-.14-.05-.28-.21-.26-.39l.04-.41-.33.24c-.36.26-.75.2-.93,0-.17-.18-.13-.45.09-.7ZM198.88,77.41c.1-.84.42-1.6.92-2.17.5-.57,1.12-.85,1.72-.79.34.04.64.16.91.36-1.27.51-1.59,2.16-1.66,2.62-.21.08-.4.22-.55.39-.19-.23-.51-.38-.9-.42-.13-.02-.29-.02-.44,0Z"/>
    <path class="cls-2" d="M173.97,75.94c-.36,2.21,1.69,2.96,2.09,3.09.92,1.27,1.88,1.56,2.57,1.56.45,0,.78-.12.92-.18.34.1.68.15,1.01.15.42,0,.82-.08,1.21-.23.1.11.29.2.64.19.35-.01.77-.02,1.14-.2.13.14.36.21.66.21.61-.01,1.2-.05,1.66-.36.1.08.25.12.44.13.89.04,1.82.08,2.71-.03.21,0,.37-.11.41-.28.05-.17-.03-.36-.22-.49-.04-.02-.07-.05-.11-.07-.06-.04-.12-.07-.15-.11,0-.01-.01-.03-.02-.04-.02-.04-.05-.1-.1-.15l-.06-.04c-.27-.12-.64-.15-.99-.19-.16-.01-.31-.03-.44-.05-.1-.36-.5-.59-.89-.61-.04,0-.09,0-.11-.02-.01,0-.04-.04-.05-.07-.01-.02-.03-.04-.04-.06-.14-.18-.33-.27-.53-.31.11-1.35-.34-2.72-1.22-3.69-.67-.74-1.52-1.15-2.37-1.15-.02,0-.05,0-.07,0-.68,0-1.32.23-1.87.64-.81-.44-1.55-.6-2.21-.47-.09-.21-.3-.58-.67-.77-.05-.17-.25-.64-.7-.9-.07-.22-.29-.45-.36-.53-.5-.51-1.01-.72-1.49-.62-.79.16-1.24,1.08-1.33,1.29-.48.47-.26,1.45-.18,1.73-.56,1.31.41,2.34.71,2.62ZM185.97,78.31l.03.04c.04.06.08.12.16.17.1.06.2.07.31.07.25.02.53.19.54.41v.14s.15.03.15.03c.18.04.4.06.61.08.3.03.62.06.84.14,0,0,0,.02.01.02.01.03.03.05.04.08.07.12.19.18.28.24.03.02.06.03.08.05.06.04.07.08.07.08h0s-.03.02-.1.02c-.88.12-1.79.07-2.66.03-.18,0-.24-.05-.25-.07l-.08-.28-.22.19c-.39.34-.97.38-1.58.39-.17,0-.38-.03-.4-.12l-.05-.27-.23.15c-.3.19-.67.22-1.13.23-.21,0-.35-.03-.37-.1l-.06-.21-.2.09c-.21.1-.46.16-.72.2-.89-.9-1.22-2.57-.77-3.96.1-.3.29-.72.6-1.07,1.16.32,1.52,1.89,1.61,2.42h-.26s.02.38.02.38l1.73-.07c.17,0,.31,0,.38.04.17.16.34.23.51.23.1,0,.21,0,.31,0,.31,0,.61,0,.77.2ZM181.22,74.81c.25-.18.54-.32.92-.36.5-.07,1.04.14,1.52.59.7.66,1.12,1.67,1.11,2.65-.05-.02-.09-.06-.15-.11-.2-.14-.46-.13-.63-.12l-1.1.05c-.08-.53-.43-2.18-1.67-2.69ZM182.08,73.3s0,0,.01,0c.78-.01,1.54.35,2.15,1.03.8.88,1.22,2.17,1.13,3.4-.06,0-.11,0-.17,0-.02,0-.05,0-.07,0,.02-1.08-.45-2.23-1.23-2.96-.56-.53-1.21-.77-1.82-.69-.99.12-1.77.83-2.14,1.97-.4,1.24-.28,2.98.66,4.12-.39.01-.8-.04-1.16-.14-.86-1.32-.9-3.29-.09-4.86.61-1.19,1.61-1.87,2.73-1.87ZM173.63,73.28c-.09-.3-.26-1.15.08-1.45l.03-.03.02-.04s.4-.97,1.08-1.11c.36-.07.75.1,1.16.52.03.03.06.06.09.1-.51-.05-1.11.15-1.79.61l.21.31c.74-.5,1.35-.67,1.81-.5.29.11.47.35.57.54-.64-.02-1.38.5-2.22,1.56l.29.23c1.02-1.29,1.66-1.48,2.03-1.41.35.07.56.39.66.6,0,0,0,0-.01,0-1.11.42-1.51,1.59-1.53,1.64l.35.12s.37-1.05,1.31-1.41c.61-.23,1.33-.14,2.14.28-.34.32-.64.71-.88,1.18-.85,1.66-.82,3.74.07,5.16-.56.13-1.68.12-2.76-1.41l-.04-.06-.07-.02c-.09-.02-2.3-.61-1.87-2.79l.02-.11-.09-.07c-.05-.04-1.26-1.02-.66-2.32l.03-.06-.02-.07Z"/>
    <path class="cls-2" d="M191.65,78.98c-.02.62-.08,1.27-.2,1.96v.08s.03.06.03.06c.02.02.4.53,1.08.77l.21.08.03-.22c0-.07.23-1.74.03-3.54,2.26-.69,2.96-2.97,3.16-3.93.12-.57.08-.59,0-.65l-.08-.06-.1.04c-1.92.74-2.81,2.15-3.23,3.23-.15-.58-.35-1.08-.61-1.5,1.86-.19,3.31-1.76,3.31-3.66,0-1.07-.47-2.03-1.2-2.71l.91-1.12-1.72.2-.52-.88-.88.55-.7-.57-.36.72-1.56-.61.42,1.27c-1.2.69-1.76,1.97-1.76,3.16,0,1.52.92,3.18,2.92,3.59.08.11.5.73.7,2.03-.65-.99-1.81-2.16-3.79-2.49l-.15-.03-.05.15c-.05.16.39,1.18.86,1.9.61.93,1.66,2.05,3.23,2.23ZM192.74,77.54c.25-.95.95-2.64,2.93-3.53-.15.83-.76,3.17-3,3.81l.07-.29ZM194.15,68.26l-.34.41c-.16-.12-.32-.22-.5-.32l.84-.1ZM194.93,71.61c0,1.49-.99,2.75-2.34,3.16,2.17-2.93.64-5.41-.13-6.36,1.42.38,2.47,1.67,2.47,3.2ZM192.64,67.61l.35.59c-.29-.12-.59-.2-.91-.24l.57-.35ZM191.31,67.66l.34.28s-.04,0-.05,0c-.15,0-.3.02-.44.04l.16-.31ZM190.57,68.09c-.19.05-.38.12-.55.19l-.15-.47.7.27ZM188.29,71.61c0-1.36.82-2.83,2.58-3.22-.77.93-2.35,3.43-.18,6.39-1.64-.45-2.4-1.86-2.4-3.17ZM191.44,68.31c.06,0,.11-.01.17-.01.09,0,.18,0,.27.01.37.36,3.03,3.14.15,6.58-.14.02-.28.03-.42.03-.13,0-.25-.02-.37-.03-2.85-3.46-.18-6.22.2-6.58ZM191.32,75.27c.08,0,.16.02.24.02.39.55.66,1.3.82,2.23l.06.37.02.16c.17,1.42.07,2.82.01,3.37-.33-.16-.55-.39-.64-.49.12-.74.18-1.44.19-2.1v-.17s-.01-.58-.01-.58h0c-.08-1.47-.44-2.36-.68-2.79ZM191.65,78.16l.22.47h-.02c-2.36-.17-3.51-2.63-3.84-3.47,2.17.49,3.21,2.08,3.64,3.01Z"/>
    <path class="cls-2" d="M179.1,44.07c-.16-.18-.16-.5-.06-.71.03-.06.07-.12.12-.17,0,0,.02-.02.03-.02-.22.1-.52,0-.63-.22-.13-.27.05-.62.33-.73-.23.04-.44.16-.66.24-.22.08-.49.1-.67-.05-.18-.15-.21-.42-.13-.64.08-.22.24-.39.41-.56-.37.09-.69.44-1.05.32-.36-.12-.4-.63-.21-.96.19-.32.52-.54.73-.85-.55.26-1.13.46-1.72.6-.21.05-.45.08-.62-.05-.12-.1-.1-.3-.01-.4l-.83.28c-.19.06-.4.13-.6.07-.2-.06-.35-.3-.24-.46-.3.18-.62.37-.97.33-.21-.02-.36-.12-.47-.3-.12-.21-.03-.31.15-.46-.33.13-.66.54-.56.92.08.27.4.42.68.39.29-.03.54-.18.78-.33-.1.06.2.39.24.43.2.15.5.19.73.14.14-.03.27-.09.4-.15.04-.02.38-.18.38-.22,0,.18.26.23.44.23.37,0,.74-.02,1.11-.03-.26.23-.33.65-.16.96.17.31.57.47.91.38-.28.32-.06.88.35,1.01.35.11.73-.06.97-.34-.03.04-.06.1-.09.14-.03.05-.05.1-.07.15-.04.11-.06.23-.04.34.02.1.06.2.12.29.05.08.12.14.21.18.04.02.09.03.14.03.11,0,.21-.05.3-.11-.06.1-.13.21-.18.32-.05.11-.1.23-.12.35-.04.29.21.53.48.57.15.02.32,0,.45-.08.31-.18.48-.52.62-.84-.24.31-.78.33-1.03.03Z"/>
    <path class="cls-2" d="M165.21,40.26c.23-.06.43-.2.64-.32.05-.03.12-.06.18-.03.05.03.05.1.06.16.03.28.31.48.59.5.28.02.56-.1.79-.26,0,.05-.02.1-.02.16.12.18.34.27.56.28.22,0,.43-.06.64-.12.26-.08.55-.18.7-.41-.13.13-.3.28-.49.25-.21-.03-.33-.28-.3-.48.03-.21.17-.38.31-.54-.36.22-.75.39-1.16.51-.17.05-.35.09-.52.04-.17-.04-.32-.2-.31-.37,0-.1.07-.18.13-.25.1-.11.23-.2.36-.27-.33.13-.67.27-1,.4-.25.1-.51.2-.78.18-.27-.02-.55-.2-.58-.46-.01-.1.01-.21.06-.3-.04.03-.09.06-.13.09-.17.13-.33.28-.42.47-.09.19-.09.44.04.6.15.18.43.22.66.16Z"/>
    <path class="cls-2" d="M182.03,34.4s-.07.03-.09.04c-.03.01-.06.02-.09.03-.12.04-.25.08-.38.07-.2,0-.42-.13-.46-.33-.03-.13.02-.28-.06-.39-.08-.11-.24-.11-.37-.08-.3.06-.93.51-1.17.12-.04-.06-.04-.14-.03-.21,0-.05.03-.1.05-.14-.27.23-.54.31-.84.47-.3.16-.6.3-.91.43-.18.08-.44.13-.58-.05-.17-.22.01-.57.17-.75.16-.19.17-.2.38-.33-.81.32-1.5.49-2.36.79-.86.3-1.71.68-2.38,1.3-.1.1-.21.21-.24.35-.03.14.04.31.18.34-.96.3-1.81.95-2.34,1.81-.11.18-.2.43-.04.57.07.06.18.08.28.07.28,0,.56-.1.79-.26-.15-.11-.19-.34-.12-.52.06-.18.2-.32.34-.45.55-.51,1.2-.92,1.89-1.2-.11.05-.23-.07-.23-.18s.07-.22.14-.31c.07-.08.14-.16.21-.23.32-.32.71-.57,1.11-.78.43-.22.89-.38,1.34-.53.06-.02.13-.04.19-.06.02,0,.18-.04.18-.06-.14.44-.17,1.07.45,1.07.64,0,1.27-.29,1.68-.76-.13.19-.25.46-.11.65.13.18.39.17.6.12.5-.12.96-.36,1.34-.7-.15.2-.3.51-.12.69.02.02.05.04.07.05.1.05.24.04.36.02.17-.03.34-.09.5-.16.21-.1.4-.23.57-.38.02-.01.12-.1.08-.11Z"/>
    <path class="cls-2" d="M169.11,44.58c-.75.38-1.55.65-2.38.8-.25.05-.59.02-.63-.23-.02-.11.04-.21.1-.3.28-.42.66-.77,1.11-1.01-.72.35-1.5.59-2.29.71-.32.05-.77-.02-.78-.34,0-.13.08-.25.16-.35.31-.37.68-.7,1.09-.96-.66.43-1.39.77-2.15,1-.31.09-.68.16-.94-.03-.18-.13-.2-.42-.1-.58-.45.26-.98.39-1.5.37-.1,0-.2-.02-.27-.08-.25-.22.04-.64.25-.87-.3.31-.61.6-.83.98-.12.2-.19.5,0,.62.07.05.17.05.26.05.18,0,.36-.02.55-.05.11-.02.22-.05.33-.07.13-.04.25-.08.38-.13.06-.03.32-.1.34-.16-.17.44.31.9.78.92.47.02.9-.26,1.29-.53-.16.22,0,.55.24.66.24.12.53.08.8.03.47-.1.92-.24,1.36-.42-.17.42-.79.75-.58,1.15.09.17.29.24.48.27.74.14,1.53-.03,2.15-.45.14-.09.28-.2.44-.19.13,0,.24.09.36.14.25.11.55.09.78-.06-.46.03-.88-.42-.8-.87Z"/>
    <path class="cls-2" d="M159.24,47.6c-.03-.11,0-.23.04-.33.02-.03.05-.06.06-.1-.04,0-.09.05-.12.07-.04.03-.09.06-.13.08-.09.05-.18.1-.27.13-.19.08-.39.13-.59.15-.14.02-.27.02-.41,0-.07,0-.14-.01-.21-.03-.06-.01-.12-.01-.16-.06-.05-.06-.07-.13-.08-.2,0-.07,0-.16.01-.22,0-.02.01-.04.02-.06.03-.06.05-.12.09-.17.04-.05.08-.11.14-.15-.44.29-.92.49-1.44.6-.08.02-.17.03-.24-.01-.15-.09-.08-.31.02-.46.42-.66.95-1.24,1.53-1.76-.62.41-1.19.9-1.69,1.44-.21.23-.42.52-.32.81.09.25.39.38.66.36.27-.02.52-.15.75-.28.06-.03.12-.07.19-.1.06-.03.12-.05.17-.08-.06.19-.1.39-.09.59,0,.09.03.18.07.25.04.07.12.14.2.15.1.01.2,0,.29-.03.13-.03.27-.07.4-.12.2-.08.39-.17.57-.28.14-.09.25-.18.37-.29.02-.02.05-.06.08-.06,0,.03-.01.08-.02.11-.01.04-.03.09-.03.13-.01.09,0,.19.02.27.04.11.12.2.22.25.05.03.09.02.14.03.06,0,.11.01.16,0,.2-.02.37-.12.53-.24.48-.34.86-.8,1.11-1.33-.53.38-1.1.69-1.7.94-.07.03-.31.1-.34-.01Z"/>
    <path class="cls-2" d="M211.28,39.32c.18.15.28.25.15.46-.11.19-.26.28-.47.3-.35.04-.67-.15-.97-.33.11.17-.04.41-.24.46-.19.06-.4,0-.6-.07l-.83-.28c.09.09.11.3-.01.4-.16.14-.41.1-.62.05-.59-.14-1.17-.34-1.72-.6.21.31.54.53.73.85.19.32.15.84-.21.96-.36.12-.68-.24-1.05-.32.16.17.33.34.41.56.08.22.05.49-.13.64-.18.15-.45.13-.67.05-.22-.08-.43-.21-.66-.24.28.11.46.46.33.73-.1.22-.41.32-.63.22.01,0,.02.01.03.02.05.05.09.11.12.17.1.21.1.53-.06.71-.25.3-.8.29-1.03-.03.14.33.31.67.62.84.14.08.3.1.45.08.27-.04.51-.28.48-.57-.02-.12-.06-.24-.12-.35-.05-.11-.12-.21-.18-.32.09.07.18.12.3.11.05,0,.09-.01.14-.03.09-.04.16-.1.21-.18.06-.08.1-.19.12-.29.02-.12,0-.24-.04-.34-.02-.05-.04-.1-.07-.15-.03-.05-.05-.1-.09-.14.24.28.62.44.97.34.41-.12.64-.69.35-1.01.34.09.74-.07.91-.38.17-.31.1-.72-.16-.96.37,0,.74.02,1.11.03.19,0,.44-.05.44-.23,0,.04.33.2.38.22.13.06.26.12.4.15.23.05.54,0,.73-.14.04-.03.35-.36.24-.43.24.15.5.3.78.33.29.03.61-.12.68-.39.11-.38-.22-.79-.56-.92Z"/>
    <path class="cls-2" d="M214.45,40.48c-.19.03-.35-.12-.49-.25.14.23.43.33.7.41.21.06.42.13.64.12.22,0,.44-.1.56-.28,0-.05-.01-.1-.02-.16.24.16.51.28.79.26.28-.02.57-.23.59-.5,0-.06,0-.13.06-.16.05-.04.12,0,.18.03.21.12.41.26.64.32.23.06.51.02.66-.16.14-.17.13-.41.04-.6-.09-.19-.25-.34-.42-.47-.04-.03-.09-.06-.13-.09.05.1.07.2.06.3-.04.26-.31.44-.58.46-.27.02-.53-.08-.78-.18-.33-.13-.67-.27-1-.4.14.07.26.16.36.27.07.07.12.16.13.25.02.17-.14.32-.31.37-.17.04-.35,0-.52-.04-.41-.12-.8-.29-1.16-.51.14.16.28.34.31.54.03.21-.09.45-.3.48Z"/>
    <path class="cls-2" d="M201.36,34.52c.17.16.36.29.57.38.16.07.33.13.5.16.12.02.25.03.36-.02.03-.01.05-.03.07-.05.18-.18.03-.48-.12-.69.38.34.85.58,1.34.7.21.05.48.06.6-.12.14-.19.02-.46-.11-.65.42.48,1.05.77,1.68.76.62,0,.59-.63.45-1.07,0,.02.16.05.18.06.06.02.13.04.19.06.46.15.91.31,1.34.53.41.2.79.46,1.11.78.07.07.14.15.21.23.07.09.15.19.14.31,0,.12-.13.23-.23.18.7.28,1.34.69,1.89,1.2.14.13.28.27.34.45.06.18.03.4-.12.52.23.16.51.25.79.26.1,0,.21,0,.28-.07.16-.14.07-.39-.04-.57-.54-.85-1.38-1.5-2.34-1.81.14-.03.21-.2.18-.34-.03-.14-.13-.25-.24-.35-.66-.63-1.52-1.01-2.38-1.3-.86-.3-1.75-.53-2.57-.92.21.14.43.27.59.47.15.18.34.54.17.75-.14.18-.4.13-.58.05-.31-.13-.62-.27-.91-.43-.3-.16-.57-.24-.84-.47.02.05.04.09.05.14.01.07.01.15-.03.21-.24.39-.87-.06-1.17-.12-.13-.03-.29-.02-.37.08-.08.11-.03.26-.06.39-.04.2-.26.32-.46.33-.13,0-.26-.03-.38-.07-.03-.01-.06-.02-.09-.03-.02,0-.07-.04-.09-.04-.04.01.07.1.08.11Z"/>
    <path class="cls-2" d="M214.18,45.51c.12-.05.23-.13.36-.14.16,0,.31.1.44.19.62.42,1.41.59,2.15.45.19-.04.39-.1.48-.27.21-.4-.41-.73-.58-1.15.44.18.89.33,1.36.42.27.05.55.09.8-.03.24-.12.4-.45.24-.66.39.27.82.54,1.29.53.48-.02.95-.48.78-.92.02.06.28.14.34.16.12.05.25.09.38.13.1.03.22.05.33.07.18.03.37.05.55.05.09,0,.18,0,.26-.05.2-.13.12-.42,0-.62-.22-.38-.53-.67-.83-.98.21.23.5.65.25.87-.07.06-.17.08-.27.08-.52.03-1.05-.11-1.5-.37.11.17.08.46-.1.58-.26.19-.63.12-.94.03-.76-.23-1.49-.56-2.15-1,.41.26.79.58,1.09.96.08.1.17.22.16.35-.01.32-.46.39-.78.34-.79-.12-1.57-.36-2.29-.71.44.25.83.6,1.11,1.01.06.09.12.2.1.3-.04.24-.38.27-.63.23-.83-.15-1.63-.42-2.38-.8.08.44-.35.9-.8.87.23.15.53.17.78.06Z"/>
    <path class="cls-2" d="M223.13,48.01c.16.11.34.22.53.24.06,0,.11,0,.16,0,.05,0,.09,0,.14-.03.1-.05.18-.15.22-.25.03-.09.04-.18.02-.27,0-.05-.02-.09-.03-.13-.01-.03-.02-.07-.02-.11.03,0,.06.04.08.06.12.11.23.2.37.29.18.11.37.21.57.28.13.05.26.09.4.12.09.02.19.04.29.03.08-.01.16-.08.2-.15.05-.07.07-.16.07-.25.01-.2-.02-.4-.09-.59.05.03.11.05.17.08.06.03.12.07.19.1.24.13.48.26.75.28.27.02.57-.11.66-.36.1-.29-.11-.58-.32-.81-.5-.54-1.07-1.04-1.69-1.44.58.53,1.11,1.1,1.53,1.76.09.15.16.37.02.46-.07.04-.16.03-.24.01-.51-.1-1-.31-1.44-.6.06.04.09.1.14.15.04.05.06.11.09.17,0,.02.02.04.02.06.02.06.02.15.01.22,0,.07-.03.14-.08.2-.04.05-.1.05-.16.06-.07.01-.14.02-.21.03-.14.01-.27,0-.41,0-.2-.02-.4-.07-.59-.15-.09-.04-.19-.08-.27-.13-.04-.03-.09-.05-.13-.08-.04-.02-.08-.07-.12-.07.01.03.04.06.06.1.05.1.07.22.04.33-.03.11-.27.04-.34.01-.6-.25-1.18-.56-1.7-.94.25.53.63.99,1.11,1.33Z"/>
    <path class="cls-2" d="M190.44,59.75c-1.45-.2-1.9-1.72-1.9-1.72l-.36.57c.97,1.38,2.26,1.15,2.26,1.15Z"/>
    <path class="cls-2" d="M187.5,36.72c-.25,0-.45.2-.45.45s.2.45.45.45.45-.2.45-.45-.2-.45-.45-.45ZM187.5,37.37c-.11,0-.2-.09-.2-.2s.09-.2.2-.2.2.09.2.2-.09.2-.2.2Z"/>
    <path class="cls-2" d="M239.68,64.48c-.15-.23-.4-.34-.66-.33l-6.07,1.32-.66,3.26-1.59,1.04c-.02-2.8-.15-5.74-.38-8.77l3.22.7,3.58-4.96c.18-.24.18-.56.02-.81-.15-.22-.4-.34-.66-.33l-6.07,1.32-.65,3.26-14.53,9.51c-.06-1.25-.15-2.52-.27-3.81,0-.05,0-.08-.01-.11.35.05.69.07,1,.07.8,0,1.5-.16,2.1-.55,2.02-1.3,2.65-5.21,2.75-5.98v-.09s-.19-.12-.19-.12c-.38-.26-1.3-.98-1.56-2.03.32.03.65.11.96.22.27.1.57.24.88.39.83.4,1.81.87,3,.87.39,0,.81-.05,1.24-.17,1.91-.64,2.67-1.59,2.7-1.63l.21-.27-2.37-.21.75-2.21-.47.35s-1.13.82-1.65,1.02l-.1.03c-.45.15-.96.31-2.42-.28-.9-.37-1.66-.51-2.34-.42-.85.1-1.44.62-1.97,1.08-.52.45-1.16,1.01-1.36,1.72l-.02.09c-.03.12-.05.23-.07.35v.05s0,0,0,0c-.02.22-.02.45,0,.67.04.33.14.64.26.95.1.24.22.46.36.68,0,0,0,0,0,0-1.47,0-3.48-.27-6.2-1.13h0s0,0,0,0c-1.97-.61-3.91-.92-5.79-.92h0c-2.67,0-4.92.61-6.75,1.43,0-.06-.01-.12-.03-.17-.05-.15-.14-.28-.22-.41-.22-.35-.43-.72-.49-1.13-.07-.46.02-.93.09-1.39.1-.66.06-1.28-.12-1.87-.11-.37-.27-.66-.51-.93-.1-.11-.19-.22-.28-.34-.04-.05-.08-.1-.12-.15.23-.36.34-.73.35-1.12,0-.04.04-.09.07-.14l.03-.05s.07-.1.1-.15c.06-.08.12-.16.16-.24.13-.22.18-.47.15-.75v-.42c.07-.04.13-.08.18-.13.21.46.59.73,1.06.75.46.01.99-.24,1.36-.61.08.12.2.22.36.29.4.15.78-.1.9-.19.34-.23.68-.48.93-.83.14.05.27.05.37.03.46-.07.73-.54.89-.89l.03-.07c.07-.18.09-.19.14-.22.35-.17.51-.5.6-.79.05,0,.09-.02.14-.04.16-.07.24-.06.37.05.21.18.49.18.72.07.19.19.44.28.7.24.17-.03.33-.11.47-.23.06.05.14.09.22.13.15.06.25.18.4.39l.06.08c.35.46.71.55.95.55.2,0,.47-.07.74-.33.39.26.71.25.92.2.23-.06.54-.23.77-.72.19-.42.3-.8.33-1.18.22-.01.42-.11.58-.28.06.04.11.09.15.12.08.07.15.13.21.16.42.29.87.55,1.32.77.15.07.32.15.53.17.18.02.33-.01.44-.05.05.03.12.08.21.14,1.27.89,2.06,1.32,2.61.99.07-.04.16-.11.23-.22.74.52,1.52,1.04,2.42,1.36.19.07.39.07.57.01.15-.05.26-.12.34-.21.2.14.39.28.6.43.67.49,1.37.99,2.16,1.3.47.22.79.13.97,0,.25-.16.36-.41.42-.68.43.37.87.74,1.56.94h.04c.36.08.6-.02.77-.16.51.41,1.05.82,1.67,1.12.3.14.65.11.9-.09.13-.1.2-.22.25-.33.5.23.98.46,1.4.78.2.15.74.53,1.3.18.12-.08.24-.2.3-.38.27.22.55.44.84.63.25.19,1.04.72,1.6.42.12-.07.29-.21.36-.5.17.11.34.22.54.33.28.15.56.34.85.54.6.41,1.23.84,1.99,1h.05s.08.02.12.02c.18,0,.33-.05.45-.16.18-.15.25-.37.22-.65-.1-1.06-.79-1.82-1.41-2.5-1.6-1.77-3.48-3.34-5.3-4.87-.69-.58-1.4-1.17-2.07-1.76-4.62-4.03-9.4-7.69-14.63-11.19-4.59-3.07-9.23-4.74-13.82-4.97-1.98-.1-3.53.15-4.75.77-2.83,1.48-1.92,4.53-1.25,6.76l.06.19c.39,1.21.44,2.06.14,2.55-.12.19-.31.33-.56.43-.01-.01-.02-.02-.02-.02l-.06-.06c-1.16-1.34-3.01-1.25-3.56-1.19-.21-.14-.42-.28-.53-.38.06-.84-.12-1.62-.54-2.25-.14-.21-.3-.4-.48-.57,0,0-.01-.01-.02-.02,0-.01,0-.03,0-.04-.03-.31-.16-.59-.37-.79-.26-.25-.62-.38-1.03-.37-.36,0-.68.12-.93.22l-.07.03c-.21.09-.42.17-.56.13-.03,0-.07-.03-.11-.05.26-1.44,0-2.77-.74-3.66-1.35-1.59-3.95-1.79-5.88-1.68-4.58.22-9.23,1.9-13.82,4.97-5.23,3.5-10.02,7.16-14.63,11.19-.67.59-1.38,1.18-2.07,1.76-1.82,1.52-3.7,3.1-5.31,4.88-.6.67-1.29,1.43-1.39,2.48-.05.44.2.64.31.71.11.07.24.1.39.1.36,0,.84-.19,1.43-.58.34-.23.68-.43,1-.63.28-.17.56-.34.84-.52.11-.07.27-.05.33.07.09.16.22.25.31.29.49.24,1.16-.09,2.18-.9.1-.08.24-.07.32.03.06.08.13.14.21.19.55.34,1.08-.05,1.29-.2.37-.27.78-.49,1.21-.69.1-.05.21,0,.28.08.04.06.09.11.16.16.25.2.6.24.89.1.57-.26,1.05-.63,1.52-1,.05-.04.11-.08.16-.12.17.14.41.24.76.17h.05c.55-.17.95-.44,1.3-.73.12-.1.29-.06.35.08.07.15.17.28.33.38.18.12.5.21.94,0,.82-.32,1.52-.82,2.19-1.31.2-.15.4-.29.6-.43.08.08.19.16.33.21.18.06.38.05.57-.01.83-.29,1.56-.76,2.25-1.24.09-.06.21-.05.29.02.09.08.2.14.33.17.54.13,1.28-.29,2.37-1.06.09-.07.17-.12.23-.16.1.03.25.07.44.05h.07c.57-.16,1.06-.47,1.53-.77l.26-.16c.05-.04.13-.1.21-.16.04-.03.09-.08.15-.12.12.13.27.22.44.26.09.02.15.1.16.19.09.66.37,1.43.95,1.68.19.08.52.15.92-.06.08-.04.18-.04.25.02.23.18.46.23.62.23.25,0,.6-.09.95-.55l.06-.08c.16-.21.25-.33.4-.39.09-.03.16-.08.22-.13.14.12.3.2.47.23.26.04.51-.05.7-.24.22.11.51.11.72-.07.13-.11.21-.12.37-.05.04.02.09.03.14.04.09.28.25.62.6.79.05.03.07.04.14.22l.04.08c.16.34.42.81.89.88.12.02.27.01.44-.06,0,0,0,.02,0,.03l.06.26.22-.14c.35-.22.68-.62.92-1.11.11.55.33,1.07.63,1.52-1,.83-1.52,2.18-1.29,3.39l.05.26.23-.13c.37-.22.71-.62.97-1.12.11.7.38,1.36.78,1.9-.99,1.04-1.22,2.26-.89,3.41l.07.25.21-.15c.34-.24.63-.65.84-1.15.06.35.16.68.29.98.29.65.23.81.77,1.22-.1.14-.19.3-.27.46-1.76-.75-3.9-1.29-6.4-1.29h0c-1.87,0-3.82.31-5.79.92h0s0,0,0,0c-2.72.85-4.72,1.13-6.2,1.13,0,0,0,0,0,0,.14-.22.26-.44.36-.68.13-.3.22-.62.26-.95.03-.22.03-.45,0-.67h0s0-.05,0-.05c-.01-.12-.04-.24-.07-.35l-.02-.09c-.2-.71-.84-1.27-1.36-1.72-.53-.46-1.12-.98-1.97-1.08-.68-.08-1.44.06-2.34.42-1.46.59-1.97.42-2.42.28l-.1-.03c-.52-.19-1.64-1.01-1.65-1.02l-.47-.35.75,2.21-2.37.21.21.27s.8.99,2.7,1.63c.44.12.85.17,1.24.17,1.19,0,2.17-.47,3-.87.31-.15.61-.29.88-.39.31-.12.64-.19.96-.22-.26,1.04-1.18,1.77-1.56,2.03l-.2.12v.09c.12.77.74,4.68,2.77,5.98.6.39,1.29.55,2.1.55.3,0,.62-.02.96-.07-.12,1.31-.22,2.62-.28,3.91l-14.51-9.5-.66-3.26s-6.07-1.32-6.07-1.31c-.26-.02-.51.1-.66.32-.16.25-.16.57.02.81l3.58,4.96,3.22-.7c-.23,3.03-.36,5.97-.38,8.77l-1.59-1.04-.66-3.26s-6.07-1.32-6.07-1.31c-.26-.02-.51.1-.66.32-.16.25-.16.57.02.81l3.58,4.96,3.12-.68c-2.22,16.74.28,28.12,2.77,34.73,2.57,6.79,5.59,10.02,6.08,10.52.82.95,6.2,6.79,14.52,6.79,3.6,0,7.74-1.1,12.29-4.18-1.42,4.66-5.07,10.15-5.11,10.21l-.2.3h.36c1.65-.06,2.96.07,3.96.27l-.61,2.51c-.08.23-.07.41-.07.42-.01.13.04.41.28.63.38.35,1.08.44,2.07.27.45-.08.8-.08,1.08-.06l.09,2.66s0,.1,0,.16c.01.06.03.13.08.19.33.5,1.52.75,3.54.75s3.21-.25,3.53-.75c.08-.13.1-.26.08-.35l.1-2.65c.28-.03.63-.02,1.08.06.99.17,1.69.08,2.07-.27.24-.22.29-.5.28-.62,0-.06,0-.12,0-.18-.02-.16-.07-.31-.11-.46-.06-.26-.12-.51-.19-.77-.07-.3-.15-.6-.22-.9-.05-.2-.1-.39-.14-.59,0-.02,0-.03-.01-.05,1-.19,2.31-.33,3.96-.28h.36s-.2-.29-.2-.29c-.04-.06-3.7-5.57-5.12-10.23,4.56,3.09,8.71,4.2,12.32,4.2,8.32,0,13.74-5.88,14.57-6.84.14-.13,3.27-3.22,6.01-10.47,2.5-6.61,5-17.99,2.77-34.73l3.12.68,3.58-4.96c.18-.24.18-.56.02-.81ZM231.24,57.74l4.68-1.02-2.8,3.88-2.35-.51.47-2.36ZM150.55,60.61l-2.8-3.88,4.68,1.02.47,2.36-2.35.51ZM148.01,69.16l-2.8-3.88,4.68,1.02.47,2.36-2.35.51ZM222.7,65.96l6.67-4.37c.22,3.05.34,6.01.35,8.82l-7.6,4.97c.32-2.85.51-5.94.57-9.42ZM215.27,70.82l3.17-2.07c-.14,3.5-.43,6.66-.89,9.63l-2.46,1.61c.23-2.89.3-5.94.18-9.17ZM214.97,81.24l3.94-2.58c-.23,5.42-.96,10.84-2.64,16-.85,2.64-1.96,5.2-3.31,7.66-1.33,2.42-2.93,4.73-4.7,6.86-.92,1.12-1.9,2.18-2.92,3.21-.73-.7-1.28-1.33-1.62-1.75,5.24-6.54,9.95-16.21,11.25-29.4ZM197.71,110.41c-.1-.17-.28-.23-.42-.27l-.07-.02c-.09-.03-.14-.09-.14-.11,0-.02.06-.05.09-.08.05-.03.09-.06.15-.13.2-.27.2-.58,0-.86-.28-.39-.87-.6-1.27-.47-.18.04-.34.13-.5.21-.08.04-.16.08-.24.12-.11.05-.39.14-.57.02-.06-.04-.11-.11-.17-.18-.07-.09-.15-.19-.27-.27-.17-.11-.37-.12-.54-.13l-2.14-.13c-.28-.03-.46.06-.58.31-.04.04-.14.04-.29.04-.12,0-.26,0-.39.03-.23.07-.36.25-.48.41-.07.1-.14.19-.22.25-.2.15-.49.11-.79.06-.14-.02-.29-.04-.43-.04-.39-.01-.96.17-1.26.55-.17.22-.22.46-.14.74.02.05.06.1.09.15.02.03.04.06.05.09.04.1,0,.25-.1.35-.13.13-.33.15-.56.18-.25.03-.53.06-.75.27-.07.07-.11.16-.15.23-.04.07-.07.13-.11.16-.04.03-.1.06-.16.09-.06.03-.13.06-.18.09-.4.27-.4.75-.41,1.18,0,.19,0,.33-.02.45-3.39-3.24-6.86-7.78-9.6-13.72h2.79c.06.12.12.25.18.37.4.86.8,1.75,1.57,2.35.2.22.35.49.5.76.15.26.3.53.5.77.29.35.66.6,1.02.84,1.01.68,2.14,1.46,3.44,1.73.32.07.64.1.95.13.38.04.75.08,1.1.17.26.07.5.16.76.25.21.08.43.16.64.22.81.24,1.65.27,2.47.3,1.37.05,2.79.11,4.16-.25l.2-.05c.67-.18,1.37-.37,1.85,0,.18.14.33.38.47.6.25.39.5.8,1.02.84.13,0,.16.02.16.02.03.03.03.16.03.26,0,.07,0,.14,0,.23.04.25.22.44.5.51.07.02.15.03.22.03.24,0,.46-.1.6-.27.34-.43.16-1.06-.21-1.39l-.03-.03s-.08-.07-.09-.09c0-.02-.01-.07.08-.21.53-.74,1.38-1.23,2.29-1.32.07,0,.14-.01.21-.02.32-.02.64-.04.93-.23l.27-.17-.28-.15c-.19-.1-.37-.22-.54-.36.67-.37,1.4-.5,2.2.39-2.06,3.15-4.3,5.73-6.5,7.77-.04-.08-.08-.17-.09-.29v-.05c-.05-.08-.09-.14-.13-.2-.03-.04-.06-.08-.08-.12-.02-.06-.03-.13-.03-.21,0-.07,0-.14-.02-.21-.07-.36-.38-.65-.88-.82-.14-.05-.18-.08-.2-.1.03-.15.14-.32.25-.49.21-.32.44-.68.26-1.13ZM186.76,65.42c-5.84,2.05-10.47.62-13.19-.83.57-.16,1.16-.32,1.77-.48,5.33-1.02,9.32-.16,11.43.56-.03.25-.04.5-.01.75ZM188.8,65.64c.33.44.73.82,1.19,1.07l.23.13.04-.26c.08-.47.02-1.01-.15-1.56.39-.2.78-.42,1.17-.65.08.2.17.4.28.58l.14.23.16-.21c.15-.19.27-.42.38-.68,3.83,2.29,7.32,3.09,10.31,3.09,3.67,0,6.58-1.19,8.47-2.26.02-.01.19-.11.31-.18.75.21,1.45.4,2.11.55,0,.12.02.25.02.31.6,6.23.5,11.88-.12,16.96h-43c-.65-5.16-.77-10.9-.16-17.24.67-.15,1.38-.34,2.15-.56,3.06,1.81,9.1,3.94,16.48.7ZM185.2,52.56h0c-.01-.06-.04-.12-.05-.18.36.33.79.57,1.25.69l.25.07-.02-.26c-.04-.55-.33-1.17-.78-1.7h0c-.3-.34-.77-.72-1.26-.92.06-.29.09-.61.08-.95l1.27.98.35.5.03,1.03c.05.09.11.17.16.24.04.05.07.1.1.15l.03.05c.03.05.07.11.07.14,0,.39.12.75.35,1.12-.04.05-.08.1-.12.15-.09.12-.18.23-.28.34-.22.24-.37.51-.47.82-.35-.26-.75-.55-.91-.63.08-.5.07-1.07-.05-1.65ZM185.68,38.54c-.01.24-.04.49-.09.74-.08.39-.21.8-.4,1.16-.31.58-.73,1.05-1.16,1.32,0-.92.35-1.86.95-2.56.22-.26.45-.48.7-.66ZM185.4,37.88c-.73-.1-1.35.11-1.84.6,0,0-.01,0-.02.01-.01-.19.05-.35.11-.49.06-.13.13-.24.21-.34.16-.22.38-.4.65-.56.15-.08.32-.11.47-.11.14,0,.29.02.42.05.15.04.24.14.27.33.03.14.02.24-.09.5,0,0-.02,0-.03,0-.05,0-.1.01-.15,0ZM184.3,44.55h0c0-.16,0-.31,0-.46.33.44.76.8,1.24,1l.24.1.02-.26c.03-.55-.16-1.2-.53-1.79h0c-.24-.36-.62-.78-1.06-1.05.49-.3.95-.82,1.3-1.47h0c.19-.37.33-.78.41-1.17.13.44.32.86.51,1.17.35.57.84,1.05,1.41,1.36-.62,1.1-.68,2.43-.13,3.47l.13.24.18-.2c.32-.36.54-.92.62-1.55.34.7.83,1.29,1.44,1.67-.21.17-.4.41-.58.64-.53.72-.78,1.67-.65,2.55l.04.26.23-.12c.45-.23.86-.72,1.15-1.34.13.77.45,1.48.93,2.04-.46.3-.87.7-1.16,1.17-.32.52-.5,1.16-.5,1.79v.26s.25-.09.25-.09c.42-.15.84-.49,1.18-.96-.04.8.12,1.59.48,2.26-.23.1-.46.23-.7.39-.73.51-1.25,1.33-1.39,2.21l-.04.25.25-.04c.44-.07.93-.33,1.36-.74-.19.93-.09,1.92.29,2.74-.28.32-.52.68-.72,1.11-.39.79-.53,1.72-.41,2.58-.54-.48-1.23-1.02-2.05-1.56-.06-.22-.13-.43-.2-.58h0c-.05-.09-.09-.18-.15-.26.32.12.66.19,1,.19.09,0,.18,0,.27-.01l.24-.02-.09-.23c-.2-.5-.66-1.01-1.24-1.36h0s-.08-.04-.13-.06c-.03-.39-.14-.78-.59-.84-.16-.02-.33,0-.49.04-.03,0-.07.01-.1,0-.02-.02-.03-.04-.04-.07-.1-.32-.17-.64-.2-.97.25.19.53.34.82.43l.24.08v-.25c0-.55-.25-1.18-.66-1.74h0s-.12-.13-.23-.22c.04-.1.08-.2.13-.29.23-.38.48-.76.77-1.1.04-.05.1-.11.17-.1-.29-.18-.48-.39-.55-.73-.05-.26-.06-.55,0-.81,0-.04.03-.1.07-.11-.19-.05-.33-.24-.38-.43-.05-.18-.07-.43-.04-.62v-.1s-.76-1.15-.76-1.15c0,0-.78-.02-1.22-.69-.01-.02-.02-.03-.03-.04-.01-.13-.03-.25-.05-.38.31.26.66.46,1.02.57l.25.07v-.26c-.03-.55-.28-1.18-.71-1.73h0c-.34-.43-.81-.78-1.3-1.01.24-.46.39-1.03.44-1.66ZM183.97,42.37c.4.24.76.64.98.97.26.42.43.88.47,1.28-.37-.21-.7-.52-.93-.89-.15-.23-.26-.48-.35-.74-.03-.13-.07-.26-.11-.38-.02-.08-.04-.16-.05-.24ZM186.12,38.57c.52.33.99.79,1.31,1.32.34.57.54,1.21.56,1.75-.5-.28-.94-.7-1.24-1.21-.35-.6-.58-1.28-.63-1.86ZM188.1,42.27c.15.4.22.93.19,1.44-.04.5-.18.95-.38,1.29-.33-.84-.25-1.87.19-2.73ZM188.54,42.16c.51.35.96.84,1.26,1.38.27.49.43,1.02.47,1.49v.21c-1-.52-1.63-1.77-1.74-3.08ZM190.24,45.95c0,.06,0,.12,0,.17,0,.09-.02.18-.02.27-.04.35-.12.69-.25,1-.2.44-.47.82-.77,1.06-.03-.7.19-1.42.62-1.99.13-.16.28-.36.44-.5ZM192.16,52.15c0,.65-.12,1.27-.34,1.74l-.06-.02c-.4-.77-.53-1.73-.35-2.63.07-.31.15-.68.28-.97.29.58.45,1.24.48,1.89ZM191.96,49.4c.37.27.7.63.93,1.03.24.43.37.91.39,1.31-.54-.36-.97-.95-1.17-1.64-.06-.22-.12-.48-.15-.71ZM191,62.14c-.14.28-.3.53-.48.73-.21-.89-.11-1.89.31-2.73.15-.31.32-.59.51-.84.05.23.07.47.08.72.01.22,0,.46-.02.69-.13.3-.24.61-.32.96-.04.15-.06.31-.08.46ZM191.02,63.39s-.03.02-.04.03c-.07-.08-.15-.16-.24-.24.08-.08.16-.17.23-.27,0,.16.02.32.05.49ZM188.28,63.01c.49.37.93.88,1.22,1.44.3.6.45,1.25.43,1.79-.71-.48-1.25-1.29-1.48-2.2-.07-.32-.16-.7-.16-1.03ZM188.32,64.8s-.06.03-.1.04c-.06-.03-.13-.06-.2-.09.03-.08.06-.17.09-.26h0c.01-.05.02-.11.03-.16.05.16.11.31.17.46ZM189.71,64.1c-.35-.61-.86-1.15-1.43-1.53,0-.24-.04-.64-.12-1.05.87.59,1.56,1.18,2.07,1.67,0,.03.01.06.02.09l.08.25.13-.1c.06.06.11.11.16.16-.01,0-.03.02-.04.02-.2.11-.39.22-.59.32-.1.05-.19.11-.28.16ZM191.36,62.25c.13-.27.24-.57.31-.89h0c.04-.17.06-.35.08-.52.09.21.17.44.23.67.11.39.17.81.17,1.23-.02.67-.17,1.3-.43,1.76-.33-.67-.46-1.47-.37-2.25ZM191.76,59.13c.33.32.59.72.77,1.14.18.45.26.9.23,1.28-.63-.58-1.01-1.48-1-2.42ZM191.45,58.48c-.32-.85-.34-1.85-.03-2.75.11-.33.25-.63.4-.91.07.22.13.45.17.7.07.4.09.83.05,1.24-.08.67-.29,1.28-.59,1.71ZM190.84,55.7c-.32.35-.7.62-1.05.75.18-.67.61-1.29,1.18-1.69.2-.14.39-.25.58-.33-.04.12-.09.24-.14.36l-.05.11c-.13.28-.31.56-.52.8ZM190.81,46.31c.09.11.18.22.28.31.18.32.32.66.41,1.01.1.43.14.87.12,1.26l-.02.15s0,.08,0,.13c-.01.09-.03.17-.04.25l-.04.02c-.57-.65-.92-1.55-.95-2.48,0-.19,0-.39.01-.59,0-.1.02-.19.03-.29,0-.02,0-.03,0-.05.07.1.13.19.2.28ZM190.72,45.47c.43.1.86.31,1.21.59.38.31.68.7.84,1.07-.49-.09-.97-.35-1.37-.72-.19-.34-.42-.66-.69-.94ZM191.31,49.99c-.05.43-.22.93-.48,1.38-.26.41-.58.74-.91.93.04-.46.19-.92.43-1.3.24-.4.58-.75.96-1.01ZM187.69,59.04c.41.25.76.59.96.94-.42,0-.84-.13-1.21-.34-.1-.06-.19-.13-.29-.2-.23-.13-.59-.55-.56-.52-.07-.09-.14-.18-.2-.26.45.03.9.17,1.29.39ZM186.7,58.38s.02-.04.03-.05c.07-.1.15-.17.24-.21.05-.02.11-.03.16-.03s.09.01.14.03c.03.02.06.05.08.08.02.03.03.07.04.12,0,.05.01.1.02.15,0,.03,0,.06,0,.09-.22-.06-.48-.13-.71-.17ZM184.87,47.44c.3.39.51.83.59,1.23-.41-.18-.79-.49-1.08-.88-.13-.35-.3-.68-.51-.99-.03-.08-.06-.15-.08-.23.41.2.79.51,1.08.86ZM184.48,50.62c.42.18.84.53,1.09.81.32.38.55.81.64,1.21-.4-.15-.76-.41-1.05-.74-.3-.35-.54-.79-.69-1.25,0,0,0-.01,0-.02ZM186.43,55.54c.29.39.49.84.56,1.24-.58-.27-1.08-.78-1.37-1.42-.09-.21-.19-.46-.25-.69.4.21.78.51,1.06.87ZM186.36,59.19c.15.17.33.34.52.49.25.27.46.57.63.89.3.6.45,1.25.43,1.79-.71-.48-1.25-1.29-1.48-2.2-.02-.09-.04-.18-.06-.27-.01-.2-.05-.4-.09-.6,0-.05-.01-.11-.01-.16.02.02.04.04.06.05ZM187.76,64.39c-.15.46-.37.85-.63,1.13-.06-.42-.03-.87.1-1.28.15-.47.39-.91.66-1.22.05.46,0,.93-.13,1.37ZM195.92,65.05c1.65-.7,6.1-2.16,12.44-.94.56.15,1.1.3,1.63.44-3.34,1.75-8.17,2.91-14.07.49ZM213.21,83.73c-.8,5.84-2.3,10.92-4.2,15.28h-16.7v-.45l1.13-2.39-1.07-3.24c.57.08,1.15.26,1.72.58.12.47.65,2.45,1.56,2.75.33.11.72.15,1.12.15.78,0,1.57-.17,1.91-.39l.22-.14-.2-.16s-.68-.48-1.32-1.15c-.87-.9-.84-2.58-.8-3.45,0-.07.01-.18.03-.3.12-1.26.49-5.1-2.74-5.71-.69-.13-1.4-.13-2.1,0-.61.11-1.2.31-1.76.58-.46.22-.9.5-1.32.8-.24.18-.51.35-.72.57-.26.27-.31.54-.36.9-.04.32-.08.64-.07.96,0,.17,0,.4.11.55.23.32.46.24.63.18.04-.01.07-.03.11-.04.06.47-.16,2.31-.43,3.96l-.06.39.34-.2s1.11-.65,2.57-.84l-1.08,3.25,1.17,2.39v.45h-16.17c-1.91-4.36-3.42-9.44-4.24-15.28h42.74ZM202.47,105.98c.15.14.31.27.48.38-.14.03-.28.04-.43.05-.07,0-.15,0-.22.02-1.01.1-1.97.65-2.56,1.47-.06.08-.22.31-.13.56.04.11.13.18.19.24l.03.02c.24.21.37.63.16.88-.1.13-.3.15-.43.11-.06-.02-.2-.07-.22-.2,0-.07,0-.13,0-.19,0-.19,0-.39-.14-.53-.1-.09-.24-.13-.41-.12-.32-.03-.5-.33-.72-.67-.16-.25-.32-.51-.55-.69-.62-.49-1.45-.27-2.17-.07l-.19.05c-1.32.35-2.71.29-4.05.24-.79-.03-1.61-.06-2.38-.29-.21-.06-.41-.14-.62-.21-.26-.1-.52-.2-.8-.27-.38-.1-.78-.14-1.16-.18-.3-.03-.62-.07-.91-.13-1.22-.25-2.33-1.01-3.31-1.67-.34-.23-.69-.47-.95-.78-.18-.21-.32-.46-.46-.72-.16-.28-.32-.58-.57-.85-.72-.57-1.09-1.38-1.48-2.23-.03-.07-.07-.15-.1-.22h30.22c-1,2.17-2.1,4.16-3.26,5.96-1.07-1.12-2.1-.71-2.81-.26l-.2.13.17.16ZM190.11,96.13l1.08-3.26c.25-.02.51-.02.77,0l1.08,3.27-1.08,2.3v.57h-.71v-.54l-1.14-2.33ZM194.99,88.66c-.38-.86-1.12-1.63-2.05-1.78-.77-.13-1.55.18-2.22.56-.57.32-1.1.7-1.59,1.12-.22.2-.44.4-.68.57-.09.06-.26.19-.37.19-.13,0-.18-.16-.18-.27,0-.39.02-.79.08-1.18.02-.12.04-.23.09-.34.07-.14.19-.25.31-.35,1.26-1.09,2.88-1.83,4.55-1.83.67,0,1.36.12,1.92.49.79.52,1.23,1.46,1.38,2.4.15.94.06,1.89.02,2.84-.04.95-.02,1.93.34,2.8.32.79.92,1.47,1.66,1.89-.64.23-1.33.3-2.01.22-.22-.03-.45-.08-.64-.2-.21-.14-.35-.36-.47-.58-.28-.51-.49-1.07-.63-1.64-.03-.11-.05-.23-.13-.32-.05-.06-.12-.1-.2-.14-.88-.48-1.91-.68-2.91-.63-1,.05-1.99.34-2.9.76.22-1.19.34-2.4.38-3.62,0-.06,0-.13.02-.19,0-.02.01-.03.02-.05.03-.07.09-.12.14-.17.7-.64,1.47-1.22,2.32-1.64.63-.3,1.36-.51,2.02-.27.37.14.68.42.93.73.73.95.88,2.2,1,3.39.12,0,.24,0,.35-.01-.08-.94-.16-1.9-.55-2.77ZM217.71,56.1c.51-.45,1.04-.91,1.77-.99.61-.07,1.32.06,2.16.4,1.58.64,2.16.45,2.67.29l.11-.03c.35-.13.89-.48,1.28-.74l-.53,1.57,2.11.19c-.35.31-1.07.85-2.26,1.25-1.62.45-2.87-.15-3.98-.68-.32-.15-.62-.3-.91-.41-1.14-.42-2.39-.35-3.4.17.26-.37.64-.7.98-1ZM216.45,57.7c.63-.45,1.41-.68,2.21-.67.23,1.13,1.12,1.91,1.6,2.27-.36.34-1.26.94-3.17,1.03-.22-.3-.97-1.44-.65-2.62ZM204.67,58.66h0c1.84,0,3.75.3,5.68.91h0c6.28,1.92,9.08.9,10.01.15-.22,1.27-.89,4.22-2.52,5.26-1.5.98-3.84.33-7.07-.58-.73-.2-1.5-.42-2.32-.64-6.88-1.32-11.6.46-12.99,1.1-.29-.12-.57-.26-.86-.4-.06-.04-.11-.07-.17-.11-.24-.14-.48-.28-.72-.41-.2-.11-.39-.22-.59-.32-.01,0-.03-.02-.04-.02,1.45-1.54,5.37-4.93,11.59-4.93ZM197.43,59.3c.03.06.07.12.1.18.05.08.1.17.1.27,0,.21-.25.29-.42.22-.28-.11-.57-.36-.79-.56-.28-.26-.97-1.21-.38-1.49.32-.15.64.2.81.43.22.3.4.63.58.96ZM197.48,40.2c.62-1,.27-2.4-.04-3.36l-.05-.18c-.76-2.55-1.19-4.59.76-5.6,1.06-.53,2.45-.75,4.26-.66,4.4.22,8.88,1.83,13.32,4.8,5.19,3.48,9.95,7.11,14.53,11.12.68.6,1.4,1.19,2.09,1.77,1.79,1.5,3.65,3.06,5.21,4.79.44.49.87.96,1.05,1.52-.41-.17-.8-.44-1.2-.71-.3-.2-.61-.41-.91-.58-.59-.35-.9-.56-1.42-1.06-.22-.19-.54-.18-.75.01-.22.19-.25.51-.09.76.11.16.17.25.21.32-.11-.06-.24-.14-.35-.22l-.03-.02c-.34-.22-.7-.52-1.04-.8-.28-.23-.56-.47-.84-.67l-1.76-1.24,1.04,1.88c.08.14.14.28.19.42,0,0,0,0-.01,0-.57-.42-1.21-.71-1.82-.99l-.24-.11c-.21-.1-.46-.08-.65.05-.15.11-.24.28-.25.47-.45-.25-.86-.58-1.3-.92-.12-.09-.23-.19-.35-.28l-.43-.34-.29.47s-.05.09-.08.14c0,0,0,0,0,.01-.46-.15-.77-.42-1.14-.73-.18-.15-.36-.31-.57-.46-.19-.14-.43-.16-.64-.06-.21.1-.34.31-.35.55v.04c0,.12,0,.34-.03.48-.01,0-.03-.01-.05-.02-.71-.27-1.32-.72-1.98-1.19-.35-.26-.72-.52-1.1-.75l-.42-.26-.26.42c-.04.07-.07.13-.09.19-.82-.31-1.58-.85-2.31-1.37l-.17-.12c-.11-.08-.43-.33-.77-.11-.1.07-.25.21-.25.5-.24-.1-.66-.33-1.41-.86-.12-.09-.22-.16-.26-.18-.33-.24-.59-.18-.8-.1-.01,0-.03.01-.04.01-.05,0-.15-.05-.21-.08-.41-.2-.82-.43-1.2-.69-.03-.02-.07-.06-.12-.1-.25-.22-.6-.52-1.01-.44-.19.04-.35.15-.46.33-.23-.09-.43-.08-.6.04-.29.19-.27.53-.27.65.02.34-.07.69-.25,1.1-.06.13-.11.17-.11.17-.01,0-.08-.01-.21-.11-.01,0-.02-.02-.04-.03-.1-.09-.3-.27-.59-.22-.13.02-.3.09-.44.3-.1.13-.16.16-.16.17-.01,0-.07-.04-.17-.16l-.06-.07c-.18-.24-.4-.54-.81-.7-.02-.03-.05-.07-.07-.11l-.06-.09c-.12-.18-.33-.29-.54-.27-.22.02-.41.15-.5.35l-.02.05c-.1-.11-.25-.23-.47-.25-.18-.02-.32.04-.42.1-.31-.18-.65-.22-1.01-.1-.18-.04-.32,0-.42.04-.27.13-.35.4-.38.5-.03.11-.09.33-.14.37-.4.19-.53.51-.62.72l-.02.05c-.06.12-.1.2-.13.25-.14-.11-.32-.15-.49-.11-.19.04-.35.18-.43.36-.13.32-.42.54-.76.77h0c-.02-.06-.03-.14-.05-.23-.02-.14-.05-.29-.11-.46l-.46-1.25-.51,1.38c-.03.08-.05.15-.09.24-.12.37-.57.7-.85.68-.05,0-.17,0-.25-.32,0-.02,0-.05-.01-.08-.02-.14-.05-.37-.22-.58l-.4.32c-.12-.59-.53-1.2-.6-1.35-.12-.26-.04-.73.26-1.3.3-.57-.47-1.93-.47-1.93,1.07-1.29.49-2.92-.05-3.91.36-.17.65-.42.85-.75ZM195.45,40.62c.08.1.2.19.48.23.01.02.03.03.05.05.43.51.64,1.05.82,1.68.1.35.13.72.04,1.07-.07.27-.21.53-.41.72-.13.13-.24.27-.38.39-.02.02-.06.04-.1.07-.31.16-.85.36-1.73.48,0,0-.63.44,1.89-.08.14.16.27.33.38.51.14.23.23.37.16.64,0,.21-.16.48-.23.68-.08.22-.14.46-.13.7.04.59.6.93.74,1.48.08.29,0,.62-.18.85-.07.09-.28.19-.32.29-.03.09.07.25.08.34.02.19,0,.44-.04.62-.05.19-.19.38-.38.43.04.01.06.06.07.11.06.26.04.55,0,.81-.07.34-.26.55-.55.73.07-.01.13.04.17.1.29.34.54.72.77,1.1.25.41.31.99.32,1.47.01.51-.06,1.01-.22,1.49,0,.03-.02.05-.04.07-.03.02-.06.01-.1,0-.16-.03-.33-.06-.49-.04-.54.07-.6.61-.6,1.06l-.78-.86h0s-.45,1.52-1.9,1.72c0,0,1.26.22,2.22-1.1.06.11.12.21.19.32.18.29.41.55.66.79.24.23.52.51.82.67.03.01.06.02.09.04-2.02,1.1-3.4,2.4-4.11,3.16-.07-.04-.15-.09-.22-.14.02-.18.04-.36.04-.54h0c0-.34-.04-.68-.1-1,.11.11.22.21.35.3l.22.16.07-.26c.13-.5.06-1.16-.2-1.8h0c-.24-.57-.63-1.09-1.09-1.48.32-.48.55-1.12.64-1.84h0c.03-.28.03-.55,0-.83.37.49.87.87,1.41,1.06l.24.09v-.26c0-.55-.23-1.19-.64-1.76h0c-.33-.45-.79-.82-1.28-1.07.25-.52.39-1.19.38-1.9h0c0-.21-.03-.42-.06-.62.26.3.56.54.9.71l.23.11.03-.26c.07-.54-.09-1.21-.42-1.82h0c-.29-.51-.73-.97-1.22-1.27.03-.45,0-.94-.13-1.44h0c-.04-.15-.09-.29-.14-.43.41.25.86.4,1.31.43h.25s-.06-.23-.06-.23c-.14-.53-.52-1.09-1.06-1.53h0c-.43-.34-.97-.58-1.5-.68-.04-.55-.22-1.16-.53-1.73h0c-.39-.69-1-1.31-1.67-1.69l-.09-.05c-.02-.61-.24-1.29-.61-1.92h0c-.19-.32-.44-.61-.71-.87.09.03.17.06.21.07.21.05.72.59.9.76.07.07.21.12.34.15l.04.75s.44-.72.9-.77c0,0,1.09.45,1.22,1.57.07.55.08,1.27.2,1.81.02.1.05.21.12.29.08.08.19.11.3.12.67.12,1.41.04,2-.31.28-.17.61-.42.63-.77.02-.46-.1-.89-.26-1.31-.1-.26-.22-.52-.36-.77-.07-.12-.16-.25-.25-.36-.1-.13-.23-.23-.34-.34-.03-.03-.05-.06-.06-.08.53-.04,1.97-.05,2.81.97ZM192.09,54.41c.4.22.77.54,1.05.91.29.4.48.85.55,1.26-.58-.29-1.07-.82-1.36-1.48-.08-.21-.18-.46-.24-.69ZM190.96,37.79v.12c-.01.13-.02.26-.05.38-.08.36.1.6.32.8.05.05.11.08.17.12.03.02.05.03.07.05.58.4,1.05.91,1.4,1.52.24.42.53.93.63,1.41.08.41-.27.77-.6.94-.46.25-1.02.31-1.53.18-.05-.01-.11-.03-.15-.07-.07-.07-.07-.18-.06-.27,0-.22.01-.43,0-.66,0,0-.03-.29-.03-.29,0-.05-.01-.09-.01-.14v-.04c-.04-.99-.5-1.79-1.41-2.45-.17-.12-.39-.25-.69-.15-.07.02-.14.03-.21.04-.03,0-.06,0-.1.01-.15.01-.25-.02-.35-.11-.62-.57-1.33-.95-2.08-1.11,0,0-.01-.01-.03-.02.07-.38.07-.71-.05-1.07.1-.07.22-.1.32-.17.12-.08.22-.17.32-.26.18-.16.37-.32.61-.33.11,0,.21.02.31.05.08.02.17.03.25.04.21.03.42.04.62-.04.13-.05.25-.13.39-.11.11.02.19.11.28.17.09.05.2.08.3.11.17.05.32,0,.44-.06.04-.02.08-.03.11-.04.58.32.85.81.82,1.47ZM188.19,35.26c.41.18.84.02.84.02l.07-.03c.28-.12.49-.18.68-.19.2,0,.38.05.5.15.09.08.15.19.18.26.02.05.06.18,0,.3-.03.05-.07.09-.11.13-.18.16-.45.2-.67.08-.17-.09-.3-.26-.48-.3-.2-.04-.31.1-.47.18-.27.12-.58-.02-.87-.06-.57-.07-.95.28-1.32.68-.13.15-.33.31-.55.27-.09-.02-.15-.09-.23-.15-.1-.08-.21-.12-.33-.14-.23-.02-.46.02-.68-.07-.35-.14-.3-.52-.1-.78.26-.33.9-.1,1.19.09.06.04.12.08.19.09.08,0,.15-.03.21-.08l.13-.12c.86-1.28,1.4-.49,1.81-.32ZM181.84,48.36c-.12.05-.24.15-.34.31-.03-.05-.06-.11-.1-.19l-.03-.06c-.09-.21-.22-.53-.62-.72-.05-.04-.12-.26-.15-.37-.03-.09-.1-.37-.38-.5-.09-.05-.24-.08-.42-.04-.35-.11-.7-.08-1.01.1-.11-.06-.25-.12-.42-.1-.22.02-.37.14-.47.25l-.02-.05c-.09-.2-.28-.33-.5-.35-.22-.02-.42.09-.54.27l-.06.09s-.05.08-.07.11c-.4.16-.63.46-.81.7l-.06.07c-.09.12-.15.15-.15.16-.01,0-.08-.04-.18-.18-.05-.07-.2-.28-.48-.3-.12,0-.31.02-.49.2-.15.15-.24.18-.26.18-.16-.06-.4-.7-.39-1.28,0-.13.02-.46-.27-.65-.17-.11-.37-.12-.6-.03-.11-.18-.27-.29-.46-.33-.41-.08-.75.22-1.01.44-.05.04-.09.08-.1.09l-.25.16c-.4.26-.78.5-1.19.62-.01,0-.02,0-.03-.01-.21-.08-.47-.13-.78.09-.07.04-.17.12-.3.21-.46.32-.83.56-1.1.71-.12.07-.28.01-.33-.12-.04-.1-.11-.2-.23-.27-.33-.19-.64.05-.75.14l-.16.11c-.73.52-1.49,1.06-2.31,1.37-.02-.06-.05-.12-.09-.19l-.26-.42-.42.26c-.38.23-.75.5-1.1.75-.65.47-1.27.92-2.01,1.2,0,0-.01,0-.01,0-.02-.14-.03-.36-.03-.48v-.04c0-.23-.14-.44-.35-.54-.21-.1-.45-.08-.64.06-.21.15-.39.31-.57.46-.37.32-.69.59-1.14.73-.01-.03-.02-.05-.03-.08-.04-.1-.08-.21-.12-.32-.06-.14-.23-.19-.36-.1-.09.07-.18.14-.26.2-.2.14-.4.3-.6.45-.36.28-.7.55-1.08.75,0-.18-.1-.36-.25-.47-.19-.14-.44-.16-.65-.05l-.24.11c-.61.28-1.24.57-1.81.99,0,0-.01,0-.02.01.05-.14.11-.28.18-.41,0-.01.01-.03.02-.04.06-.23.17-.46.2-.7.06-.35-.3-.33-.53-.19l-.42.26s0,0-.01,0c-.09.06-.21.17-.42.35-.84.72-1.45,1.18-1.81,1.37.04-.08.1-.17.22-.34.16-.24.12-.55-.09-.75-.21-.19-.53-.2-.77,0-.62.59-1.27.98-1.96,1.4-.34.2-.69.42-1.04.65-.17.11-.36.22-.52.29.18-.56.61-1.04,1.07-1.54,1.55-1.72,3.4-3.27,5.2-4.77.69-.58,1.4-1.18,2.09-1.77,4.59-4,9.34-7.64,14.53-11.12,4.44-2.97,8.92-4.59,13.32-4.8,1.4-.08,3.93-.01,5.08,1.34.55.65.74,1.77.53,2.92-.53-.07-1,.69-1,.69-.28-.14-.59-.25-.9-.2-.53.08-.78.59-.65,1.09v.05c.03.07.05.14.07.21-.01.03-.04.05-.07.08-.02.02-.05.04-.08.05-.04.03-.08.05-.11.08-.07.06-.14.11-.21.17-.13.1-.26.2-.38.33-.55.58-.71,1.27-.48,2.06,0,.04.02.08.03.13.26.7.17-.45.82-.77.55-.26,1.04-.31,1.41-.27-.22.18-.43.38-.64.62-.66.76-1.03,1.79-1.03,2.8-.04,0-.08.02-.12.03h0s0,0,0,0c-.85.2-1.61.96-1.8,1.85l-.05.23h.24c.38-.03.73-.22.97-.4-.27.95-.22,1.95.12,2.82-.61.54-1.03,1.29-1.18,2.07ZM182.94,47.91c-.03.11-.06.22-.09.32-.15.41-.37.76-.61,1.02-.03.02-.06.03-.1.04-.08-.88.25-1.81.88-2.49-.06.32-.08.67-.09.99,0,.04,0,.08,0,.11ZM182.9,43c-.23.21-.48.37-.72.45.22-.56.71-1.05,1.25-1.24,0,0,0,.01,0,.02-.09.12-.16.26-.23.42-.09.13-.19.25-.3.36ZM183.26,43.52c.08-.23.16-.5.27-.73.04-.06.07-.11.11-.17.01.03.02.07.03.1.04.15.08.29.13.43.11.45.16.92.13,1.37-.05.58-.2,1.11-.42,1.54l-.12.16-.03-.05c-.32-.81-.36-1.77-.1-2.65ZM183.31,47.93c.09-.38.12-.75.1-1.09l.02-.02c.04.05.07.11.11.16.06.15.12.3.18.44.09.2.2.38.33.55.07.18.12.36.17.54.12.58.12,1.16.02,1.64l-.23-.05c-.42-.61-.67-1.39-.69-2.18ZM183.68,50.77c-.07.3-.09.63-.11.95-.04.17-.08.32-.13.46-.19.46-.45.85-.74,1.1-.07-.9.3-1.87.98-2.54,0,.01,0,.02,0,.03ZM184.43,56.4c-.14.48-.37.89-.63,1.16-.15-.89.13-1.89.74-2.62.07.49,0,1.05-.1,1.46ZM184.81,54.48s-.01-.02-.02-.03l-.1-.12-.03-.05c-.47-.65-.74-1.5-.74-2.36,0-.05,0-.09,0-.14.06-.27.1-.56.11-.85.37.5.66,1.1.8,1.71.14.66.12,1.32-.03,1.84ZM185.26,57.74c-.31-.72-.4-1.6-.27-2.48.4.48.72,1.08.88,1.69.11.44.15.89.12,1.33v.09s-.04.25-.04.25c0,.01,0,0,0,0,0,.06-.01.12-.03.17-.24-.24-.47-.61-.67-1.05ZM185.63,60.02c.09-.2.2-.43.32-.62.02.17.05.35.08.52.02.3.01.61-.04.91-.1.49-.29.93-.53,1.25-.17-.66-.12-1.41.17-2.07ZM163.57,56.93c-.29.11-.59.25-.91.41-1.1.53-2.35,1.13-3.98.68-1.19-.4-1.91-.93-2.26-1.25l2.11-.19-.53-1.57c.39.26.93.61,1.28.74l.11.03c.51.16,1.09.35,2.67-.29.84-.34,1.54-.47,2.16-.4.73.09,1.26.55,1.77.99.35.3.72.63.98,1-1.02-.52-2.27-.59-3.4-.17ZM165.04,57.03c.8,0,1.58.22,2.21.67.33,1.19-.42,2.32-.65,2.62-1.91-.09-2.81-.69-3.17-1.03.49-.35,1.37-1.14,1.6-2.27ZM165.86,64.98c-1.63-1.05-2.3-4-2.52-5.26.93.75,3.72,1.77,10.01-.15h0c1.93-.6,3.84-.91,5.68-.91h0c2.44,0,4.52.53,6.24,1.25-.35.85-.38,1.79-.06,2.6l.1.25.2-.18c.38-.36.68-.95.83-1.63.31.7.79,1.31,1.38,1.72-.34.35-.65.88-.84,1.47-.02.06-.03.12-.04.18-2.18-.73-6.22-1.59-11.58-.56-.76.2-1.47.4-2.15.59,0,0,0,0,0,0h0c-.06.02-.11.03-.17.05-3.23.91-5.57,1.57-7.07.58ZM168.39,70.82c-.11,3.14-.04,6.2.2,9.18l-2.48-1.62c-.45-2.97-.74-6.13-.89-9.63l3.16,2.07ZM168.7,81.24c.81,8.1,2.96,15.53,6.39,21.99,1.41,2.67,3.06,5.17,4.86,7.42-.33.41-.86,1.01-1.56,1.69-1.02-1.03-2-2.1-2.93-3.22-1.77-2.13-3.36-4.44-4.7-6.86-1.35-2.45-2.46-5.02-3.31-7.66-1.68-5.13-2.41-10.52-2.64-15.91l3.89,2.55ZM154.29,61.59l6.67,4.37c.07,3.48.26,6.57.57,9.42l-7.6-4.97c0-2.81.13-5.77.35-8.82ZM160.31,114.18s-3.27-3.21-5.93-10.29c-2.43-6.45-4.84-17.52-2.74-33.82l7.98,5.22c.02.96.04,1.93.08,2.89.21,5.56.93,11.12,2.66,16.41.85,2.64,1.96,5.2,3.31,7.66,1.33,2.42,2.93,4.73,4.7,6.86,1.62,1.96,3.39,3.76,5.28,5.45-3.43,2.28-8.52,3.92-14.53.46-.39-.39-.66-.69-.8-.84ZM162.18,116.01c2.09.99,4.05,1.38,5.87,1.38,6.26,0,10.72-4.73,12.14-6.45,1.75,2.16,3.65,4.08,5.61,5.68-11.3,7.63-19.92,2.53-23.62-.62ZM181.76,127.56c.79-1.23,3.79-6.03,5.01-10.16.77.58,1.55,1.12,2.33,1.6l-1.24,9.62c-.65-.33-2.56-1.12-6.1-1.06ZM185.73,128.29c1.19.27,1.87.6,2.09.72,0,.03-.02.07-.07.13-.11.13-.43.36-1.37.45-.48.05-.82.2-1.07.39l.41-1.7ZM188.81,133.4c-.1.09-.19.18-.26.28l-.06-1.62c.17.05.3.12.39.18.25.19.28.41.28.41h.01c.01.11,0,.43-.37.74ZM189.21,132.04c-.42-.39-1.05-.46-1.62-.41-.57.04-1.14.18-1.72.12-.22-.02-.45-.07-.6-.23-.26-.26-.22-.71,0-1,.23-.28.59-.42.95-.5s.72-.1,1.07-.2c.35-.11.69-.32.83-.66.06-.14.08-.3.1-.45l.52-4.05c.09-.67.17-1.35.26-2.02l.26-2.02c.04-.34.09-.67.13-1.01.01-.08.02-.17.03-.25,0-.04,0-.09.02-.12.02-.04.04-.01.08.01.15.08.29.17.44.25.07.04.15.08.22.13-.32,4.14-.64,8.28-.97,12.41ZM195.11,133.68c-.07-.1-.15-.2-.26-.28-.28-.24-.35-.48-.37-.63v-.11s.04-.23.3-.42c.09-.07.22-.13.39-.18l-.06,1.62ZM198.48,131.39s-.05.07-.07.09c-.19.2-.51.27-.79.27-.54.02-1.07-.1-1.61-.13-.54-.03-1.12.04-1.54.38-.31-3.95-.62-7.9-.93-11.85-.01-.17-.02-.34.04-.49.12-.26.43-.37.71-.45.36,2.98.72,5.97,1.09,8.95.06.51.15,1.06.53,1.4.47.41,1.14.34,1.7.49.52.14,1.28.71.88,1.33ZM198.35,129.99c-.25-.19-.59-.34-1.07-.39-.94-.09-1.26-.32-1.37-.45-.05-.06-.06-.11-.07-.13.22-.12.9-.46,2.09-.72l.41,1.7ZM201.91,127.56c-3.54-.06-5.45.73-6.1,1.06l-1.24-9.63c.75-.47,1.53-1,2.32-1.6,1.22,4.13,4.23,8.95,5.02,10.18ZM191.83,118.82c-2.02-.99-4.37-2.58-6.77-4.83.08-.23.09-.5.09-.74,0-.37,0-.71.24-.87.04-.03.09-.04.13-.06.08-.04.18-.08.26-.15.09-.08.14-.18.18-.27.03-.06.06-.11.09-.15.12-.12.3-.13.52-.16.27-.03.57-.06.78-.29.21-.2.29-.52.18-.76-.02-.05-.05-.1-.09-.15-.02-.03-.04-.06-.05-.07-.04-.14-.01-.26.08-.39.21-.27.65-.42.96-.4.12,0,.25.02.39.04.35.05.74.11,1.07-.13.12-.09.21-.21.29-.32.1-.13.18-.24.29-.28.07-.02.17-.02.27-.02.2,0,.44.01.6-.2l.02-.03c.05-.11.09-.13.23-.12l2.15.13c.13,0,.27.02.36.08.06.04.12.11.17.18.07.08.14.18.25.25.23.16.57.17.92.02.09-.04.18-.08.26-.13.14-.07.28-.14.43-.18.26-.09.68.07.87.33.11.15.11.28.03.4-.02.02-.05.04-.08.06-.08.06-.2.13-.24.28-.07.25.13.47.37.55l.08.03c.1.03.19.06.2.09.09.23-.03.44-.24.77-.14.21-.28.43-.32.68v.02s0,.02,0,.02c.03.27.31.36.45.41.17.06.58.23.64.54,0,.05.01.1.01.15,0,.11,0,.23.06.34.03.08.08.14.12.19.03.03.05.07.07.1.03.19.09.35.18.47-2.31,2.09-4.56,3.59-6.5,4.54ZM197.87,116.61c1.85-1.52,3.77-3.4,5.63-5.68,1.4,1.7,5.87,6.47,12.15,6.47,1.81,0,3.77-.4,5.85-1.37-3.74,3.16-12.37,8.21-23.62.59ZM229.29,103.89c-2.66,7.08-5.83,10.21-5.87,10.24-.14.16-.43.48-.85.89-5.98,3.43-11.04,1.83-14.47-.43,1.87-1.68,3.64-3.48,5.25-5.43,1.77-2.13,3.36-4.44,4.7-6.86,1.35-2.45,2.46-5.02,3.31-7.66,1.73-5.29,2.45-10.86,2.66-16.41.04-.99.06-1.99.08-2.98l7.93-5.19c2.1,16.3-.31,27.37-2.74,33.82ZM235.66,69.16l-2.35-.51.47-2.36,4.68-1.02-2.8,3.88Z"/>
    <path class="cls-2" d="M205.9,61.38c.26.02.52.04.78.06.14.01.24.04.3.07.11.06.16.17.15.32,0,.13-.02.26-.02.39,0,.09,0,.15,0,.18l.02.08c.13.01.27.03.4.05v-.05s-.07-.08-.08-.16c-.01-.04,0-.11,0-.2,0-.11.02-.21.03-.31.01-.14,0-.23-.04-.3-.04-.06-.11-.12-.2-.17.12-.04.21-.1.29-.19.08-.08.12-.19.14-.33.04-.27-.06-.46-.29-.59-.12-.06-.28-.11-.48-.12-.41-.04-.81-.07-1.21-.09-.06.77-.11,1.55-.16,2.33.11,0,.22.01.33.02.03-.33.05-.67.07-1ZM205.99,60.32c.29.02.57.04.86.07.12.01.21.04.28.08.13.08.18.19.16.36-.02.15-.08.25-.18.3-.1.05-.23.07-.39.05-.26-.03-.53-.05-.79-.06.02-.27.05-.53.06-.79Z"/>
    <path class="cls-2" d="M209.85,62.38c.14-.18.24-.38.29-.63.07-.31.04-.58-.08-.82-.14-.26-.39-.43-.75-.49-.35-.06-.7-.12-1.05-.16-.12.77-.24,1.54-.35,2.3.32.05.65.1.97.15.41.07.73-.05.97-.36ZM208.28,62.37c.09-.59.19-1.18.28-1.77.21.03.41.06.61.1.28.05.47.16.56.34.09.18.11.41.05.69-.01.08-.04.15-.07.24-.06.14-.13.25-.21.33-.11.1-.22.16-.36.18-.07,0-.17,0-.28-.02-.19-.03-.39-.06-.58-.09Z"/>
    <path class="cls-2" d="M212.12,63.19c-.47-.13-.95-.26-1.43-.37.06-.26.13-.51.19-.77.45.1.89.22,1.33.34.03-.09.05-.17.08-.26-.45-.12-.89-.24-1.35-.34.06-.23.11-.46.17-.69.5.12,1,.24,1.49.38.03-.09.06-.18.08-.27-.61-.17-1.22-.33-1.84-.46-.18.76-.36,1.51-.54,2.27.58.13,1.16.27,1.72.44.03-.09.05-.18.08-.27Z"/>
    <path class="cls-2" d="M212.75,63.67c.19-.6.39-1.2.59-1.79.22.73.41,1.46.58,2.18.11.04.23.08.34.13.28-.73.56-1.45.85-2.17-.1-.04-.21-.08-.31-.11-.23.59-.45,1.18-.67,1.77-.17-.73-.36-1.46-.57-2.19-.13-.04-.26-.08-.4-.12-.24.74-.48,1.48-.71,2.22.1.03.2.06.3.09Z"/>
    <path class="cls-2" d="M200.36,62.5c.11-.01.22-.02.34-.04-.03-.31-.06-.62-.09-.93.28-.49.57-.99.88-1.47-.14,0-.28.02-.42.03-.23.39-.45.79-.66,1.19-.28-.35-.57-.69-.87-1.03-.14.02-.28.04-.42.06.39.41.77.83,1.14,1.26.03.31.07.62.1.93Z"/>
    <path class="cls-2" d="M203.86,62.38c.4,0,.71-.12.94-.39.2-.22.31-.51.33-.86.02-.32-.05-.59-.22-.8-.21-.27-.55-.42-1.01-.42-.45,0-.79.15-1.01.44-.17.23-.25.5-.24.82,0,.35.12.64.32.86.22.23.52.34.9.34ZM203.25,60.45c.17-.17.4-.25.67-.25.28,0,.5.09.65.26.16.17.23.39.21.67-.01.26-.09.49-.23.68-.14.2-.35.29-.65.29-.31,0-.54-.09-.68-.26-.14-.18-.22-.39-.22-.65,0-.32.08-.57.25-.74Z"/>
    <path class="cls-2" d="M167.58,64.24c-.24-.66-.49-1.33-.75-1.99-.11.04-.23.08-.34.12.3.75.59,1.5.87,2.25.5-.18,1-.35,1.51-.5-.03-.09-.06-.18-.09-.27-.41.12-.81.25-1.2.39Z"/>
    <path class="cls-2" d="M168.58,61.76c.25.76.5,1.53.73,2.3.11-.03.22-.06.33-.09-.23-.77-.46-1.54-.71-2.3-.12.03-.23.07-.35.1Z"/>
    <path class="cls-2" d="M171.63,62.24c-.08-.05-.19-.08-.33-.1.08-.06.13-.12.17-.18.07-.12.09-.24.05-.39-.03-.13-.1-.23-.19-.31-.17-.14-.41-.17-.72-.1-.37.09-.75.18-1.12.28.24.77.46,1.54.68,2.31.34-.09.68-.17,1.02-.25.32-.07.54-.21.65-.43.08-.14.1-.29.06-.44-.04-.18-.13-.31-.27-.39ZM170.12,62.32c-.07-.24-.14-.48-.21-.71.21-.06.42-.1.63-.15.15-.04.27-.05.36-.04.15.03.25.11.29.26.04.15,0,.27-.11.36-.07.06-.18.1-.33.13-.21.05-.42.1-.62.15ZM171.53,62.96c-.06.13-.19.22-.4.26-.24.06-.48.11-.72.17-.07-.28-.15-.55-.22-.82.23-.06.45-.11.68-.16.14-.03.26-.04.36-.03.18.03.29.13.33.3.02.1.01.19-.02.28Z"/>
    <path class="cls-2" d="M174.24,62.51c-.51.07-1.02.14-1.53.23-.05-.27-.11-.53-.16-.8.47-.08.95-.16,1.42-.22-.01-.09-.03-.18-.04-.28-.48.06-.96.14-1.43.22-.05-.24-.1-.48-.15-.72.53-.09,1.05-.17,1.59-.24-.02-.1-.03-.19-.05-.29-.65.09-1.3.19-1.95.31.18.78.34,1.57.5,2.36.61-.11,1.22-.21,1.84-.29-.01-.09-.03-.19-.04-.28Z"/>
    <path class="cls-2" d="M175.26,62.62c-.04-.34-.08-.68-.13-1.02.27-.03.54-.05.81-.07.14-.01.25,0,.32.02.12.05.19.15.21.3.02.14.04.27.06.4.01.09.02.15.03.19l.04.08c.14,0,.28-.02.42-.02v-.06c-.06-.02-.1-.06-.13-.14-.01-.04-.03-.11-.04-.2-.01-.11-.03-.22-.04-.32-.01-.14-.05-.24-.11-.3-.06-.06-.14-.1-.25-.14.11-.06.2-.14.26-.24.06-.09.08-.21.07-.36-.02-.27-.16-.45-.43-.54-.14-.05-.31-.06-.52-.04-.42.03-.84.08-1.26.13.12.79.23,1.59.34,2.38.11-.01.23-.02.34-.04ZM175.88,60.43c.13-.01.23,0,.31.03.15.05.23.17.25.34.02.16-.02.27-.12.34-.09.07-.22.11-.39.12-.28.02-.55.05-.83.08-.04-.27-.07-.55-.11-.82.3-.03.59-.06.89-.08Z"/>
    <path class="cls-2" d="M177.81,60.31c.04.71.07,1.41.1,2.12.12,0,.24,0,.35,0-.02-.71-.04-1.41-.08-2.12.31,0,.62,0,.92,0,0-.1,0-.19,0-.29-.75-.01-1.5,0-2.24.04,0,.1.02.19.02.29.31-.01.61-.02.92-.03Z"/>
    <path class="cls-2" d="M179.29,62.42c.1-.24.19-.48.29-.71.35.01.7.03,1.05.05.08.25.16.49.24.74.13.01.26.02.39.03-.27-.82-.57-1.65-.89-2.47-.14,0-.28-.01-.42-.02-.35.79-.68,1.58-1,2.38.12,0,.24,0,.36,0ZM180.13,60.39c.14.36.27.72.39,1.09-.27-.02-.56-.03-.84-.04.15-.35.3-.7.45-1.05Z"/>
    <path class="cls-2" d="M183.66,62.25c.13-.19.22-.41.25-.67.04-.33-.02-.61-.18-.85-.19-.26-.48-.42-.86-.47-.38-.04-.76-.09-1.13-.12-.04.8-.09,1.61-.14,2.4.35.03.7.07,1.05.12.45.05.79-.08,1.02-.41ZM181.96,62.3c.05-.62.1-1.23.13-1.85.22.02.45.05.67.07.31.04.52.15.64.33.12.18.17.43.13.72-.01.08-.03.16-.06.24-.05.15-.12.27-.2.35-.1.11-.23.17-.37.2-.08.01-.18.01-.3,0-.21-.02-.43-.05-.64-.07Z"/>
    <path class="cls-2" d="M194.5,104.36h-.04s0-.22,0-.22h-.35v-.6h.66v-1.56h-.01s-.5,0-.5,0h-.15s0-.46,0-.46c0-.12-.05-.23-.15-.29-.1-.06-.23-.06-.33,0-.1.06-.16.17-.16.29v.47h-.55q-.19,0-.44,0h-.12v-.47c0-.12-.06-.23-.16-.29-.1-.06-.24-.06-.34,0-.1.06-.15.17-.15.28v.47h-.12c-.26,0-.44,0-.44,0h-.54v-.47c0-.12-.06-.23-.16-.29-.1-.06-.24-.06-.34,0-.1.06-.15.17-.15.28v.47h-.66v1.56h.66v.6h-.44v.22h-.04s-.44-.55-.44-.55h-1.66l.75,1.11.93.6,2.92.02h0s0,0,0,0h0s0,0,0,0l2.92-.02.93-.6.75-1.11h-1.66l-.44.55ZM193.3,102.35h1.11v.82h-1.11v-.82ZM193.48,103.54v.6h-.43v.25h-.41s0-.25,0-.25h-.28v-.6h1.11ZM191.49,102.35h.12c.25,0,.38-.09.44-.13.06.05.19.13.44.13h.12v.82h-1.12v-.82ZM191.72,103.54v.6h-.37v.25h-.41v-.25h-.32v-.6h1.1ZM189.68,103.17v-.82h1.11v.82h-1.11ZM195.91,104.17l-.34.5-.75.47-2.82.02-2.82-.02-.75-.47-.34-.5h.79l.44.55h.59s0-.21,0-.21h.67v.24l1.14.02v-.26h.56v.26l1.14-.02v-.24h.67v.22h.59s.44-.56.44-.56h.79Z"/>
    <path class="cls-2" d="M194.5,114.75h-.04s0-.22,0-.22h-.35v-.6h.66v-1.56h-.01s-.5,0-.5,0h-.15s0-.46,0-.46c0-.12-.05-.23-.15-.29-.1-.06-.23-.06-.33,0-.1.06-.16.17-.16.29v.47h-.55q-.19,0-.44,0h-.12v-.47c0-.12-.06-.23-.16-.29-.1-.06-.24-.06-.34,0-.1.06-.15.17-.15.28v.47h-.12c-.26,0-.44,0-.44,0h-.54v-.47c0-.12-.06-.23-.16-.29-.1-.06-.24-.06-.34,0-.1.06-.15.17-.15.28v.47h-.66v1.56h.66v.6h-.44v.22h-.04s-.44-.55-.44-.55h-1.66l.75,1.11.93.6,2.92.02h0s0,0,0,0h0s0,0,0,0l2.92-.02.93-.6.75-1.11h-1.66l-.44.55ZM193.3,112.75h1.11v.82h-1.11v-.82ZM193.48,113.94v.6h-.43v.25h-.41s0-.25,0-.25h-.28v-.6h1.11ZM191.49,112.75h.12c.25,0,.38-.09.44-.13.06.05.19.13.44.13h.12v.82h-1.12v-.82ZM191.72,113.94v.6h-.37v.25h-.41v-.25h-.32v-.6h1.1ZM189.68,113.57v-.82h1.11v.82h-1.11ZM195.91,114.57l-.34.5-.75.47-2.82.02-2.82-.02-.75-.47-.34-.5h.79l.44.55h.59s0-.21,0-.21h.67v.24l1.14.02v-.26h.56v.26l1.14-.02v-.24h.67v.22h.59s.44-.56.44-.56h.79Z"/>
    <path class="cls-2" d="M185.96,58.62s0,0,0,0c0-.01,0,0,0,0Z"/>
  </g>
  <g>
    <rect class="cls-3" x="162.61" y="211.35" width="8.64" height="49.86" transform="translate(-69.35 403.21) rotate(-90)"/>
    <rect class="cls-4" x="199.99" y="223.83" width="8.64" height="24.91" transform="translate(-31.97 440.59) rotate(-90)"/>
    <rect class="cls-1" x="224.89" y="223.83" width="8.64" height="24.91" transform="translate(-7.07 465.5) rotate(-90)"/>
  </g>
</svg>