<?xml version="1.0" encoding="utf-8"?>
<!-- Generator: Adobe Illustrator 23.0.1, SVG Export Plug-In . SVG Version: 6.00 Build 0)  -->
<svg version="1.1" id="Layer_1" xmlns="http://www.w3.org/2000/svg" xmlns:xlink="http://www.w3.org/1999/xlink" x="0px" y="0px"
	 viewBox="0 0 154.18 50" style="enable-background:new 0 0 154.18 50;" xml:space="preserve">
<style type="text/css">
	.st0{fill:none;}
	.st1{fill:#FDFEFE;}
	.st2{fill:#F7CE17;}
	.st3{fill:#CF203F;}
	.st4{fill:#025DC3;}
</style>
<path class="st0" d="M-18.42,1104.47"/>
<path class="st0" d="M-18.42,1104.47"/>
<path class="st0" d="M-18.42,1104.47"/>
<path class="st0" d="M-18.42,1104.47"/>
<path class="st0" d="M-18.42,1104.47"/>
<path class="st0" d="M-18.42,1104.47"/>
<path class="st0" d="M-18.42,1104.47"/>
<path class="st0" d="M-18.42,1104.47"/>
<path class="st0" d="M-18.42,1104.47"/>
<path class="st0" d="M-18.42,1104.47"/>
<path class="st0" d="M-18.42,1104.47"/>
<path class="st0" d="M-18.42,1104.47"/>
<path class="st0" d="M-18.42,1104.47"/>
<path class="st0" d="M-18.42,1104.47"/>
<path class="st0" d="M-18.42,1104.47"/>
<path class="st0" d="M-18.42,1104.47"/>
<path class="st0" d="M-18.42,1104.47"/>
<path class="st0" d="M-18.42,1104.47"/>
<path class="st0" d="M-18.42,1104.47"/>
<path class="st0" d="M-18.42,1104.47"/>
<path class="st0" d="M-18.42,1104.47"/>
<path class="st0" d="M-18.42,1104.47"/>
<path class="st0" d="M-18.42,1104.47"/>
<path class="st0" d="M-18.42,1104.47"/>
<path class="st0" d="M-18.42,1104.47"/>
<path class="st0" d="M-18.42,1104.47"/>
<path class="st0" d="M-18.42,1104.47"/>
<path class="st0" d="M-18.42,1104.47"/>
<path class="st0" d="M-18.42,1104.47"/>
<path class="st0" d="M-18.42,1104.47"/>
<path class="st0" d="M-18.42,1104.47"/>
<path class="st0" d="M-18.42,1104.47"/>
<path class="st0" d="M-18.42,1104.47"/>
<path class="st0" d="M-18.42,1104.47"/>
<path class="st0" d="M-18.42,1104.47"/>
<path class="st0" d="M-18.42,1104.47"/>
<path class="st0" d="M-18.42,1104.47"/>
<path class="st0" d="M-18.42,1104.47"/>
<path class="st0" d="M-18.42,1104.47"/>
<path class="st0" d="M-18.42,1104.47"/>
<path class="st0" d="M-18.42,1104.47"/>
<path class="st0" d="M-18.42,1104.47"/>
<path class="st0" d="M-18.42,1104.47"/>
<path class="st0" d="M-18.42,1104.47"/>
<path class="st0" d="M-18.42,1104.47"/>
<path class="st0" d="M-18.42,1104.47"/>
<path class="st0" d="M-18.42,1104.47"/>
<path class="st0" d="M-18.42,1104.47"/>
<path class="st0" d="M-18.42,1104.47"/>
<path class="st0" d="M-18.42,1104.47"/>
<path class="st0" d="M-18.42,1104.47"/>
<path class="st0" d="M-18.42,1104.47"/>
<path class="st0" d="M-18.42,1104.47"/>
<path class="st0" d="M-18.42,1104.47"/>
<path class="st0" d="M-18.42,1104.47"/>
<path class="st0" d="M-18.42,1104.47"/>
<path class="st0" d="M-18.42,1104.47"/>
<path class="st0" d="M-18.42,1104.47"/>
<path class="st0" d="M-18.42,1104.47"/>
<path class="st0" d="M-18.42,1104.47"/>
<path class="st0" d="M-18.42,1104.47"/>
<path class="st0" d="M-18.42,1104.47"/>
<path class="st0" d="M-18.42,1104.47"/>
<path class="st0" d="M-18.42,1104.47"/>
<path class="st0" d="M-18.42,1104.47"/>
<path class="st0" d="M-18.42,1104.47"/>
<path class="st0" d="M-18.42,1104.47"/>
<path class="st0" d="M-18.42,1104.47"/>
<path class="st0" d="M-18.42,1104.47"/>
<path class="st0" d="M-18.42,1104.47"/>
<path class="st0" d="M-18.42,1104.47"/>
<path class="st0" d="M-18.42,1104.47"/>
<path class="st0" d="M-18.42,1104.47"/>
<path class="st0" d="M-18.42,1104.47"/>
<path class="st0" d="M-18.42,1104.47"/>
<path class="st0" d="M-17.89,1104.47"/>
<path class="st0" d="M-17.89,1104.47"/>
<path class="st0" d="M-17.89,1104.47"/>
<path class="st0" d="M-17.89,1104.47"/>
<path class="st0" d="M-17.89,1104.47"/>
<path class="st0" d="M-17.89,1104.47"/>
<path class="st0" d="M-17.89,1104.47"/>
<path class="st0" d="M-17.89,1104.47"/>
<path class="st0" d="M-17.89,1104.47"/>
<path class="st0" d="M-17.89,1104.47"/>
<path class="st0" d="M-17.89,1104.47"/>
<path class="st0" d="M-17.89,1104.47"/>
<path class="st0" d="M-17.89,1104.47"/>
<path class="st0" d="M-17.89,1104.47"/>
<path class="st0" d="M-17.89,1104.47"/>
<path class="st0" d="M-17.89,1104.47"/>
<path class="st0" d="M-17.89,1104.47"/>
<path class="st0" d="M-17.89,1104.47"/>
<path class="st0" d="M-17.89,1104.47"/>
<path class="st0" d="M-17.89,1104.47"/>
<path class="st0" d="M-17.89,1104.47"/>
<path class="st0" d="M-17.89,1104.47"/>
<path class="st0" d="M-17.89,1104.47"/>
<path class="st0" d="M-17.89,1104.47"/>
<path class="st0" d="M-17.89,1104.47"/>
<path class="st0" d="M-17.89,1104.47"/>
<path class="st0" d="M-17.89,1104.47"/>
<path class="st0" d="M-17.89,1104.47"/>
<path class="st0" d="M-17.89,1104.47"/>
<path class="st0" d="M-17.89,1104.47"/>
<path class="st0" d="M-17.89,1104.47"/>
<path class="st0" d="M-17.89,1104.47"/>
<path class="st0" d="M-17.89,1104.47"/>
<path class="st0" d="M-17.89,1104.47"/>
<path class="st0" d="M-17.89,1104.47"/>
<path class="st0" d="M-17.89,1104.47"/>
<path class="st0" d="M-17.89,1104.47"/>
<path class="st0" d="M-17.89,1104.47"/>
<path class="st0" d="M-17.89,1104.47"/>
<path class="st0" d="M-17.89,1104.47"/>
<path class="st0" d="M-17.89,1104.47"/>
<path class="st0" d="M-17.89,1104.47"/>
<path class="st0" d="M-17.89,1104.47"/>
<path class="st0" d="M-17.89,1104.47"/>
<path class="st0" d="M-17.89,1104.47"/>
<path class="st0" d="M-17.89,1104.47"/>
<path class="st0" d="M-17.89,1104.47"/>
<path class="st0" d="M-17.89,1104.47"/>
<path class="st0" d="M-17.89,1104.47"/>
<path class="st0" d="M-17.89,1104.47"/>
<path class="st0" d="M-17.89,1104.47"/>
<path class="st0" d="M-17.89,1104.47"/>
<path class="st0" d="M-17.89,1104.47"/>
<path class="st0" d="M-17.89,1104.47"/>
<path class="st0" d="M-17.89,1104.47"/>
<path class="st0" d="M-17.89,1104.47"/>
<path class="st0" d="M-17.89,1104.47"/>
<path class="st0" d="M-17.89,1104.47"/>
<path class="st0" d="M-17.89,1104.47"/>
<path class="st0" d="M-17.89,1104.47"/>
<path class="st0" d="M-17.89,1104.47"/>
<path class="st0" d="M-17.89,1104.47"/>
<path class="st0" d="M-17.89,1104.47"/>
<path class="st0" d="M-17.89,1104.47"/>
<path class="st0" d="M-17.89,1104.47"/>
<path class="st0" d="M-17.89,1104.47"/>
<path class="st0" d="M-17.89,1104.47"/>
<path class="st0" d="M-17.89,1104.47"/>
<path class="st0" d="M-17.89,1104.47"/>
<path class="st0" d="M-17.89,1104.47"/>
<path class="st0" d="M-17.89,1104.47"/>
<path class="st0" d="M-17.89,1104.47"/>
<path class="st0" d="M-17.89,1104.47"/>
<path class="st0" d="M-17.89,1104.47"/>
<path class="st1" d="M29.56,18.05c-0.36,0.45-0.74,0.9-1.09,1.36c-0.15,0.19-0.31,0.28-0.56,0.27c-0.38-0.01-0.38,0-0.33,0.39
	c0.05,0.49,0.09,0.99,0.14,1.48c0.01,0.13-0.04,0.28,0.09,0.4c0.25-0.09,0.42-0.23,0.49-0.5c0.03-0.13,0.07-0.26,0.23-0.32
	c0.61-0.22,1.21-0.45,1.86-0.7c-0.06,0.17-0.15,0.25-0.23,0.34c-0.28,0.31-0.57,0.6-0.82,0.93c-0.21,0.26-0.43,0.39-0.77,0.34
	c-0.26-0.04-0.28-0.01-0.25,0.27c0.12,1.23,0.11,2.46,0.05,3.68c-0.09,1.85-0.33,3.68-0.98,5.44c-0.36,0.98-0.86,1.88-1.57,2.65
	c-1.37,1.49-3.03,1.93-4.97,1.34c-0.6-0.18-1.14-0.49-1.69-0.77c-0.03-0.04-0.08-0.09-0.12-0.06c-0.06,0.05-0.02,0.12,0.02,0.17
	c0.29,0.9,0.75,1.72,1.18,2.58c-0.26,0.12-0.53,0.09-0.79,0.12c-0.21,0.02-0.27,0.1-0.19,0.29c0.05,0.11,0.08,0.24,0.1,0.36
	c0.05,0.26-0.02,0.36-0.27,0.4c-0.17,0.03-0.39-0.05-0.52,0.07c-0.13,0.13-0.02,0.34-0.02,0.52c0,0.17-0.08,0.25-0.24,0.28
	c-0.44,0.09-0.88,0.09-1.32,0.01c-0.31-0.06-0.33-0.1-0.32-0.42c0.01-0.42,0.01-0.42-0.41-0.45c-0.44-0.03-0.49-0.12-0.37-0.55
	c0.02-0.07,0.05-0.13,0.06-0.2c0.05-0.25,0.03-0.28-0.23-0.31c-0.24-0.03-0.49-0.02-0.76-0.09c0.44-0.91,0.92-1.78,1.24-2.75
	C16,34.59,15.9,34.7,15.8,34.76c-0.6,0.35-1.23,0.63-1.91,0.78c-1.83,0.4-3.35-0.15-4.58-1.54c-0.9-1.01-1.44-2.21-1.81-3.5
	c-0.42-1.5-0.61-3.03-0.68-4.58c-0.06-1.2-0.03-2.4,0.03-3.6c0.01-0.3,0.01-0.34-0.27-0.29c-0.32,0.05-0.51-0.08-0.7-0.31
	c-0.34-0.41-0.71-0.8-1.08-1.21c0.12-0.09,0.2-0.01,0.28,0.02c0.48,0.18,0.95,0.36,1.44,0.53c0.2,0.07,0.31,0.19,0.38,0.39
	c0.11,0.33,0.12,0.33,0.52,0.49c0.05-0.54,0.1-1.07,0.15-1.6c0.01-0.07,0.01-0.14,0.02-0.21c0.04-0.45,0.04-0.45-0.4-0.47
	c-0.12,0-0.25,0.01-0.34-0.11C6.46,19.05,6,18.61,5.67,18.06c0.1-0.03,0.19,0.03,0.27,0.07c0.46,0.19,0.91,0.4,1.37,0.58
	c0.19,0.07,0.31,0.18,0.34,0.37c0.04,0.24,0.18,0.39,0.36,0.52c0.49,0.36,0.97,0.74,1.46,1.1c0.15,0.11,0.22,0.22,0.19,0.41
	c-0.04,0.26-0.03,0.52-0.06,0.78c-0.05,0.49,0,0.98-0.03,1.46c-0.17,0.05-0.24-0.18-0.41-0.08c-0.01,0.47,0,0.93,0.02,1.4
	c0.07,1.55,0.27,3.08,0.7,4.57c0.46,1.58,1.1,3.07,2.16,4.34c0.72,0.87,0.47,0.85,1.56,0.16c0.25-0.16,0.24-0.18,0.05-0.41
	c-0.49-0.58-0.92-1.21-1.28-1.88c-0.82-1.51-1.31-3.13-1.57-4.81c-0.12-0.8-0.22-1.61-0.17-2.41c0.12-0.11,0.21,0.1,0.32-0.02
	c-0.01-0.77-0.14-1.55-0.02-2.34c0.25,0.05,0.36,0.29,0.6,0.33c0.02-0.3,0.05-0.59,0.07-0.87c0.02-0.33,0.02-0.34-0.31-0.36
	c-0.57-0.04-0.96-0.32-1.14-0.86c-0.05-0.16-0.09-0.32-0.14-0.48c-0.12-0.36-0.07-0.64,0.29-0.85c0.2-0.12,0.39-0.27,0.52-0.5
	c-0.17-0.04-0.29-0.01-0.41,0.01c-0.22,0.04-0.42,0.14-0.62,0.23c-0.84,0.35-1.66,0-2.01-0.86c0.25-0.01,0.49,0.11,0.76,0.03
	c-0.04-0.15-0.01-0.3-0.12-0.43c-0.43,0.18-0.88,0.28-1.31,0.42c-0.18,0.06-0.36,0.06-0.56,0.05C6.28,17.73,5.99,17.89,5.7,18
	C5.69,18,5.69,18.05,5.68,18.08c-0.14-0.12-0.29,0-0.43-0.01c-0.08-0.01-0.17,0-0.21-0.09c-0.03-0.07,0.02-0.13,0.06-0.18
	c0.03-0.04,0.07-0.08,0.11-0.12c0.49-0.43,0.94-0.91,1.49-1.27c0.2-0.13,0.37-0.28,0.51-0.48c0.07-0.1,0.16-0.19,0.26-0.27
	c1.33-1.13,2.71-2.18,4.22-3.05c0.89-0.52,1.84-0.88,2.88-0.96c0.34-0.03,0.67-0.01,0.98,0.11c0.79,0.28,0.95,0.54,0.91,1.22
	c0.11,0.08,0.2-0.04,0.31-0.05c0.18-0.02,0.37-0.08,0.36,0.22c0,0.08,0.08,0.1,0.13,0.15c0.11,0.09,0.18,0.2,0.18,0.35
	c0,0.35,0.29,0.51,0.48,0.74c0.06,0.07,0.12,0.01,0.18-0.01c0.27-0.11,0.51-0.03,0.64,0.2c0.1,0.17,0.16,0.1,0.25,0.04
	c0.29-0.21,0.32-0.36,0.16-0.7c-0.16-0.32-0.33-0.63-0.41-0.99c-0.09-0.41,0.02-0.69,0.37-0.93c0.44-0.3,0.94-0.39,1.46-0.35
	c0.91,0.06,1.76,0.33,2.56,0.76c1.67,0.91,3.19,2.03,4.6,3.29c0.51,0.46,1.04,0.9,1.56,1.34c0.26,0.23,0.52,0.48,0.76,0.73
	c0.06,0.06,0.11,0.13,0.08,0.22c-0.04,0.1-0.14,0.07-0.21,0.08C29.8,18.08,29.68,17.99,29.56,18.05c-0.27-0.22-0.62-0.19-0.91-0.34
	c-0.02-0.01-0.05,0.01-0.08,0.02c-0.15,0.08-0.3,0.03-0.44-0.01c-0.47-0.14-0.94-0.28-1.43-0.43c-0.05,0.16-0.08,0.3-0.02,0.46
	c0.24-0.02,0.46-0.05,0.72-0.08c-0.08,0.24-0.23,0.38-0.37,0.53c-0.48,0.51-0.97,0.61-1.61,0.35c-0.18-0.07-0.36-0.15-0.54-0.21
	c-0.18-0.06-0.36-0.1-0.56-0.02c0.21,0.23,0.42,0.4,0.65,0.56c0.2,0.14,0.25,0.32,0.22,0.54c-0.05,0.32-0.14,0.62-0.27,0.91
	c-0.16,0.36-0.45,0.54-0.82,0.63c-0.17,0.04-0.42-0.06-0.5,0.1c-0.08,0.15-0.01,0.38-0.01,0.57c0,0.08,0,0.17,0.01,0.25
	c0.01,0.11-0.04,0.24,0.07,0.31c0.12,0.07,0.19-0.08,0.27-0.13c0.09-0.05,0.15-0.16,0.31-0.13c0.03,0.78,0,1.56-0.03,2.31
	c0.14,0.09,0.22-0.11,0.35,0.01c-0.03,0.65-0.06,1.33-0.15,2c-0.21,1.64-0.64,3.22-1.36,4.71c-0.42,0.86-0.93,1.66-1.55,2.39
	c-0.18,0.21-0.17,0.22,0.03,0.38c0.22,0.19,0.49,0.31,0.74,0.46c0.16,0.1,0.27,0.05,0.39-0.08c0.2-0.21,0.39-0.42,0.57-0.65
	c0.76-0.98,1.31-2.08,1.73-3.24c0.61-1.67,0.9-3.41,1-5.18c0.03-0.59,0.04-1.18,0.01-1.77c-0.16-0.06-0.24,0.16-0.4,0.09
	c-0.02-0.77,0.04-1.54-0.09-2.31c-0.03-0.17,0.07-0.25,0.19-0.34c0.51-0.38,1.01-0.77,1.52-1.15c0.15-0.11,0.28-0.23,0.3-0.42
	c0.04-0.27,0.2-0.4,0.44-0.48c0.22-0.08,0.43-0.19,0.65-0.27C28.92,18.29,29.21,18.08,29.56,18.05z M17.63,25.88
	c-1.72,0-3.45,0-5.17,0c-0.34,0-0.36,0.01-0.31,0.35c0.15,1.1,0.42,2.16,0.87,3.18c0.1,0.24,0.24,0.32,0.49,0.32
	c2.73-0.01,5.46-0.01,8.2,0c0.25,0,0.37-0.08,0.46-0.3c0.46-1.06,0.72-2.17,0.9-3.3c0.03-0.18-0.03-0.26-0.22-0.25
	c-0.1,0.01-0.19,0-0.29,0C20.91,25.88,19.27,25.88,17.63,25.88z M17.6,25.53c1.71,0,3.43,0,5.14,0c0.33,0,0.34,0,0.38-0.32
	c0.09-0.67,0.13-1.35,0.17-2.02c0.04-0.68,0.03-1.35-0.04-2.03c-0.02-0.22-0.14-0.28-0.33-0.18c-0.05,0.03-0.09,0.07-0.13,0.1
	c-0.33,0.27-0.7,0.45-1.1,0.55c-1.36,0.34-2.66,0.19-3.86-0.56c-0.17-0.11-0.29-0.14-0.47-0.01c-0.6,0.43-1.29,0.63-2.01,0.71
	c-1.09,0.11-2.12-0.02-3.01-0.73c-0.03-0.03-0.06-0.06-0.1-0.07c-0.16-0.08-0.27-0.03-0.31,0.14c-0.03,0.12-0.04,0.25-0.04,0.37
	c-0.01,0.57-0.03,1.13,0,1.7c0.03,0.7,0.11,1.4,0.17,2.1c0.01,0.15,0.04,0.27,0.24,0.26c0.1-0.01,0.19,0,0.29,0
	C14.26,25.53,15.93,25.53,17.6,25.53z M13.39,30.07c0.03,0.21,0.13,0.35,0.21,0.49c0.95,1.67,2.27,3.01,3.8,4.16
	c0.15,0.11,0.25,0.11,0.4,0c0.52-0.39,1.02-0.81,1.49-1.25c0.91-0.87,1.72-1.83,2.33-2.94c0.07-0.13,0.19-0.26,0.17-0.45
	C18.98,30.07,16.2,30.07,13.39,30.07z M26.4,17.25c-0.42-0.06-0.78-0.13-1.11-0.32c-0.2-0.11-0.38-0.24-0.64-0.21
	c-0.12,0.01-0.28-0.05-0.38-0.13c-0.36-0.27-0.82-0.37-1.15-0.69c-0.18-0.16-0.47,0-0.48,0.24c-0.02,0.35-0.15,0.45-0.46,0.3
	c-0.35-0.17-0.71-0.28-1.11-0.27c-0.13,0-0.26,0-0.29,0.16c-0.04,0.23-0.22,0.34-0.39,0.45c-0.17,0.11-0.32,0.35-0.57,0.11
	c-0.01-0.01-0.07,0.03-0.09,0.06c-0.12,0.16-0.26,0.14-0.44,0.1c-0.13-0.03-0.35-0.05-0.4,0.1c-0.11,0.32-0.28,0.65-0.1,1
	c0.12,0.23,0.17,0.47,0.1,0.72c-0.08,0.3,0.16,0.42,0.31,0.58c0.14,0.15,0.28,0.01,0.41-0.05c0.59-0.27,1.21-0.36,1.85-0.26
	c0.4,0.06,0.78,0.17,1.16,0.28c0.46,0.13,0.93,0.22,1.44,0.22c-0.07-0.21-0.2-0.33-0.3-0.47c-0.2-0.31-0.22-0.61-0.02-0.93
	c0.12-0.2,0.26-0.39,0.4-0.58c0.16-0.2,0.36-0.28,0.62-0.27c0.24,0.01,0.46,0.08,0.69,0.14C25.8,17.62,26.12,17.58,26.4,17.25z
	 M8.79,17.26c0.3,0.36,0.66,0.35,1.05,0.24c0.85-0.24,1.07-0.15,1.53,0.61c0.02,0.04,0.04,0.07,0.06,0.11
	c0.19,0.33,0.18,0.65-0.04,0.97c-0.09,0.13-0.22,0.24-0.26,0.45c0.18-0.02,0.32-0.03,0.47-0.04c0.48-0.05,0.94-0.2,1.41-0.33
	c0.69-0.2,1.38-0.29,2.08-0.08c0.32,0.1,0.32,0.09,0.47-0.22c0.02-0.04,0.04-0.07,0.06-0.11c0.15-0.22,0.15-0.42,0-0.65
	c-0.17-0.27-0.19-0.57-0.12-0.88c0.02-0.1,0.09-0.2,0.03-0.31c-0.43,0.04-0.94-0.26-1.13-0.68c-0.06-0.13-0.11-0.16-0.24-0.16
	c-0.36,0-0.71,0.07-1.04,0.21c-0.49,0.22-0.55,0.17-0.57-0.38c0-0.03-0.02-0.05-0.03-0.08c-0.34-0.09-0.35-0.1-0.46-0.01
	c-0.28,0.22-0.6,0.37-0.91,0.54c-0.27,0.14-0.52,0.32-0.84,0.27c-0.09-0.01-0.15,0.04-0.22,0.09C9.7,17.09,9.27,17.19,8.79,17.26z
	 M18.49,20.96c1.29,0.65,3.34,0.45,4-0.2C21.13,20.33,19.84,20.24,18.49,20.96z M12.69,20.82c0.38,0.26,0.78,0.38,1.18,0.46
	c0.84,0.17,0.93,0.11,1.19-0.73c0.01-0.02-0.01-0.05-0.02-0.1C14.24,20.41,13.45,20.44,12.69,20.82z M18.92,19.71
	c-0.24-0.28-0.29-0.32-0.4-0.36c-0.3-0.1-0.42-0.01-0.37,0.3c0.02,0.15,0.02,0.32,0.12,0.49C18.5,19.99,18.71,19.85,18.92,19.71z
	 M16.57,14.16c0.33,0.5,0.33,0.5,0.61,0.4C16.99,14.23,16.91,14.17,16.57,14.16z M15.91,14.21c0.14,0.3,0.34,0.53,0.72,0.48
	C16.36,14.58,16.18,14.34,15.91,14.21z"/>
<path class="st1" d="M77.75,35.01c-1.53-0.05-2.98-0.38-4.33-1.12c-2.11-1.16-3.46-2.94-4.11-5.23c-0.85-3.02-0.6-5.95,1.1-8.64
	c1.42-2.25,3.53-3.52,6.14-3.96c1.73-0.29,3.44-0.18,5.11,0.38c2.43,0.82,4.15,2.44,5.13,4.79c1.17,2.82,1.19,5.69,0.02,8.51
	c-1.16,2.8-3.31,4.44-6.27,5.05C79.63,34.99,78.69,35.06,77.75,35.01z M84.71,25.62c0-0.86-0.11-1.71-0.37-2.53
	c-0.63-1.93-1.81-3.36-3.76-4.07c-1.18-0.43-2.4-0.5-3.63-0.28c-1.98,0.34-3.5,1.36-4.36,3.19c-1.09,2.33-1.1,4.7,0,7.04
	c0.78,1.65,2.1,2.71,3.89,3.14c1.3,0.31,2.6,0.29,3.89-0.07c1.83-0.51,3.08-1.67,3.79-3.42C84.55,27.65,84.7,26.64,84.71,25.62z"/>
<path class="st1" d="M149.38,25.54c-0.01,1.74-0.35,3.4-1.17,4.94c-1.15,2.15-2.92,3.53-5.27,4.16c-1.93,0.51-3.88,0.53-5.81,0.02
	c-2.72-0.72-4.65-2.38-5.71-4.97c-1.17-2.86-1.15-5.75,0.13-8.57c1.22-2.67,3.35-4.3,6.2-4.95c1.81-0.41,3.62-0.35,5.4,0.2
	c2.88,0.89,4.73,2.84,5.69,5.67C149.22,23.18,149.37,24.35,149.38,25.54z M146.45,25.62c0.01-0.93-0.13-1.84-0.44-2.73
	c-0.62-1.77-1.73-3.1-3.5-3.81c-1.23-0.49-2.52-0.59-3.83-0.36c-1.98,0.34-3.5,1.36-4.36,3.19c-1.11,2.35-1.1,4.73,0.01,7.07
	c0.7,1.48,1.86,2.49,3.43,2.98c1.45,0.45,2.91,0.45,4.37,0.04c1.76-0.49,2.99-1.61,3.71-3.29
	C146.27,27.74,146.44,26.69,146.45,25.62z"/>
<path class="st1" d="M65.85,18.61c-0.48,0.5-0.95,0.98-1.42,1.46c-0.13,0.14-0.26,0.35-0.42,0.38c-0.17,0.03-0.3-0.2-0.45-0.32
	c-2.29-1.86-5.72-2.11-8.19-0.59c-1.52,0.94-2.42,2.33-2.83,4.03c-0.44,1.82-0.35,3.62,0.49,5.33c0.79,1.59,2.08,2.59,3.78,3.04
	c1.45,0.39,2.92,0.42,4.37-0.02c0.79-0.24,1.49-0.65,2.14-1.15c0.14-0.11,0.2-0.23,0.2-0.42c-0.01-1.04,0-2.07,0-3.11
	c0-0.31-0.01-0.32-0.32-0.32c-1.41,0-2.82,0-4.23,0c-0.1,0-0.19-0.01-0.29,0c-0.18,0.01-0.28-0.04-0.28-0.25
	c0.01-0.79,0-1.57,0-2.35c0.15-0.08,0.29-0.06,0.43-0.06c2.33,0,4.67,0,7,0c0.07,0,0.14,0.01,0.21,0c0.15-0.01,0.24,0.04,0.22,0.21
	c-0.01,0.08,0,0.17,0,0.25c0,2.22-0.01,4.45,0.01,6.67c0,0.3-0.1,0.51-0.3,0.72c-1.42,1.46-3.11,2.43-5.13,2.74
	c-2.31,0.34-4.58,0.15-6.71-0.88c-2.17-1.05-3.58-2.79-4.26-5.09c-0.77-2.59-0.67-5.16,0.41-7.65c1.2-2.76,3.31-4.47,6.24-5.13
	c2.21-0.5,4.39-0.37,6.48,0.57C64.06,17.13,65,17.77,65.85,18.61z"/>
<path class="st1" d="M127.07,20.64c-0.56-0.52-1.14-0.96-1.83-1.24c-2.53-1.04-4.97-0.9-7.22,0.73c-1.2,0.87-1.88,2.11-2.23,3.54
	c-0.39,1.63-0.29,3.24,0.35,4.79c0.74,1.78,2.05,2.95,3.91,3.47c2.24,0.62,4.35,0.33,6.29-0.99c0.25-0.17,0.49-0.36,0.7-0.58
	c0.1-0.1,0.17-0.11,0.27-0.01c0.62,0.63,1.25,1.25,1.87,1.87c-0.03,0.15-0.14,0.22-0.23,0.3c-1.49,1.35-3.23,2.14-5.23,2.38
	c-1.89,0.23-3.75,0.08-5.54-0.62c-2.67-1.05-4.37-3-5.13-5.73c-0.8-2.86-0.55-5.64,0.96-8.24c1.26-2.15,3.16-3.48,5.57-4.05
	c1.88-0.44,3.78-0.45,5.64,0.14c1.38,0.44,2.58,1.17,3.63,2.16c0.09,0.08,0.21,0.16,0.06,0.3C128.32,19.45,127.7,20.04,127.07,20.64
	z"/>
<path class="st1" d="M97.56,31.06c0.18-0.19,0.21-0.4,0.29-0.59c1.82-4.61,3.63-9.21,5.44-13.82c0.18-0.46,0.16-0.38,0.56-0.38
	c0.94,0,1.88,0,2.82,0c0.07,0.17-0.04,0.28-0.09,0.4c-2.21,5.36-4.42,10.71-6.62,16.07c-0.24,0.59-0.49,1.17-0.72,1.76
	c-0.07,0.17-0.15,0.23-0.34,0.23c-0.86-0.01-1.71-0.01-2.57,0c-0.22,0-0.31-0.09-0.39-0.28c-0.47-1.16-0.96-2.32-1.44-3.48
	c-1.97-4.75-3.94-9.51-5.9-14.26c-0.05-0.12-0.12-0.24-0.13-0.38c0.15-0.08,0.29-0.05,0.42-0.05c0.81,0,1.63,0,2.44,0
	c0.46,0,0.4-0.04,0.56,0.38c1.32,3.36,2.64,6.73,3.96,10.09c0.51,1.3,1.02,2.59,1.52,3.89C97.44,30.76,97.49,30.89,97.56,31.06z"/>
<path class="st2" d="M40.74,14.83c0,2.07,0,4.14,0,6.21c0,0.1-0.01,0.19,0,0.29c0.01,0.16-0.07,0.21-0.22,0.21
	c-0.79,0-1.57,0-2.36,0c-0.15,0-0.23-0.05-0.22-0.22c0.01-0.1,0-0.19,0-0.29c0-4.17,0-8.34,0-12.5c0-0.06,0-0.11,0-0.17
	c0.01-0.31,0.01-0.31,0.32-0.31c0.69,0,1.38,0,2.07,0c0.46,0,0.41,0,0.41,0.44c0,1.49,0,2.98,0,4.47
	C40.74,13.59,40.74,14.21,40.74,14.83z"/>
<path class="st3" d="M37.93,36.84c0-1.52,0-3.04,0-4.56c0-0.1,0.01-0.19,0-0.29c-0.01-0.16,0.07-0.23,0.22-0.23c0.8,0,1.6,0,2.4,0
	c0.14,0,0.2,0.07,0.2,0.2c0,0.08,0,0.17,0,0.25c0,3.09,0,6.19,0,9.28c0,0.01,0,0.03,0,0.04c0,0.44,0.02,0.4-0.4,0.4
	c-0.69,0-1.38,0-2.07,0c-0.34,0-0.34-0.01-0.34-0.34C37.93,40.01,37.93,38.42,37.93,36.84z"/>
<path class="st1" d="M110.39,33.16c0.02,0.82-0.47,1.69-1.68,1.69c-1.16,0-1.67-0.85-1.66-1.67c0.01-0.99,0.67-1.66,1.66-1.66
	C109.7,31.52,110.38,32.18,110.39,33.16z"/>
<path class="st4" d="M19.05,34.76c-0.03-0.06-0.07-0.12-0.02-0.17c0.04-0.04,0.09,0.02,0.12,0.06
	C19.12,34.69,19.09,34.73,19.05,34.76z"/>
<path class="st1" d="M18.05,28.53c0.04,0.38,0.02,0.41-0.43,0.95c-0.16-0.14-0.24-0.33-0.36-0.5c-0.09-0.12-0.06-0.24-0.02-0.35
	c0.07-0.18,0.01-0.26-0.18-0.32c-0.42-0.14-0.41-0.16-0.29-0.6c0.03-0.11,0.06-0.21,0.09-0.32c0.02-0.07,0-0.12-0.05-0.18
	c-0.21-0.22-0.19-0.47,0.06-0.62c0.31-0.18,0.61-0.37,0.97-0.44c0.35-0.06,0.47,0.01,0.6,0.34c0.18,0.5,0.26,1.01,0.3,1.54
	c0.02,0.23,0.04,0.43,0.26,0.56c0.06,0.03,0.12,0.08,0.09,0.17c-0.03,0.09-0.1,0.13-0.19,0.14c-0.21,0.02-0.42,0.02-0.53-0.22
	C18.33,28.54,18.22,28.5,18.05,28.53z"/>
<path class="st1" d="M18.65,24.19c0.02-0.33,0.09-0.61,0.3-0.83c0.27-0.29,0.6-0.41,0.97-0.26c0.21,0.09,0.4,0.03,0.6,0.03
	c0.09,0,0.21-0.06,0.23-0.15c0.05-0.29,0.32-0.4,0.47-0.61c0.16-0.22,0.47-0.21,0.66-0.03c0.09,0.08,0.17,0.19,0.1,0.29
	c-0.11,0.18-0.02,0.31,0.04,0.46c0.06,0.13,0.1,0.3,0.02,0.4c-0.25,0.31-0.08,0.81-0.44,1.03c-0.31,0.18-0.64,0.33-0.92,0.57
	c-0.07,0.06-0.21,0.05-0.32,0.05c-0.09,0.01-0.19-0.01-0.28,0.04C19.38,25.55,18.67,25.01,18.65,24.19z"/>
<path class="st1" d="M16.54,24.14c0.01,0.9-0.59,1.32-1.4,1.03c-0.08-0.03-0.16-0.04-0.24-0.04c-0.28,0.02-0.52-0.07-0.69-0.3
	c-0.08-0.11-0.18-0.15-0.31-0.17c-0.32-0.06-0.5-0.27-0.53-0.6c-0.01-0.15-0.03-0.29-0.13-0.42c-0.09-0.12-0.13-0.28-0.07-0.43
	c0.07-0.22,0.13-0.42,0.11-0.67c-0.03-0.27,0.34-0.43,0.58-0.26c0.2,0.14,0.38,0.31,0.51,0.51c0.24,0.35,0.47,0.47,0.88,0.32
	c0.45-0.17,1.01,0,1.25,0.63C16.56,23.88,16.58,24.03,16.54,24.14z"/>
<path class="st1" d="M18.29,23.3c0.11-0.05,0.22-0.11,0.39-0.19c-0.09,0.48-0.22,0.89-0.64,1.11c-0.16,0.09-0.22,0.18-0.2,0.35
	c0.01,0.14,0.01,0.28,0,0.41c0,0.09,0.02,0.23-0.12,0.21c-0.11-0.01-0.21-0.08-0.2-0.22c0-0.1,0.01-0.19,0.02-0.29
	c0.01-0.15-0.04-0.21-0.2-0.25c-0.5-0.11-0.69-0.49-0.79-0.99c0.42,0.1,0.66,0.38,0.96,0.66c-0.01-0.33-0.08-0.55-0.38-0.69
	c-0.62-0.29-0.73-1.02-0.25-1.51c0.02-0.02,0.04-0.03,0.06-0.05c0.24-0.26,0.29-0.25,0.67-0.29c0.15-0.02,0.26-0.1,0.36,0.08
	c0.05,0.09,0.18-0.03,0.26,0.04c0,0.11-0.1,0.21,0,0.35c0.3,0.4,0.23,0.8-0.02,1.19c-0.12,0.08-0.23,0.19-0.38,0.23
	c-0.17,0.04-0.17,0.15-0.12,0.28c0.03,0.06,0.02,0.15,0.13,0.19C17.94,23.67,18.11,23.49,18.29,23.3z M17.15,22.61
	c0.02,0.25,0.03,0.5,0.18,0.71c0.14,0.19,0.28,0.19,0.42,0c0.23-0.32,0.23-1.1,0-1.42c-0.14-0.19-0.29-0.19-0.43,0
	C17.18,22.12,17.17,22.37,17.15,22.61z"/>
<path class="st1" d="M16.29,31.25c0.31-0.01,0.58-0.13,0.83,0.11c0.1,0.09,0.23,0.06,0.36,0.06c0.43,0,0.87,0,1.32,0
	c-0.14,0.41-0.14,0.41-0.47,0.41c-0.45,0-0.91-0.01-1.36,0c-0.17,0-0.31-0.02-0.35-0.21C16.58,31.45,16.37,31.46,16.29,31.25z"/>
<path class="st1" d="M17.2,33.39c0-0.21-0.01-0.41-0.01-0.62c0-0.13,0.07-0.2,0.21-0.19c0.3,0,0.6,0,0.92,0
	c-0.03,0.28-0.07,0.53,0.01,0.79C17.93,33.4,17.56,33.4,17.2,33.39L17.2,33.39z"/>
<path class="st1" d="M18.33,30.64c-0.05,0.22-0.04,0.38-0.01,0.59c-0.32,0-0.61-0.01-0.91,0c-0.23,0.01-0.23-0.14-0.23-0.3
	c0-0.17,0.01-0.3,0.24-0.3C17.7,30.65,17.99,30.64,18.33,30.64z"/>
<path class="st1" d="M17.19,33.38c-0.09,0.08-0.05,0.17,0.04,0.17c0.42,0.02,0.85,0.01,1.27,0.01c0.09,0,0.09-0.09,0.14-0.14
	c0.07-0.06,0.16-0.08,0.22,0c0.05,0.07,0.02,0.16-0.05,0.22c-0.11,0.08-0.23,0.15-0.37,0.15c-0.4,0-0.8,0.01-1.19,0
	c-0.24-0.01-0.43-0.11-0.52-0.35C16.88,33.27,17.05,33.49,17.19,33.38C17.2,33.39,17.19,33.38,17.19,33.38z"/>
</svg>
