<?xml version="1.0" encoding="utf-8"?>
<!-- Generator: Adobe Illustrator 23.0.1, SVG Export Plug-In . SVG Version: 6.00 Build 0)  -->
<svg version="1.1" id="Layer_1" xmlns="http://www.w3.org/2000/svg" xmlns:xlink="http://www.w3.org/1999/xlink" x="0px" y="0px"
	 viewBox="0 0 132 132" style="enable-background:new 0 0 132 132;" xml:space="preserve">
<style type="text/css">
	.st0{fill:#7797FA;}
	.st1{fill:#FFFFFF;}
</style>
<rect x="-0.01" y="0.88" class="st0" width="131.6" height="131.6"/>
<path class="st1" d="M91.68,80.88c0,6.49-5.26,11.75-11.76,11.75H51.57c-6.49,0-11.76-5.26-11.76-11.75V52.53
	c0-6.5,5.27-11.76,11.76-11.76h28.35c6.5,0,11.76,5.26,11.76,11.76V80.88z"/>
<path class="st0" d="M81.75,47.45c-1.98,0-3.59,1.61-3.59,3.6c0,1.98,1.61,3.58,3.59,3.58c1.98,0,3.59-1.6,3.59-3.58
	C85.35,49.06,83.73,47.45,81.75,47.45"/>
<path class="st0" d="M58.41,56.31c5.7-4.11,13.66-2.82,17.78,2.89c4.11,5.71,2.82,13.67-2.89,17.78
	c-5.71,4.12-13.67,2.83-17.78-2.88C51.41,68.39,52.7,60.43,58.41,56.31"/>
</svg>
