<?xml version="1.0" encoding="utf-8"?>
<!-- Generator: Adobe Illustrator 23.0.1, SVG Export Plug-In . SVG Version: 6.00 Build 0)  -->
<svg version="1.1" id="Layer_1" xmlns="http://www.w3.org/2000/svg" xmlns:xlink="http://www.w3.org/1999/xlink" x="0px" y="0px"
	 viewBox="0 0 300 300.35" style="enable-background:new 0 0 300 300.35;" xml:space="preserve">
<style type="text/css">
	.st0{fill:#0070BA;}
	.st1{fill:#E3124D;}
	.st2{fill:#FFC20A;}
	.st3{fill:#70B03D;}
	.st4{fill:#9C146E;}
	.st5{fill:#FFFFFF;}
</style>
<rect x="97.65" y="11.92" class="st0" width="201.8" height="161.54"/>
<rect x="0.84" y="95.48" class="st1" width="117.41" height="195.13"/>
<path class="st2" d="M189.05,95.48c0,51.97-42.13,94.1-94.1,94.1c-51.97,0-94.1-42.13-94.1-94.1s42.13-94.1,94.1-94.1
	C146.91,1.38,189.05,43.51,189.05,95.48"/>
<path class="st3" d="M299.45,173.46c0,69.89-56.66,126.54-126.54,126.54c-69.89,0-126.54-56.65-126.54-126.54
	c0-69.89,56.66-126.54,126.54-126.54C242.8,46.91,299.45,103.57,299.45,173.46"/>
<path class="st4" d="M201.57,207.29c0,46.01-37.3,83.32-83.32,83.32c-46.02,0-83.32-37.3-83.32-83.32
	c0-46.02,37.3-83.32,83.32-83.32C164.27,123.97,201.57,161.28,201.57,207.29"/>
<path class="st5" d="M138.31,181.69c-10.4,6.8-23.72,10.75-39.9,10.75h0c-45.2,0.6-67.03-29.36-67.03-65.57
	c0-36.21,26.2-65.57,67.03-65.57h0c16.2,0,30.1,4.63,40.97,12.47c0.53,0.55,1.34,2.28-0.34,7.37l-8.95,28.08c0,0-1.77,5.5-6.09,2.55
	c-4.32-2.95-12.17-9.43-23.18-9.43c-11,0-23.56,9.03-23.56,26.32c0,17.28,18.85,23.37,24.94,23.37c6.09,0,14.73-2.16,20.23-7.66
	c0,0,3.93-4.52,6.28-0.59l10.21,29.65C138.93,173.44,142.01,179.42,138.31,181.69 M202.93,151.85c-12.27,0-22.22-10.81-22.22-24.14
	c0-13.33,9.95-24.14,22.22-24.14c12.27,0,22.22,10.81,22.22,24.14C225.14,141.04,215.2,151.85,202.93,151.85 M202.93,62.24
	L202.93,62.24L202.93,62.24c-40.45,0-66.42,28.88-66.42,64.51c0,35.62,22.74,64.5,66.42,64.5h0c43.67,0,66.42-28.88,66.42-64.5
	C269.34,91.12,243.38,62.24,202.93,62.24"/>
<path class="st5" d="M251.19,228.21l2.02-9.04l2.02,9.04H251.19z M269.18,239.45l-9.56-29.84c-0.11-0.33-0.48-0.61-0.83-0.61h-0.07
	h-1.28h-8.45h-1.28h-0.07c-0.35,0-0.73,0.28-0.83,0.61l-9.56,29.84c-0.11,0.34,0.09,0.61,0.44,0.61h9.8c0.35,0,0.73-0.27,0.83-0.61
	l0.96-3c0.11-0.33,0.48-0.61,0.84-0.61h6.19c0.35,0,0.73,0.27,0.83,0.61l0.96,3c0.11,0.34,0.48,0.61,0.83,0.61h9.8
	C269.09,240.06,269.29,239.79,269.18,239.45 M234.09,209.64v29.78c0,0.35-0.29,0.64-0.64,0.64h-9.8c-0.35,0-0.64-0.29-0.64-0.64
	v-29.78c0-0.35,0.29-0.64,0.64-0.64h9.8C233.8,209,234.09,209.29,234.09,209.64 M206.98,232.22c-0.02,0-0.04-0.01-0.07-0.01v0.01
	h-2.26v-5h2.26v0.01c0.03,0,0.05-0.01,0.07-0.01c1.38,0,2.5,1.12,2.5,2.5C209.48,231.1,208.36,232.22,206.98,232.22 M204.65,216.47
	h1.96v0.01c0.02,0,0.04-0.01,0.06-0.01c1.2,0,2.17,0.97,2.17,2.17c0,1.2-0.97,2.17-2.17,2.17c-0.02,0-0.04-0.01-0.06-0.01v0.01
	h-1.96V216.47z M215.29,223.57c2.03-1.46,3.35-3.84,3.35-6.52c0-4.17-3.18-7.6-7.24-8V209h-17.25v31.06h17.25v0
	c4.78-0.06,8.63-3.94,8.63-8.73C220.03,227.95,218.1,225.02,215.29,223.57 M186.73,209.21l4.53,30.22c0.05,0.35-0.19,0.63-0.55,0.63
	h-9.34c-0.35,0-0.67-0.28-0.71-0.63l-1.56-14.3c-0.04-0.35-0.15-0.36-0.25-0.02l-4.21,14.34c-0.1,0.34-0.47,0.61-0.82,0.61h-2.02
	h-1.28h-2.02c-0.35,0-0.72-0.28-0.82-0.61l-4.21-14.34c-0.1-0.34-0.21-0.33-0.25,0.02l-1.56,14.3c-0.04,0.35-0.36,0.63-0.71,0.63
	h-9.34c-0.35,0-0.59-0.28-0.54-0.63l4.53-30.22c0.05-0.35,0.38-0.63,0.73-0.63h3.59h1.28h3.19h1.28h0.84c0.35,0,0.71,0.28,0.79,0.62
	l3.7,15.15c0.08,0.34,0.22,0.34,0.3,0l3.7-15.15c0.08-0.34,0.44-0.62,0.79-0.62h0.84h1.28h3.19h1.28h3.59
	C186.34,208.58,186.67,208.86,186.73,209.21 M113.96,230.59v8.84c0,0.35-0.29,0.64-0.64,0.64h-7.82h-1.28h-2.21h-1.28h-6.01
	c-0.35,0-0.64-0.29-0.64-0.64v-30.21c0-0.35,0.29-0.64,0.64-0.64h9.5c0.35,0,0.64,0.29,0.64,0.64v20.09c0,0.35,0.29,0.64,0.64,0.64
	h7.82C113.68,229.95,113.96,230.23,113.96,230.59 M57.33,235.72c0,0,0.75,1.46-0.15,2.01c-2.54,1.66-5.79,2.62-9.74,2.62
	c-11.03,0.15-16.36-7.16-16.36-16c0-8.84,6.39-16,16.36-16c3.95,0,7.35,1.13,10,3.04c0.13,0.13,0.33,0.55-0.08,1.8l-2.18,6.85
	c0,0-0.43,1.34-1.49,0.62c-1.05-0.72-2.97-2.3-5.66-2.3c-2.68,0-5.75,2.2-5.75,6.42c0,4.22,4.6,5.7,6.09,5.7
	c1.49,0,3.59-0.52,4.94-1.87c0,0,0.96-1.1,1.54-0.14L57.33,235.72z M133.04,230.45c-2.99,0-5.42-2.64-5.42-5.89
	c0-3.26,2.43-5.89,5.42-5.89c3,0,5.42,2.64,5.42,5.89C138.46,227.81,136.03,230.45,133.04,230.45 M133.04,208.58L133.04,208.58
	c-9.87,0-16.21,7.05-16.21,15.75c0,8.69,5.55,15.74,16.21,15.74h0c10.66,0,16.21-7.05,16.21-15.74
	C149.25,215.62,142.91,208.58,133.04,208.58 M75.51,230.45c-3,0-5.42-2.64-5.42-5.89c0-3.26,2.43-5.89,5.42-5.89
	c3,0,5.42,2.64,5.42,5.89C80.93,227.81,78.5,230.45,75.51,230.45 M75.51,208.58L75.51,208.58c-9.87,0-16.21,7.05-16.21,15.75
	c0,8.69,5.55,15.74,16.21,15.74c10.66,0,16.21-7.05,16.21-15.74C91.72,215.62,85.38,208.58,75.51,208.58"/>
</svg>
