<?xml version="1.0" encoding="utf-8"?>
<!-- Generator: Adobe Illustrator 23.0.1, SVG Export Plug-In . SVG Version: 6.00 Build 0)  -->
<svg version="1.1" id="Layer_1" xmlns="http://www.w3.org/2000/svg" xmlns:xlink="http://www.w3.org/1999/xlink" x="0px" y="0px"
	 viewBox="0 0 78.7 29.5" style="enable-background:new 0 0 78.7 29.5;" xml:space="preserve">
<style type="text/css">
	.st0{fill:none;}
	.st1{fill:#FFFFFF;}
	.st2{fill:#FFFFFF;stroke:#FFFFFF;stroke-width:7.459940e-02;stroke-miterlimit:10;}
</style>
<path class="st0" d="M-18.4,1110.4"/>
<path class="st0" d="M-18.4,1110.4"/>
<path class="st0" d="M-18.4,1110.4"/>
<path class="st0" d="M-18.4,1110.4"/>
<path class="st0" d="M-18.4,1110.4"/>
<path class="st0" d="M-18.4,1110.4"/>
<path class="st0" d="M-18.4,1110.4"/>
<path class="st0" d="M-18.4,1110.4"/>
<path class="st0" d="M-18.4,1110.4"/>
<path class="st0" d="M-18.4,1110.4"/>
<path class="st0" d="M-18.4,1110.4"/>
<path class="st0" d="M-18.4,1110.4"/>
<path class="st0" d="M-18.4,1110.4"/>
<path class="st0" d="M-18.4,1110.4"/>
<path class="st0" d="M-18.4,1110.4"/>
<path class="st0" d="M-18.4,1110.4"/>
<path class="st0" d="M-18.4,1110.4"/>
<path class="st0" d="M-18.4,1110.4"/>
<path class="st0" d="M-18.4,1110.4"/>
<path class="st0" d="M-18.4,1110.4"/>
<path class="st0" d="M-18.4,1110.4"/>
<path class="st0" d="M-18.4,1110.4"/>
<path class="st0" d="M-18.4,1110.4"/>
<path class="st0" d="M-18.4,1110.4"/>
<path class="st0" d="M-18.4,1110.4"/>
<path class="st0" d="M-18.4,1110.4"/>
<path class="st0" d="M-18.4,1110.4"/>
<path class="st0" d="M-18.4,1110.4"/>
<path class="st0" d="M-18.4,1110.4"/>
<path class="st0" d="M-18.4,1110.4"/>
<path class="st0" d="M-18.4,1110.4"/>
<path class="st0" d="M-18.4,1110.4"/>
<path class="st0" d="M-18.4,1110.4"/>
<path class="st0" d="M-18.4,1110.4"/>
<path class="st0" d="M-18.4,1110.4"/>
<path class="st0" d="M-18.4,1110.4"/>
<path class="st0" d="M-18.4,1110.4"/>
<path class="st0" d="M-18.4,1110.4"/>
<path class="st0" d="M-18.4,1110.4"/>
<path class="st0" d="M-18.4,1110.4"/>
<path class="st0" d="M-18.4,1110.4"/>
<path class="st0" d="M-18.4,1110.4"/>
<path class="st0" d="M-18.4,1110.4"/>
<path class="st0" d="M-18.4,1110.4"/>
<path class="st0" d="M-18.4,1110.4"/>
<path class="st0" d="M-18.4,1110.4"/>
<path class="st0" d="M-18.4,1110.4"/>
<path class="st0" d="M-18.4,1110.4"/>
<path class="st0" d="M-18.4,1110.4"/>
<path class="st0" d="M-18.4,1110.4"/>
<path class="st0" d="M-18.4,1110.4"/>
<path class="st0" d="M-18.4,1110.4"/>
<path class="st0" d="M-18.4,1110.4"/>
<path class="st0" d="M-18.4,1110.4"/>
<path class="st0" d="M-18.4,1110.4"/>
<path class="st0" d="M-18.4,1110.4"/>
<path class="st0" d="M-18.4,1110.4"/>
<path class="st0" d="M-18.4,1110.4"/>
<path class="st0" d="M-18.4,1110.4"/>
<path class="st0" d="M-18.4,1110.4"/>
<path class="st0" d="M-18.4,1110.4"/>
<path class="st0" d="M-18.4,1110.4"/>
<path class="st0" d="M-18.4,1110.4"/>
<path class="st0" d="M-18.4,1110.4"/>
<path class="st0" d="M-18.4,1110.4"/>
<path class="st0" d="M-18.4,1110.4"/>
<path class="st0" d="M-18.4,1110.4"/>
<path class="st0" d="M-18.4,1110.4"/>
<path class="st0" d="M-18.4,1110.4"/>
<path class="st0" d="M-18.4,1110.4"/>
<path class="st0" d="M-18.4,1110.4"/>
<path class="st0" d="M-18.4,1110.4"/>
<path class="st0" d="M-18.4,1110.4"/>
<path class="st0" d="M-18.4,1110.4"/>
<path class="st0" d="M-18.4,1110.4"/>
<path class="st0" d="M-17.9,1110.4"/>
<path class="st0" d="M-17.9,1110.4"/>
<path class="st0" d="M-17.9,1110.4"/>
<path class="st0" d="M-17.9,1110.4"/>
<path class="st0" d="M-17.9,1110.4"/>
<path class="st0" d="M-17.9,1110.4"/>
<path class="st0" d="M-17.9,1110.4"/>
<path class="st0" d="M-17.9,1110.4"/>
<path class="st0" d="M-17.9,1110.4"/>
<path class="st0" d="M-17.9,1110.4"/>
<path class="st0" d="M-17.9,1110.4"/>
<path class="st0" d="M-17.9,1110.4"/>
<path class="st0" d="M-17.9,1110.4"/>
<path class="st0" d="M-17.9,1110.4"/>
<path class="st0" d="M-17.9,1110.4"/>
<path class="st0" d="M-17.9,1110.4"/>
<path class="st0" d="M-17.9,1110.4"/>
<path class="st0" d="M-17.9,1110.4"/>
<path class="st0" d="M-17.9,1110.4"/>
<path class="st0" d="M-17.9,1110.4"/>
<path class="st0" d="M-17.9,1110.4"/>
<path class="st0" d="M-17.9,1110.4"/>
<path class="st0" d="M-17.9,1110.4"/>
<path class="st0" d="M-17.9,1110.4"/>
<path class="st0" d="M-17.9,1110.4"/>
<path class="st0" d="M-17.9,1110.4"/>
<path class="st0" d="M-17.9,1110.4"/>
<path class="st0" d="M-17.9,1110.4"/>
<path class="st0" d="M-17.9,1110.4"/>
<path class="st0" d="M-17.9,1110.4"/>
<path class="st0" d="M-17.9,1110.4"/>
<path class="st0" d="M-17.9,1110.4"/>
<path class="st0" d="M-17.9,1110.4"/>
<path class="st0" d="M-17.9,1110.4"/>
<path class="st0" d="M-17.9,1110.4"/>
<path class="st0" d="M-17.9,1110.4"/>
<path class="st0" d="M-17.9,1110.4"/>
<path class="st0" d="M-17.9,1110.4"/>
<path class="st0" d="M-17.9,1110.4"/>
<path class="st0" d="M-17.9,1110.4"/>
<path class="st0" d="M-17.9,1110.4"/>
<path class="st0" d="M-17.9,1110.4"/>
<path class="st0" d="M-17.9,1110.4"/>
<path class="st0" d="M-17.9,1110.4"/>
<path class="st0" d="M-17.9,1110.4"/>
<path class="st0" d="M-17.9,1110.4"/>
<path class="st0" d="M-17.9,1110.4"/>
<path class="st0" d="M-17.9,1110.4"/>
<path class="st0" d="M-17.9,1110.4"/>
<path class="st0" d="M-17.9,1110.4"/>
<path class="st0" d="M-17.9,1110.4"/>
<path class="st0" d="M-17.9,1110.4"/>
<path class="st0" d="M-17.9,1110.4"/>
<path class="st0" d="M-17.9,1110.4"/>
<path class="st0" d="M-17.9,1110.4"/>
<path class="st0" d="M-17.9,1110.4"/>
<path class="st0" d="M-17.9,1110.4"/>
<path class="st0" d="M-17.9,1110.4"/>
<path class="st0" d="M-17.9,1110.4"/>
<path class="st0" d="M-17.9,1110.4"/>
<path class="st0" d="M-17.9,1110.4"/>
<path class="st0" d="M-17.9,1110.4"/>
<path class="st0" d="M-17.9,1110.4"/>
<path class="st0" d="M-17.9,1110.4"/>
<path class="st0" d="M-17.9,1110.4"/>
<path class="st0" d="M-17.9,1110.4"/>
<path class="st0" d="M-17.9,1110.4"/>
<path class="st0" d="M-17.9,1110.4"/>
<path class="st0" d="M-17.9,1110.4"/>
<path class="st0" d="M-17.9,1110.4"/>
<path class="st0" d="M-17.9,1110.4"/>
<path class="st0" d="M-17.9,1110.4"/>
<path class="st0" d="M-17.9,1110.4"/>
<path class="st0" d="M-17.9,1110.4"/>
<g>
	<g>
		<g>
			<g>
				<g>
					<path class="st1" d="M2.3,14.2c0.1,0,0.1,0,0.2,0c0.1-1,0.1-1.9,0.2-2.8c0.6-3.3,2.1-6,5-7.8c1.8-1.1,3.7-1.8,5.8-1.5
						c0.8,0.1,1.6-0.1,2.4,0c3,0.6,5.5,2.1,7.1,4.8c0.3,0.6,0.6,1.2,0.9,1.8c0-0.2,0-0.4-0.1-0.6c-1.4-3.5-4.1-5.3-7.6-6.2
						c-0.4-0.1-0.7-0.4-1-0.3c-0.5,0.1-0.9,0.1-1.4-0.1c-0.1,0-0.2,0-0.3,0c-0.4,0.1-0.7,0.3-1.1,0.3c-1.9,0.2-3.7,0.8-5.3,2
						c-2.7,2-4.1,4.7-4.6,8C2.3,12.5,2.3,13.3,2.3,14.2z M2.7,15.7c0.5,3.9,4,9.3,11.9,9.5c0-0.1,0-0.2,0-0.3c0,0-0.1,0-0.2-0.1
						c-0.4-0.3-0.9,0-1.3-0.1c-4.6-0.4-8.6-3.5-10-7.9C2.9,16.6,2.8,16.2,2.7,15.7z M24.2,10.1c-0.1,0.8-0.1,1.5-0.2,2.2
						c-0.5,3.4-2.1,5.9-5.6,6.9c-0.8,0.2-1.7,0.4-2.5,0.4c-0.4,0-0.9-0.3-1.2,0.2c0.4,0.4,0.7,0.2,1.2,0.1c0.7-0.2,1.4-0.2,2.1-0.3
						C22.1,18.7,25,14.3,24.2,10.1z"/>
					<path class="st1" d="M14.6,25.3L14.6,25.3C11,25.2,8,24,5.8,21.9c-1.7-1.7-2.9-3.9-3.2-6.2h0.1c0,0.1,0.1,0.3,0.1,0.4
						C2.9,16.4,3,16.7,3.1,17c1.4,4.4,5.3,7.5,9.9,7.9c0.1,0,0.3,0,0.4,0c0.3-0.1,0.6-0.1,0.9,0.1c0,0,0,0,0.1,0c0,0,0.1,0,0.1,0.1
						s0,0.1,0,0.2C14.6,25.2,14.6,25.3,14.6,25.3L14.6,25.3z M3,16.9c0.5,1.8,1.5,3.6,2.9,5C8,24,11,25.2,14.5,25.3l0,0
						c0-0.1,0-0.1,0-0.1l0,0h-0.1c-0.3-0.2-0.5-0.2-0.8-0.1C13.4,25,13.2,25,13,25c-4.6-0.4-8.5-3.5-10-8V16.9z M15.2,20.2
						c-0.2,0-0.4-0.1-0.6-0.2l0,0l0,0c0.3-0.4,0.6-0.3,0.9-0.2c0.1,0,0.3,0.1,0.4,0c0.8,0,1.6-0.2,2.5-0.4c3.2-1,5-3.2,5.5-6.9
						C24,12,24,11.6,24,11.1c0-0.2,0-0.5,0.1-0.8V9.9l0.1,0.4c0.4,2-0.1,4.2-1.3,6c-1.2,1.8-3,3.1-5,3.6C17.6,20,17.3,20,17,20
						c-0.4,0-0.8,0.1-1.1,0.2h-0.1C15.6,20.1,15.4,20.2,15.2,20.2z M14.8,19.9c0.3,0.3,0.6,0.2,1,0.1h0.1c0.4-0.1,0.8-0.2,1.1-0.2
						s0.6-0.1,0.9-0.1c2-0.5,3.8-1.7,4.9-3.5c1.1-1.7,1.6-3.6,1.3-5.5c0,0.1,0,0.2,0,0.3c0,0.5-0.1,1-0.1,1.4c-0.6,3.7-2.4,6-5.6,7
						c-0.8,0.3-1.7,0.4-2.5,0.4c-0.1,0-0.3,0-0.4,0C15.3,19.7,15,19.6,14.8,19.9z M2.5,14.2H2.2v-0.1c0-0.3,0-0.5,0-0.8
						c0-0.6,0-1.2,0.1-1.7c0.5-3.5,2.1-6.1,4.6-8c1.5-1.1,3.3-1.8,5.3-2c0.2,0,0.5-0.1,0.7-0.2c0.1,0,0.3-0.1,0.4-0.1
						c0.1,0,0.2,0,0.3,0c0.4,0.2,0.8,0.2,1.3,0.1c0.2,0,0.4,0.1,0.7,0.2c0.1,0.1,0.3,0.1,0.4,0.2c4,0.9,6.5,2.9,7.8,6.2
						c0.1,0.2,0.1,0.4,0.1,0.6v0.2l-0.1-0.2c-0.1-0.2-0.2-0.4-0.3-0.6c-0.2-0.4-0.4-0.8-0.6-1.2c-1.5-2.5-3.9-4.1-7-4.7
						c-0.4-0.1-0.8,0-1.2,0s-0.8,0-1.1,0C11.7,1.8,10,2.3,7.8,3.6c-2.7,1.7-4.4,4.3-5,7.8c-0.1,0.6-0.1,1.3-0.2,1.9
						C2.5,13.6,2.5,13.9,2.5,14.2L2.5,14.2z M2.3,14.1L2.3,14.1c0.1-0.3,0.1-0.6,0.1-0.8c0-0.6,0.1-1.3,0.2-2c0.6-3.5,2.3-6.2,5-7.9
						c2.2-1.3,4-1.8,5.9-1.5c0.4,0.1,0.7,0,1.1,0c0.4,0,0.8-0.1,1.2,0c3.2,0.6,5.6,2.2,7.1,4.8c0.2,0.4,0.4,0.8,0.6,1.2
						c0.1,0.1,0.1,0.3,0.2,0.4c0-0.1,0-0.2-0.1-0.4c-1.3-3.3-3.8-5.3-7.6-6.1c-0.1,0-0.3-0.1-0.4-0.2c-0.2-0.1-0.4-0.2-0.6-0.2
						c-0.5,0.1-1,0.1-1.4-0.1c-0.1,0-0.2,0-0.3,0S13,1.4,12.9,1.4c-0.2,0.1-0.5,0.2-0.7,0.2c-2,0.2-3.7,0.9-5.2,2
						c-2.5,2-4,4.6-4.5,8c-0.1,0.6-0.1,1.2-0.1,1.7C2.3,13.6,2.3,13.9,2.3,14.1z"/>
				</g>
				<g>
					<g>
						<path class="st1" d="M70.7,23.2c1.3-0.9,2.5-2,3.4-3.3c0.5-0.6,0.8-1.3,1.1-2.1c0.3-0.7,0.5-1.5,0.7-2.3
							c0.1-0.4,0.1-0.8,0.2-1.2c0-0.4,0-0.8,0-1.2c0-0.8-0.1-1.6-0.3-2.3c-0.1-0.4-0.2-0.8-0.3-1.1C75.4,9.3,75.2,9,75,8.6
							c0-0.1,0-0.2-0.1-0.4s-0.2-0.3-0.3-0.5l-0.2-0.2V7.4l0,0l0,0c-0.1,0-0.2-0.1-0.3-0.1C74,7.2,73.9,7.1,73.8,7l0,0l0,0
							c-0.1-0.1-0.1-0.3-0.2-0.4c0-0.1,0-0.3,0-0.3l0,0l0,0l-0.1-0.1C73.4,6,73.3,6,73.3,5.9C73,5.6,72.8,5.3,72.5,5
							c-0.6-0.5-1.2-1-1.9-1.4c-0.3-0.2-0.7-0.4-1-0.5c-0.4-0.2-0.7-0.3-1.1-0.4c-0.7-0.3-1.5-0.5-2.3-0.6C65.4,2,64.6,2,63.8,2
							s-1.6,0.2-2.3,0.4c-0.8,0.2-1.5,0.5-2.2,0.8c-0.4,0.2-0.7,0.4-1,0.6c-0.3,0.2-0.7,0.4-1,0.7c0.6-0.5,1.3-1,2-1.4
							c0.3-0.2,0.7-0.4,1.1-0.6c0.2-0.2,0.6-0.3,1-0.5c0.8-0.2,1.6-0.4,2.4-0.5s1.6-0.1,2.5,0c0.8,0.1,1.6,0.3,2.4,0.5
							c0.4,0.1,0.8,0.3,1.1,0.4c0.4,0.2,0.8,0.3,1.1,0.5c0.7,0.4,1.4,0.9,2,1.5c0.3,0.3,0.6,0.6,0.8,0.9c0.1,0.1,0.1,0.2,0.2,0.2
							L74,5.6c0,0,0.1,0.1,0.1,0.2s0,0.1,0,0.1c0,0.2,0,0.2,0,0.3c0,0.1,0,0.1,0,0.1l0,0c0.1,0.1,0.1,0.1,0.2,0.1s0.1,0.1,0.2,0.1
							s0.1,0.1,0.2,0.1l0.1,0.1v0.1L75,7.1c0.1,0.2,0.2,0.4,0.3,0.5c0.1,0.2,0.2,0.4,0.3,0.6c0.2,0.4,0.3,0.8,0.5,1.1
							c0.1,0.4,0.2,0.8,0.3,1.2c0,0.1,0,0.2,0.1,0.3c0,0.1,0,0.2,0.1,0.3c0,0.2,0.1,0.4,0.1,0.6c0,0.4,0,0.8,0,1.2
							c0,0.8-0.1,1.6-0.3,2.4c-0.3,1.6-1,3.1-2,4.4C73.4,21.4,72.1,22.4,70.7,23.2z"/>
					</g>
				</g>
				<g>
					<path class="st1" d="M2.3,14.2c0.1-0.8,0-1.7,0.2-2.5c0.5-3.2,1.9-6,4.6-8c1.6-1.1,3.3-1.8,5.3-2c0.4,0,0.6-0.2,1-0.3
						c0.1,0,0.6,0,0.6,0c0.4,0.2,0.6,0.1,1.1,0.1c0.3,0,0.7,0.2,1,0.3c3.5,0.8,6.2,2.7,7.6,6.2c0.1,0.2,0.1,0.4,0.1,0.6
						C23.6,8,23.3,7.4,23,6.8c-1.6-2.7-4.1-4.2-7.1-4.8c-0.8-0.1-1.6,0.1-2.4,0c-2.2-0.3-4.1,0.4-5.8,1.5c-2.9,1.8-4.4,4.5-5,7.8
						c-0.2,0.9-0.3,2.7-0.2,2.8C2.5,14.3,2.3,14.5,2.3,14.2z"/>
					<path class="st1" d="M2.3,14.4c-0.1,0-0.2,0-0.2-0.3l0,0c0-0.3,0-0.5,0-0.8c0-0.6,0-1.2,0.1-1.7c0.6-3.5,2.1-6.2,4.7-8
						c1.5-1.1,3.3-1.8,5.3-2c0.3,0,0.5-0.1,0.7-0.2c0.1,0,0.2-0.1,0.3-0.1c0.2-0.1,0.6,0,0.7,0.1c0.3,0.2,0.5,0.1,0.7,0.1
						c0.1,0,0.2,0,0.4,0s0.4,0.1,0.7,0.2c0.1,0.1,0.3,0.1,0.4,0.1C20,2.6,22.5,4.6,23.9,8C24,8.2,24,8.4,24,8.6c0,0,0,0.1-0.1,0.1
						c0,0-0.1,0-0.1-0.1c-0.1-0.2-0.2-0.4-0.3-0.6c-0.2-0.4-0.4-0.8-0.6-1.2c-1.5-2.5-3.8-4.1-7-4.7c-0.4-0.1-0.8,0-1.2,0
						s-0.8,0-1.2,0c-1.8-0.3-3.6,0.2-5.8,1.5c-2.7,1.6-4.4,4.3-5,7.7c-0.2,0.9-0.3,2.7-0.2,2.8C2.6,14.3,2.5,14.4,2.3,14.4
						C2.4,14.4,2.4,14.4,2.3,14.4z M2.5,11.8c0,0.2,0,0.3-0.1,0.5C2.5,12.1,2.5,11.9,2.5,11.8z M8.7,2.8C8.2,3,7.7,3.3,7.2,3.7
						c0.1-0.1,0.3-0.2,0.4-0.3C8,3.2,8.4,3,8.7,2.8z M15.3,1.9c0.2,0,0.4,0,0.6,0.1c0.2,0,0.3,0.1,0.5,0.1c-0.1,0-0.2-0.1-0.3-0.1
						c-0.1,0-0.3-0.1-0.4-0.2c-0.2-0.1-0.4-0.2-0.6-0.2c-0.1,0-0.2,0-0.3,0c-0.3,0-0.5,0.1-0.8-0.1c-0.1,0-0.4-0.1-0.6,0
						c-0.1,0-0.2,0.1-0.3,0.1c-0.2,0.1-0.5,0.2-0.8,0.2l0,0c0.4,0,0.8,0,1.3,0.1c0.4,0.1,0.7,0,1.1,0C14.9,1.9,15.1,1.9,15.3,1.9z"
						/>
				</g>
				<g>
					<path class="st1" d="M2.7,15.7c0.1,0.4,0.2,0.9,0.4,1.3c1.4,4.4,5.3,7.5,10,7.9c0.4,0,0.9-0.2,1.4-0.1c0.1,0,0.4,0,0.4,0.3
						c0,0.2-0.3,0.3-0.5,0.3C6.5,25.1,3.2,19.6,2.7,15.7z"/>
					<path class="st1" d="M14.4,25.5L14.4,25.5c-3.6-0.1-6.6-1.3-8.7-3.5c-1.7-1.7-2.8-4-3.1-6.2c0-0.1,0-0.1,0.1-0.1s0.1,0,0.1,0.1
						s0.1,0.3,0.1,0.4C3,16.4,3.1,16.7,3.2,17c1.4,4.4,5.3,7.4,9.9,7.8c0.2,0,0.4,0,0.6-0.1c0.3-0.1,0.5-0.1,0.8-0.1l0,0
						c0.3,0,0.5,0.2,0.5,0.4c0,0.1,0,0.2-0.1,0.3C14.7,25.4,14.6,25.5,14.4,25.5z M4.3,19.8c1.6,2.7,4.8,5.3,10.1,5.5l0,0
						c0.1,0,0.2,0,0.3-0.1l0.1-0.1c0-0.1-0.1-0.2-0.3-0.2l0,0c-0.3-0.1-0.5,0-0.8,0.1c-0.2,0-0.4,0-0.7,0
						C9.4,24.7,6.2,22.7,4.3,19.8z"/>
				</g>
				<g>
					<path class="st1" d="M24.2,10.1c0.8,4.2-2.1,8.5-6.2,9.5c-0.7,0.2-1.4,0.1-2.1,0.3c-0.5,0.1-0.8,0.3-1.2-0.1
						c0.4-0.5,0.8-0.1,1.2-0.2c0.8,0,1.7-0.2,2.5-0.4c3.4-1,5.1-3.5,5.6-6.9C24.1,11.7,24.1,11,24.2,10.1z"/>
					<path class="st1" d="M15.2,20.2c-0.2,0-0.4-0.1-0.6-0.3v-0.1c0.3-0.4,0.7-0.3,1-0.2c0.1,0,0.2,0,0.4,0c0.8,0,1.6-0.2,2.5-0.4
						c3.1-0.9,4.9-3.2,5.5-6.8c0.1-0.5,0.1-0.9,0.1-1.4c0-0.2,0-0.5,0.1-0.8c0-0.1,0-0.1,0.1-0.1s0.1,0,0.1,0.1c0.4,2-0.1,4.2-1.3,6
						c-1.2,1.8-3,3.1-5,3.6c-0.3,0.1-0.6,0.1-0.9,0.1c-0.4,0-0.8,0.1-1.1,0.2H16C15.6,20.2,15.4,20.2,15.2,20.2z M14.9,19.9
						c0.3,0.2,0.5,0.1,0.9,0h0.1H16l0,0c-0.1,0-0.3,0-0.4,0C15.3,19.7,15.1,19.7,14.9,19.9z M18.9,19.2c-0.2,0.1-0.3,0.1-0.5,0.2
						c-0.3,0.1-0.5,0.1-0.8,0.2c0.1,0,0.1,0,0.2,0C18.3,19.5,18.6,19.3,18.9,19.2z M24.2,11.3c0,0.4-0.1,0.7-0.1,1.1
						c-0.2,1.1-0.4,2.1-0.8,2.9C23.9,14,24.3,12.7,24.2,11.3z"/>
				</g>
				<g>
					<path class="st1" d="M48.2,7.5c-1-1.9-2.4-3.4-4.3-4.3c-1.9-0.9-3.7-1.3-5.8-1c-0.2,0.1-0.2-0.1-0.2-0.3s0.4-0.3,0.6-0.4
						s0.6,0.2,0.9,0.2c3.7,0.3,6.7,1.7,8.6,5c0.1,0.2,0.2,0.4,0.3,0.6C48.3,7.4,48.2,7.4,48.2,7.5z"/>
					<path class="st1" d="M48.2,7.6L48.2,7.6C48.1,7.6,48.1,7.6,48.2,7.6c-1.1-2-2.5-3.4-4.4-4.3c-2-1-3.7-1.3-5.7-1
						c-0.1,0-0.2,0-0.3,0c-0.1-0.1-0.1-0.2,0-0.4s0.5-0.4,0.6-0.4s0.3,0,0.6,0.1c0.1,0,0.3,0.1,0.3,0.1c4,0.3,6.9,1.9,8.7,5.1
						c0.1,0.1,0.2,0.3,0.2,0.4s0.1,0.1,0.1,0.2v0.1L48.2,7.6L48.2,7.6z M42.9,2.6c0.3,0.1,0.7,0.3,1,0.5c0.5,0.3,1.1,0.6,1.5,1
						C44.7,3.4,43.8,2.9,42.9,2.6z M38.6,1.7L38.6,1.7c-0.3,0.1-0.5,0.2-0.5,0.3s0,0.1,0,0.1l0,0l0,0C38.8,2,39.4,2,40.1,2
						c-0.2,0-0.5,0-0.7-0.1c-0.1,0-0.3-0.1-0.4-0.1C38.8,1.7,38.7,1.7,38.6,1.7z"/>
				</g>
				<g>
					<path class="st1" d="M28.9,7.3c0.9-1.8,2.4-3.1,4.1-4.1c0.5-0.3,1-0.7,1.5-1c0.2-0.1,0.7-0.1,0.7,0.1c0,0.2-0.3,0.5-0.8,0.5
						c-0.6,0.1-1.3,0.5-1.8,0.9C31.1,4.6,30,5.9,28.9,7.3C29,7.3,29,7.3,28.9,7.3z"/>
					<path class="st1" d="M29,7.4L29,7.4l-0.1-0.1c-0.1,0-0.1-0.1,0-0.1C29.7,5.6,31,4.2,33,3c0.2-0.1,0.4-0.3,0.6-0.4
						c0.3-0.2,0.6-0.4,0.9-0.6c0.2-0.1,0.6-0.1,0.7,0c0.1,0,0.1,0.1,0.1,0.2c0,0.2-0.4,0.5-0.9,0.6c-0.5,0.1-1,0.4-1.5,0.7
						c-0.1,0.1-0.2,0.1-0.3,0.2C31.3,4.6,30.3,5.7,29,7.4C29.1,7.4,29.1,7.4,29,7.4z M34.9,2.2c-0.1,0-0.2,0-0.3,0.1
						c-0.3,0.2-0.6,0.4-0.9,0.6c-0.1,0-0.2,0.1-0.3,0.1c0.3-0.2,0.6-0.3,1-0.4c0.5-0.1,0.7-0.3,0.7-0.4C35.1,2.2,35,2.2,34.9,2.2z"
						/>
				</g>
				<g>
					<path class="st1" d="M71.7,8.2c-1.5-1.9-3.5-3.1-5.9-3.6c-0.2,0-0.4-0.1-0.6-0.1c0.2,0,0.5-0.1,0.7,0c2.3,0.4,4.2,1.6,5.7,3.3
						c0,0,0.4,0.3,0.6,0.5c0.1,0.3,0.3,0.6,0.4,0.8c1,1.7,1.4,3.5,1.3,5.5c0,0.1-0.1,0.3-0.1,0.4c0-0.3-0.1-0.6-0.1-0.9
						c0-2-0.5-3.5-1.6-5.2c-0.2,0.1-0.6,0.2-0.7,0C71.3,8.6,71.7,8.2,71.7,8.2z"/>
					<path class="st1" d="M73.8,15.2v-0.3c0-0.1,0-0.2,0-0.3c0-0.2,0-0.4,0-0.6c0-2-0.5-3.4-1.6-5.1C71.9,9,71.5,9,71.4,8.8
						s0.1-0.5,0.3-0.7c-1.5-1.9-3.4-3.1-5.9-3.5c-0.1,0-0.3-0.1-0.4-0.1l-0.6-0.1h0.5c0.1,0,0.2,0,0.2,0c0.2,0,0.3,0,0.5,0
						c2.2,0.4,4.2,1.5,5.7,3.3l0,0c0,0,0.4,0.3,0.6,0.4l0,0l0,0c0.1,0.3,0.3,0.5,0.4,0.8c1,1.7,1.4,3.5,1.4,5.6c0,0.1,0,0.2-0.1,0.3
						v0.1L73.8,15.2z M72.1,8.8L72.1,8.8c1.2,1.7,1.6,3.2,1.7,5.2c0,0.2,0,0.4,0,0.6v-0.1c0.1-2.1-0.3-3.9-1.3-5.5
						c-0.2-0.3-0.3-0.5-0.4-0.8C72,8,71.6,7.7,71.6,7.7C70,6,68.1,4.9,65.9,4.5c-0.1,0-0.2,0-0.3,0c0.1,0,0.2,0,0.3,0.1
						c2.5,0.5,4.5,1.7,6,3.6l0,0l0,0c-0.2,0.2-0.3,0.5-0.3,0.6C71.6,8.9,71.9,8.9,72.1,8.8L72.1,8.8z"/>
				</g>
				<g>
					<path class="st1" d="M72,6.3c0.6,0.7,2.1,2.9,2.3,5.7c-0.1-0.4-0.3-0.8-0.4-1.3c-0.3-1.3-0.9-2.5-1.7-3.5
						c-0.2-0.4-0.6-0.7-1-1.2s-0.9-0.8-1.5-1.2C69.2,4.5,68.6,4.2,68,4c-0.6-0.2-1.2-0.3-1.8-0.5c-0.1,0-0.2-0.1-0.4-0.1
						c1.4,0,2.7,0.6,3.9,1.3C69.8,4.7,71.4,5.7,72,6.3z"/>
					<path class="st1" d="M74.3,12.1c0-0.1-0.1-0.3-0.1-0.4c-0.1-0.3-0.2-0.6-0.2-0.9c-0.3-1.3-0.9-2.5-1.6-3.5
						c-0.2-0.2-0.4-0.5-0.6-0.7S71.5,6.2,71.3,6c-0.4-0.5-0.9-0.8-1.5-1.1c-0.5-0.3-1.1-0.6-1.7-0.8c-0.4-0.1-0.8-0.2-1.2-0.3
						c-0.2,0-0.4-0.1-0.6-0.2c-0.1,0-0.2-0.1-0.2-0.1H66l-0.2-0.1h0.3c1.5,0,2.8,0.6,3.9,1.3c0.1,0,1.7,1,2.3,1.7
						c0.6,0.6,2.1,2.9,2.4,5.7L74.3,12.1z M66.2,3.4C66.2,3.5,66.2,3.5,66.2,3.4c0.3,0.1,0.5,0.1,0.7,0.2c0.4,0.1,0.8,0.2,1.2,0.4
						c0.6,0.2,1.2,0.5,1.7,0.8c0.6,0.3,1.1,0.7,1.5,1.2c0.2,0.2,0.3,0.4,0.5,0.5C72,6.8,72.2,7,72.4,7.2c0.8,1,1.4,2.2,1.7,3.5
						c0.1,0.2,0.1,0.4,0.2,0.6c-0.4-2.5-1.7-4.5-2.2-5c-0.6-0.7-2.2-1.6-2.3-1.7C68.7,4.1,67.5,3.5,66.2,3.4z"/>
				</g>
				<g>
					<path class="st1" d="M58.9,6.4c-2,1-2.4,2-3.3,3.3c0-0.2,0-0.3,0.1-0.5c0.6-1.1,2.2-2.7,2.3-2.8c0.1-0.1,0.2-0.5,0.7-0.9
						c1-0.7,3-1.1,4.6-1.3c0.2,0,0.3,0,0.5,0c-0.2,0.1-0.4,0.1-0.6,0.2c-1.3,0.1-2.3,0.4-3.4,1C59.7,5.5,59.4,6.1,58.9,6.4z"/>
					<path class="st1" d="M55.6,9.8L55.6,9.8C55.5,9.7,55.5,9.7,55.6,9.8c0-0.1,0-0.2,0-0.2c0-0.1,0-0.2,0.1-0.3
						c0.5-0.9,1.7-2.2,2.2-2.6C58,6.6,58,6.6,58,6.5c0,0,0,0,0-0.1c0.1-0.2,0.3-0.5,0.7-0.8c1.2-0.9,3.8-1.2,4.6-1.3
						c0.1,0,0.2,0,0.4,0h0.1c0,0,0,0,0.1,0v0.1c-0.1,0-0.1,0-0.2,0.1c-0.1,0-0.3,0.1-0.4,0.1c-1.2,0.1-2.3,0.4-3.4,1
						c-0.1,0.1-0.4,0.7-0.8,0.9l0,0c-1.7,0.8-2.2,1.7-2.9,2.7C55.9,9.3,55.8,9.5,55.6,9.8C55.6,9.7,55.6,9.8,55.6,9.8z M63.3,4.3
						L63.3,4.3c-0.9,0.1-3.4,0.5-4.6,1.3c-0.4,0.3-0.5,0.6-0.6,0.7c0,0,0,0.1-0.1,0.1c0,0-0.1,0.1-0.2,0.2c-0.4,0.4-1.7,1.7-2.2,2.6
						c0,0.1,0,0.1,0,0.2c0.2,0,0.3-0.2,0.4-0.4c0.7-1.1,1.3-1.9,2.9-2.7c0.4-0.3,0.7-0.9,0.7-0.9l0,0c1.1-0.7,2.2-0.9,3.4-1
						C63.2,4.4,63.3,4.4,63.3,4.3C63.4,4.3,63.4,4.3,63.3,4.3z M58.9,6.4L58.9,6.4L58.9,6.4z"/>
				</g>
			</g>
		</g>
		<g>
			<g>
				<path class="st2" d="M34.6,21.6c0-0.3-0.1-0.6-0.2-0.9c-0.2-0.2-0.4-0.5-0.8-0.6c-0.3-0.2-0.9-0.4-1.6-0.6
					c-0.7-0.2-1.2-0.4-1.6-0.6s-0.6-0.4-0.8-0.7c-0.2-0.3-0.2-0.6-0.2-0.9c0-0.6,0.2-1.1,0.7-1.4c0.5-0.4,1.1-0.6,1.9-0.6
					c0.5,0,1,0.1,1.4,0.3c0.4,0.2,0.7,0.5,1,0.9c0.2,0.4,0.3,0.8,0.3,1.2h-0.3c0-0.6-0.2-1.1-0.7-1.5c-0.4-0.4-1-0.6-1.7-0.6
					s-1.3,0.2-1.7,0.5c-0.4,0.3-0.7,0.7-0.7,1.2s0.2,0.9,0.6,1.2c0.4,0.3,1,0.6,1.9,0.8c0.9,0.2,1.5,0.5,1.9,0.8
					c0.5,0.4,0.8,0.9,0.8,1.5c0,0.4-0.1,0.8-0.3,1.1c-0.2,0.3-0.6,0.6-1,0.7c-0.4,0.2-0.9,0.3-1.4,0.3c-0.6,0-1.1-0.1-1.6-0.3
					c-0.5-0.2-0.8-0.5-1.1-0.8c-0.2-0.4-0.4-0.8-0.4-1.3h0.3c0,0.7,0.2,1.2,0.7,1.6s1.1,0.6,1.9,0.6c0.7,0,1.3-0.2,1.8-0.5
					C34.3,22.5,34.6,22.1,34.6,21.6z"/>
				<path class="st2" d="M37.1,23.5h-0.3v-8.1h0.3V23.5z"/>
			</g>
			<g>
				<path class="st2" d="M40.9,15.4l0.1,0.8c0.6-0.7,1.4-1,2.3-1c1.1,0,1.8,0.4,2.2,1.2c0.6-0.8,1.4-1.2,2.5-1.2
					c0.9,0,1.6,0.2,2,0.7s0.7,1.2,0.7,2.2v5.3h-1.8v-5.3c0-0.5-0.1-0.9-0.3-1.1s-0.6-0.4-1.1-0.4c-0.4,0-0.8,0.1-1,0.3
					c-0.3,0.2-0.4,0.5-0.6,0.9v5.6h-1.8v-5.3c0-1-0.5-1.4-1.5-1.4c-0.7,0-1.2,0.3-1.6,0.9v5.9h-1.8v-8.1
					C39.2,15.4,40.9,15.4,40.9,15.4z"/>
				<path class="st2" d="M57.7,22.7c-0.5,0.6-1.3,0.9-2.3,0.9c-0.9,0-1.5-0.3-2-0.8s-0.7-1.3-0.7-2.2v-5.3h1.8v5.2
					c0,1,0.4,1.5,1.3,1.5c0.9,0,1.5-0.3,1.8-1v-5.8h1.8v8.1h-1.7L57.7,22.7z"/>
				<path class="st2" d="M66,21.3c0-0.3-0.1-0.6-0.4-0.7c-0.3-0.2-0.7-0.3-1.3-0.5c-0.6-0.1-1.1-0.3-1.6-0.5
					c-0.9-0.4-1.4-1.1-1.4-1.9c0-0.7,0.3-1.3,0.9-1.8c0.6-0.5,1.3-0.7,2.3-0.7c1,0,1.8,0.2,2.4,0.7c0.6,0.5,0.9,1.1,0.9,1.9H66
					c0-0.4-0.1-0.6-0.4-0.9c-0.3-0.2-0.6-0.3-1-0.3s-0.7,0.1-1,0.3c-0.3,0.2-0.4,0.4-0.4,0.7c0,0.3,0.1,0.5,0.4,0.7
					c0.2,0.2,0.7,0.3,1.4,0.5c0.7,0.2,1.3,0.3,1.7,0.6c0.4,0.2,0.7,0.5,0.9,0.8c0.2,0.3,0.3,0.7,0.3,1.1c0,0.7-0.3,1.3-0.9,1.8
					s-1.4,0.7-2.4,0.7c-0.7,0-1.3-0.1-1.8-0.4c-0.5-0.2-0.9-0.6-1.2-1s-0.4-0.9-0.4-1.4H63c0,0.4,0.2,0.8,0.5,1s0.7,0.3,1.2,0.3
					s0.8-0.1,1.1-0.3C65.9,21.8,66,21.6,66,21.3z"/>
			</g>
			<g>
				<path class="st2" d="M18.6,27.5c0-0.1-0.1-0.2-0.2-0.2c-0.1-0.1-0.2-0.1-0.4-0.2c-0.2-0.1-0.3-0.1-0.4-0.2s-0.1-0.1-0.2-0.2
					c0-0.1,0-0.1,0-0.2s0.1-0.2,0.1-0.3c0.1-0.1,0.2-0.1,0.3-0.2c0.1,0,0.2-0.1,0.4-0.1c0.1,0,0.2,0,0.3,0.1
					c0.1,0.1,0.2,0.1,0.2,0.2s0.1,0.2,0,0.3h-0.1c0-0.2,0-0.3-0.1-0.4s-0.2-0.2-0.4-0.2c-0.2,0-0.3,0-0.4,0.1s-0.2,0.2-0.2,0.3
					c0,0.1,0,0.1,0,0.2s0.1,0.2,0.2,0.2c0.1,0.1,0.2,0.1,0.4,0.1c0.2,0.1,0.4,0.1,0.5,0.2s0.1,0.2,0.1,0.4c0,0.1-0.1,0.2-0.1,0.3
					c-0.1,0.1-0.2,0.1-0.3,0.2c-0.1,0-0.2,0.1-0.4,0.1c-0.2,0-0.4-0.1-0.5-0.2s-0.2-0.3-0.1-0.4h0.1c0,0.2,0,0.3,0.1,0.4
					s0.3,0.1,0.4,0.1c0.2,0,0.3,0,0.4-0.1S18.5,27.6,18.6,27.5C18.6,27.7,18.6,27.6,18.6,27.5z"/>
				<path class="st2" d="M19.1,28.2L19.1,28.2l0.3-2.1h0.1L19.1,28.2z"/>
				<path class="st2" d="M21.1,27.5c0-0.1-0.1-0.2-0.2-0.2c-0.1-0.1-0.2-0.1-0.4-0.2c-0.2-0.1-0.3-0.1-0.4-0.2s-0.1-0.1-0.2-0.2
					c0-0.1,0-0.1,0-0.2s0.1-0.2,0.1-0.3c0.1-0.1,0.2-0.1,0.3-0.2c0.1,0,0.2-0.1,0.4-0.1c0.1,0,0.2,0,0.3,0.1
					c0.1,0.1,0.2,0.1,0.2,0.2s0.1,0.2,0,0.3h-0.1c0-0.2,0-0.3-0.1-0.4s-0.2-0.2-0.4-0.2c-0.2,0-0.3,0-0.4,0.1S20,26.2,20,26.3
					c0,0.1,0,0.1,0,0.2s0.1,0.2,0.2,0.2c0.1,0.1,0.2,0.1,0.4,0.1c0.2,0.1,0.4,0.1,0.5,0.2s0.1,0.2,0.1,0.4c0,0.1-0.1,0.2-0.1,0.3
					c-0.1,0.1-0.2,0.1-0.3,0.2c-0.1,0-0.2,0.1-0.4,0.1c-0.2,0-0.4-0.1-0.5-0.2s-0.2-0.3-0.1-0.4h0.1c0,0.2,0,0.3,0.1,0.4
					s0.3,0.1,0.4,0.1c0.2,0,0.3,0,0.4-0.1S21,27.6,21.1,27.5C21.1,27.7,21.1,27.6,21.1,27.5z"/>
				<path class="st2" d="M23.2,26.2h-0.7l-0.3,2H22l0.3-2h-0.7v-0.1L23.2,26.2L23.2,26.2z"/>
				<path class="st2" d="M24.5,27.1h-1l-0.2,1h1.2v0.1h-1.2l0.4-2.1h1.2v0.1h-1.2l-0.2,0.9H24.5L24.5,27.1z"/>
				<path class="st2" d="M25.4,26.1l0.5,2l1.2-2h0.1l-0.4,2.1h-0.1l0.3-2l-1.2,2h-0.1l-0.5-2l-0.3,2h-0.1l0.4-2.1H25.4z"/>
				<path class="st2" d="M28.6,27.5h-1l-0.3,0.6h-0.1l1.1-2.1h0.1l0.4,2.1h-0.1L28.6,27.5z M27.7,27.5h0.9l-0.2-1.3L27.7,27.5z"/>
				<path class="st2" d="M29.9,28.2l0.4-2.1h0.6c0.1,0,0.2,0,0.3,0.1c0.1,0.1,0.2,0.1,0.2,0.2c0.1,0.1,0.1,0.2,0.1,0.4
					c0,0.1,0,0.2,0,0.2v0.2c0,0.2-0.1,0.3-0.2,0.5c-0.1,0.1-0.2,0.3-0.4,0.3c-0.1,0.1-0.3,0.1-0.5,0.1L29.9,28.2L29.9,28.2z
					 M30.3,26.2L30,28.1h0.5c0.2,0,0.4-0.1,0.6-0.2c0.2-0.2,0.3-0.4,0.3-0.6v-0.2c0-0.1,0-0.2,0-0.3c0-0.2-0.1-0.3-0.2-0.4
					s-0.2-0.1-0.4-0.1L30.3,26.2L30.3,26.2z"/>
				<path class="st2" d="M33.1,27.1h-1l-0.2,1h1.2v0.1h-1.2l0.4-2.1h1.2v0.1h-1.2l-0.2,0.9H33.1L33.1,27.1z"/>
				<path class="st2" d="M34.4,28.2L34.4,28.2l0.3-2.1h0.1L34.4,28.2z"/>
				<path class="st2" d="M36.5,28.2L36.5,28.2l-1-2l-0.3,2H35l0.4-2.1h0.1l1,2l0.3-2h0.1L36.5,28.2z"/>
				<path class="st2" d="M38.4,27.1h-1l-0.2,1h-0.1l0.4-2.1h1.3v0.1h-1.2L37.4,27L38.4,27.1L38.4,27.1z"/>
				<path class="st2" d="M39.4,28.2c-0.1,0-0.2,0-0.3-0.1s-0.2-0.1-0.2-0.2c-0.1-0.1-0.1-0.2-0.1-0.4c0-0.1,0-0.1,0-0.2V27
					c0-0.2,0.1-0.4,0.2-0.5c0.1-0.1,0.2-0.3,0.3-0.3c0.1-0.1,0.3-0.1,0.4-0.1c0.1,0,0.2,0,0.3,0.1s0.2,0.1,0.2,0.2
					c0.1,0.1,0.1,0.2,0.1,0.4c0,0.1,0,0.2,0,0.2v0.3c0,0.2-0.1,0.3-0.2,0.5c-0.1,0.1-0.2,0.3-0.3,0.3S39.6,28.2,39.4,28.2z
					 M40.3,26.8c0-0.2-0.1-0.4-0.2-0.5c-0.1-0.1-0.2-0.2-0.4-0.2s-0.4,0.1-0.5,0.2c-0.2,0.2-0.3,0.4-0.3,0.6l-0.1,0.3
					c0,0.1,0,0.1,0,0.2c0,0.2,0,0.4,0.1,0.5s0.2,0.2,0.4,0.2c0.1,0,0.3,0,0.4-0.1c0.1-0.1,0.2-0.2,0.3-0.3c0.1-0.1,0.1-0.3,0.2-0.4
					l0.1-0.3C40.3,26.9,40.3,26.8,40.3,26.8z"/>
				<path class="st2" d="M41.6,27.3h-0.7l-0.2,0.9h-0.1l0.4-2.1h0.6c0.1,0,0.2,0,0.3,0.1s0.2,0.1,0.2,0.2s0.1,0.2,0,0.3
					c0,0.1-0.1,0.3-0.2,0.4C42,27.2,41.9,27.2,41.6,27.3l0.5,0.9l0,0H42L41.6,27.3z M40.9,27.2h0.6c0.2,0,0.3,0,0.4-0.1
					c0.1-0.1,0.2-0.2,0.2-0.4c0-0.2,0-0.3-0.1-0.4s-0.2-0.1-0.4-0.1H41L40.9,27.2z"/>
				<path class="st2" d="M43.1,26.1l0.5,2l1.2-2h0.1l-0.4,2.1h-0.1l0.3-2l-1.2,2h-0.1l-0.5-2l-0.3,2h-0.1l0.4-2.1H43.1z"/>
				<path class="st2" d="M46.3,27.5h-1L45,28.2h-0.1l1.1-2.1h0.1l0.4,2.1h-0.1L46.3,27.5z M45.4,27.5h0.9L46,26.2L45.4,27.5z"/>
				<path class="st2" d="M48.4,27.5c-0.1,0.2-0.2,0.4-0.3,0.5s-0.3,0.2-0.5,0.2c-0.1,0-0.2,0-0.3-0.1S47,28,47,27.9
					s-0.1-0.2-0.1-0.4c0-0.1,0-0.2,0-0.2V27c0-0.3,0.2-0.5,0.3-0.7c0.2-0.2,0.4-0.3,0.6-0.3c0.2,0,0.4,0.1,0.5,0.2s0.2,0.3,0.2,0.5
					h-0.1c0-0.2,0-0.3-0.1-0.4s-0.2-0.2-0.4-0.2c-0.1,0-0.2,0-0.4,0.1c-0.1,0.1-0.2,0.2-0.3,0.3c-0.1,0.1-0.1,0.3-0.2,0.5v0.3
					c0,0.1,0,0.1,0,0.2s0,0.2,0.1,0.3c0,0.1,0.1,0.2,0.2,0.2c0.1,0.1,0.2,0.1,0.3,0.1c0.2,0,0.3-0.1,0.5-0.2S48.2,27.7,48.4,27.5
					L48.4,27.5z"/>
				<path class="st2" d="M48.9,28.2L48.9,28.2l0.3-2.1h0.1L48.9,28.2z"/>
				<path class="st2" d="M50.2,28.2c-0.1,0-0.2,0-0.3-0.1s-0.2-0.1-0.2-0.2c-0.1-0.1-0.1-0.2-0.1-0.4c0-0.1,0-0.1,0-0.2V27
					c0-0.2,0.1-0.4,0.2-0.5c0.1-0.1,0.2-0.3,0.3-0.3c0.1-0.1,0.3-0.1,0.4-0.1c0.1,0,0.2,0,0.3,0.1s0.2,0.1,0.2,0.2
					c0.1,0.1,0.1,0.2,0.1,0.4c0,0.1,0,0.2,0,0.2v0.3c0,0.2-0.1,0.3-0.2,0.5c-0.1,0.1-0.2,0.3-0.3,0.3S50.4,28.2,50.2,28.2z
					 M51.1,26.8c0-0.2-0.1-0.4-0.2-0.5c-0.1-0.1-0.2-0.2-0.4-0.2s-0.4,0.1-0.5,0.2c-0.2,0.2-0.3,0.4-0.3,0.6l-0.1,0.3
					c0,0.1,0,0.1,0,0.2c0,0.2,0,0.4,0.1,0.5s0.2,0.2,0.4,0.2c0.1,0,0.3,0,0.4-0.1c0.1-0.1,0.2-0.2,0.3-0.3c0.1-0.1,0.1-0.3,0.2-0.4
					l0.1-0.3C51.1,26.9,51.1,26.8,51.1,26.8z M50.9,25.5L50.9,25.5l-0.2,0.4h-0.1L50.9,25.5z"/>
				<path class="st2" d="M53,28.2L53,28.2l-1-2l-0.3,2h-0.1l0.4-2.1h0.1l1,2l0.3-2h0.1L53,28.2z"/>
				<path class="st2" d="M54.3,28.2l0.4-2.1h0.5c0.2,0,0.3,0,0.4,0.1c0.1,0.1,0.2,0.2,0.3,0.3s0.1,0.3,0,0.5v0.2
					c0,0.3-0.2,0.5-0.3,0.7c-0.2,0.2-0.4,0.3-0.7,0.3H54.3z M54.8,26.2L54.5,28h0.4c0.1,0,0.3,0,0.4-0.1c0.1-0.1,0.2-0.2,0.3-0.3
					c0.1-0.1,0.1-0.3,0.2-0.4c0-0.2,0-0.3,0-0.3c0-0.1,0-0.1,0-0.2c0-0.2-0.1-0.3-0.2-0.4c-0.1-0.1-0.2-0.1-0.4-0.1H54.8z"/>
				<path class="st2" d="M57.5,27.2h-0.9L56.4,28h1.1v0.1h-1.3l0.4-2.1h1.3v0.1h-1.1L56.5,27h0.9L57.5,27.2z"/>
				<path class="st2" d="M58.8,28h1v0.1h-1.2L59,26h0.2L58.8,28z"/>
				<path class="st2" d="M61.3,27.6h-0.9l-0.3,0.6h-0.2l1.1-2.1h0.2l0.4,2.1h-0.2L61.3,27.6z M60.5,27.4h0.8l-0.2-1.1L60.5,27.4z"/>
				<path class="st2" d="M63.3,26.1l0.4,1.8l1.1-1.8H65l-0.4,2.1h-0.2l0.2-0.9l0.2-0.9l-1.1,1.8h-0.1l-0.4-1.8L63,27.3l-0.2,0.9
					h-0.2l0.4-2.1C63,26.1,63.3,26.1,63.3,26.1z"/>
				<path class="st2" d="M67,26.1l-0.2,1.4c0,0.2-0.1,0.4-0.3,0.5c-0.2,0.1-0.3,0.2-0.5,0.2c-0.1,0-0.3,0-0.3-0.1
					c-0.1-0.1-0.2-0.1-0.2-0.3c0-0.1-0.1-0.2,0-0.4l0.2-1.4h0.2l-0.2,1.4c0,0.2,0,0.3,0.1,0.4S66,28,66.2,28c0.2,0,0.3,0,0.4-0.1
					s0.2-0.2,0.2-0.4L67,26.1C67,26.1,67,26.1,67,26.1z M66.5,25.5h0.2l-0.4,0.4h-0.2L66.5,25.5z"/>
				<path class="st2" d="M68.4,27.6c0-0.2-0.1-0.3-0.3-0.4l-0.3-0.1h-0.1c-0.3-0.1-0.4-0.3-0.4-0.5c0-0.1,0-0.2,0.1-0.3
					c0.1-0.1,0.2-0.1,0.3-0.2c0.1,0,0.2-0.1,0.4-0.1c0.1,0,0.2,0,0.3,0.1c0.1,0.1,0.2,0.1,0.2,0.2s0.1,0.2,0.1,0.3h-0.2
					c0-0.1,0-0.3-0.1-0.3c-0.1-0.1-0.2-0.1-0.3-0.1c-0.2,0-0.3,0-0.4,0.1s-0.2,0.2-0.2,0.3c0,0.1,0,0.2,0.1,0.3
					c0.1,0.1,0.2,0.1,0.4,0.2c0.2,0.1,0.4,0.2,0.5,0.3c0.1,0.1,0.1,0.2,0.1,0.4c0,0.1-0.1,0.2-0.1,0.3s-0.2,0.1-0.3,0.2
					c-0.1,0-0.2,0.1-0.4,0.1c-0.1,0-0.3,0-0.4-0.1s-0.2-0.1-0.2-0.2c-0.1-0.1-0.1-0.2-0.1-0.3h0.2c0,0.1,0,0.3,0.1,0.3
					c0.1,0.1,0.2,0.1,0.4,0.1c0.2,0,0.3,0,0.4-0.1C68.3,27.9,68.4,27.8,68.4,27.6z"/>
				<path class="st2" d="M69.1,28.2h-0.2l0.4-2.1h0.2L69.1,28.2z"/>
				<path class="st2" d="M71.2,27.5c0,0.2-0.1,0.4-0.3,0.5c-0.1,0.1-0.3,0.2-0.5,0.2S70.1,28.1,70,28s-0.2-0.3-0.2-0.5
					c0-0.1,0-0.1,0-0.2V27c0-0.2,0.1-0.4,0.2-0.5s0.2-0.3,0.3-0.3c0.1-0.1,0.3-0.1,0.4-0.1c0.2,0,0.4,0.1,0.5,0.2s0.2,0.3,0.2,0.5
					h-0.2c0-0.2,0-0.3-0.1-0.4s-0.2-0.1-0.3-0.1c-0.2,0-0.4,0.1-0.5,0.2C70.1,26.6,70,26.8,70,27v0.3v0.1c0,0.1,0,0.2,0,0.3
					c0,0.1,0.1,0.2,0.2,0.2c0.1,0.1,0.2,0.1,0.3,0.1c0.2,0,0.3,0,0.4-0.1S71.1,27.7,71.2,27.5L71.2,27.5z"/>
				<path class="st2" d="M72.8,27.6h-0.9l-0.3,0.6h-0.2l1.1-2.1h0.2l0.4,2.1h-0.2L72.8,27.6z M71.9,27.4h0.8l-0.2-1.1L71.9,27.4z"/>
			</g>
			<g>
				<path class="st2" d="M17.7,19.2c0-0.3,0.1-0.6,0.3-0.8c0.2-0.2,0.5-0.3,0.8-0.3s0.6,0.1,0.8,0.3c0.2,0.2,0.3,0.5,0.3,0.8v0.2
					c0,0.3-0.1,0.6-0.3,0.8c-0.2,0.2-0.5,0.3-0.8,0.3s-0.6-0.1-0.8-0.3c-0.2-0.2-0.3-0.5-0.3-0.8V19.2z"/>
			</g>
		</g>
	</g>
</g>
</svg>
