<?xml version="1.0" encoding="utf-8"?>
<!-- Generator: Adobe Illustrator 23.0.1, SVG Export Plug-In . SVG Version: 6.00 Build 0)  -->
<svg version="1.1" id="Layer_1" xmlns="http://www.w3.org/2000/svg" xmlns:xlink="http://www.w3.org/1999/xlink" x="0px" y="0px"
	 viewBox="0 0 132 132" style="enable-background:new 0 0 132 132;" xml:space="preserve">
<style type="text/css">
	.st0{fill:#7797FA;}
	.st1{fill:#FFFFFF;}
</style>
<rect x="0" y="-0.1" class="st0" width="131.6" height="132.6"/>
<path class="st0" d="M81.8,47.5c-2,0-3.6,1.6-3.6,3.6c0,2,1.6,3.6,3.6,3.6c2,0,3.6-1.6,3.6-3.6C85.3,49.1,83.7,47.5,81.8,47.5"/>
<path class="st0" d="M58.4,56.3c5.7-4.1,13.7-2.8,17.8,2.9c4.1,5.7,2.8,13.7-2.9,17.8c-5.7,4.1-13.7,2.8-17.8-2.9
	C51.4,68.4,52.7,60.4,58.4,56.3"/>
<path class="st1" d="M19,85.2c-1.1,0-2-3.6-2-8s0.9-8,2-8c1.1,0,2,3.6,2,8S20.1,85.2,19,85.2z M29.2,89.9c-1.1,0-2-6.7-2-15.1
	s0.9-15.1,2-15.1c1.1,0,2,6.7,2,15.1S30.3,89.9,29.2,89.9z M39,89.9c-1.1,0-2-8.5-2-18.9S37.9,52,39,52c1.1,0,2,8.5,2,18.9
	C41.1,81.4,40.1,89.9,39,89.9z M49.4,89.9c-1.1,0-2-8.2-2-18.4s0.9-18.4,2-18.4c1.1,0,2,8.2,2,18.4S50.5,89.9,49.4,89.9z M59.3,89.9
	c-1.1,0-2-9.3-2-20.7s0.9-20.7,2-20.7s2,9.3,2,20.7C61.3,80.6,60.4,89.9,59.3,89.9z M116.4,86.3c-4.4,2.4-9.6,2.8-9.6,2.8h-40V43.7
	c0,0,16.2-5.5,25.9,3.8s8.2,16.9,8.2,16.9s11.9-4.6,18.2,3.1C125.3,75.3,120.8,83.9,116.4,86.3z"/>
</svg>
