<?xml version="1.0" encoding="utf-8"?>
<!-- Generator: Adobe Illustrator 23.0.1, SVG Export Plug-In . SVG Version: 6.00 Build 0)  -->
<svg version="1.1" id="Layer_1" xmlns="http://www.w3.org/2000/svg" xmlns:xlink="http://www.w3.org/1999/xlink" x="0px" y="0px"
	 viewBox="0 0 132 132" style="enable-background:new 0 0 132 132;" xml:space="preserve">
<style type="text/css">
	.st0{fill:#7797FA;}
	.st1{fill:#FFFFFF;}
</style>
<rect x="-0.01" y="0.41" class="st0" width="131.6" height="131.59"/>
<path class="st1" d="M96.34,64.83c0,0-2.47,2.69-7.43,2.26c-2.06,12.2-15.5,20.19-28.94,20.25c-17.75,0.09-24.73-11.39-24.73-11.39
	s11.84,9.62,22.51-1.32c0,0-3.79,0.17-4.06-1.94c-0.26-2.12,2.12-3.26,2.12-3.26s-5.92-0.36-7.24-3.53c0,0,0.34-1.32,3.53-1.94
	c0,0-5.92-1.86-6.19-6.09c0,0,2.39-0.53,3.36-0.53c0,0-5.12-2.83-4.94-7.51c0,0,16.33,5.64,20.39,10.86c0,0,3-10.68,9.63-15.27
	c0,0-0.28,1.05-0.54,1.5c0,0,2.74-1.85,4.51-1.85c0,0-0.97,1.14-1.77,1.67c0,0,2.92-0.61,4.41-0.53c0,0-2.21,1.86-5.04,2.47
	c0,0,11.34,0.99,13.03,12.23c1.85,0.36,4.58,0.59,7.37-0.31c0,0-0.8,2.92-6.27,3.36C90.07,63.96,92.46,65.46,96.34,64.83"/>
</svg>
