<?xml version="1.0" encoding="utf-8"?>
<!-- Generator: Adobe Illustrator 23.0.1, SVG Export Plug-In . SVG Version: 6.00 Build 0)  -->
<svg version="1.1" id="Layer_1" xmlns="http://www.w3.org/2000/svg" xmlns:xlink="http://www.w3.org/1999/xlink" x="0px" y="0px"
	 viewBox="0 0 132 132" style="enable-background:new 0 0 132 132;" xml:space="preserve">
<style type="text/css">
	.st0{fill:#7797FA;}
	.st1{fill:#FFFFFF;}
</style>
<rect x="0.63" y="0.26" class="st0" width="131.6" height="131.6"/>
<path class="st1" d="M60.24,90.45c-0.36,0.44-0.75,0.82-1.17,1.11c-0.44,0.28-0.79,0.43-1.07,0.43c-0.35,0-0.61-0.11-0.78-0.33
	c-0.16-0.22-0.24-0.57-0.24-1.06V74.87h-3.82v17.15c0,1.22,0.22,2.13,0.68,2.75c0.44,0.6,1.11,0.91,1.99,0.91
	c0.72,0,1.45-0.22,2.21-0.65c0.76-0.44,1.5-1.07,2.19-1.91v2.26h3.82V74.87h-3.82L60.24,90.45L60.24,90.45z"/>
<path class="st1" d="M70.06,58.9V48.31c0-1.57-0.5-2.85-1.5-3.84s-2.3-1.49-3.88-1.49c-1.73,0-3.12,0.47-4.14,1.41
	c-1.03,0.94-1.55,2.21-1.55,3.79L59,58.83c0,1.74,0.5,3.12,1.5,4.15c0.99,1.03,2.3,1.54,3.97,1.55h0.04h0.03
	c1.72-0.01,3.06-0.52,4.05-1.5C69.56,62.03,70.06,60.66,70.06,58.9 M64.5,64.54h-0.03H64.5h0.04H64.5z M66.17,59.21
	c0,0.55-0.15,0.99-0.45,1.3c-0.31,0.33-0.72,0.47-1.24,0.47c-0.51,0-0.9-0.14-1.17-0.46c-0.28-0.31-0.4-0.75-0.4-1.32V48.04
	c0-0.46,0.14-0.81,0.43-1.09c0.3-0.28,0.67-0.4,1.14-0.4c0.51,0,0.91,0.13,1.22,0.4c0.31,0.28,0.47,0.63,0.47,1.09
	C66.17,48.04,66.17,59.21,66.17,59.21z"/>
<polygon class="st1" points="53.22,67.58 40.04,67.58 40.04,71.61 44.48,71.61 44.48,95.38 48.78,95.38 48.78,71.61 53.22,71.61 "/>
<polygon class="st1" points="49.88,64.02 54.18,64.02 54.18,52.48 59.19,36.21 54.82,36.21 52.16,47.32 51.89,47.32 49.09,36.21 
	44.76,36.21 49.88,52.99 "/>
<path class="st1" d="M92.84,85.61v-5.22c0-1.95-0.46-3.44-1.4-4.48s-2.28-1.56-4.03-1.56c-1.71,0-3.1,0.57-4.18,1.7
	c-1.08,1.11-1.61,2.57-1.61,4.35v9.2c0,1.98,0.49,3.53,1.47,4.66c0.98,1.12,2.33,1.68,4.03,1.68c1.89,0,3.32-0.53,4.29-1.59
	c0.96-1.06,1.42-2.64,1.42-4.75v-1.54h-3.92v1.42c0,1.21-0.12,1.99-0.38,2.34c-0.25,0.35-0.7,0.52-1.33,0.52
	c-0.6,0-1.03-0.2-1.28-0.62c-0.25-0.42-0.37-1.16-0.37-2.25V85.6h7.29V85.61z M85.55,82.43v-2.07c0-0.87,0.13-1.48,0.38-1.85
	c0.27-0.38,0.7-0.57,1.32-0.57c0.59,0,1,0.19,1.26,0.57c0.26,0.36,0.4,0.97,0.4,1.85v2.07H85.55z"/>
<path class="st1" d="M84.19,64.02V43.51h-3.82v15.57c-0.35,0.45-0.75,0.82-1.17,1.1c-0.43,0.29-0.79,0.43-1.06,0.43
	c-0.35,0-0.61-0.1-0.78-0.32c-0.15-0.22-0.24-0.57-0.24-1.06V43.51H73.3v17.14c0,1.23,0.22,2.14,0.67,2.75
	c0.44,0.61,1.11,0.91,1.99,0.91c0.72,0,1.45-0.22,2.22-0.66c0.76-0.43,1.49-1.07,2.19-1.9v2.27H84.19z"/>
<path class="st1" d="M77.78,75.92c-0.63-0.87-1.55-1.3-2.77-1.3c-0.58,0-1.17,0.16-1.76,0.48c-0.57,0.33-1.12,0.82-1.63,1.43v-8.95
	h-3.85v27.81h3.85v-1.57c0.5,0.63,1.04,1.09,1.62,1.4c0.59,0.28,1.25,0.44,2,0.44c1.14,0,1.99-0.39,2.6-1.17
	c0.6-0.77,0.89-1.89,0.89-3.34v-11.4C78.74,78.07,78.43,76.81,77.78,75.92 M74.82,90.58c0,0.66-0.12,1.12-0.33,1.42
	c-0.22,0.28-0.57,0.43-1.03,0.43c-0.32,0-0.63-0.07-0.92-0.22c-0.29-0.16-0.6-0.38-0.9-0.73V78.7c0.26-0.28,0.52-0.49,0.79-0.63
	c0.26-0.13,0.52-0.2,0.79-0.2c0.52,0,0.91,0.17,1.18,0.54c0.28,0.35,0.41,0.88,0.41,1.57L74.82,90.58L74.82,90.58z"/>
</svg>
